<svg width="229" height="66" viewBox="0 0 229 66" fill="none" xmlns="http://www.w3.org/2000/svg">
<path d="M82.016 27V14.592H77.096V10.2H92.6V14.592H87.68V27H82.016ZM96.0566 31.896C95.3366 31.896 94.6006 31.784 93.8486 31.56C93.1126 31.352 92.5206 31.072 92.0726 30.72L93.8726 27C94.1446 27.208 94.4486 27.376 94.7846 27.504C95.1366 27.632 95.4726 27.696 95.7926 27.696C96.2726 27.696 96.6406 27.592 96.8966 27.384C97.1526 27.192 97.3606 26.896 97.5206 26.496L98.0726 25.104L98.4566 24.576L102.657 13.872H107.793L102.393 27.264C101.913 28.464 101.353 29.4 100.713 30.072C100.089 30.744 99.3846 31.216 98.6006 31.488C97.8326 31.76 96.9846 31.896 96.0566 31.896ZM97.3286 27.6L91.6166 13.872H97.1846L101.121 24.096L97.3286 27.6ZM117.382 27.24C116.246 27.24 115.302 27 114.55 26.52C113.814 26.024 113.27 25.28 112.918 24.288C112.566 23.28 112.39 22 112.39 20.448C112.39 18.864 112.55 17.576 112.87 16.584C113.206 15.576 113.742 14.832 114.478 14.352C115.214 13.872 116.182 13.632 117.382 13.632C118.534 13.632 119.59 13.912 120.55 14.472C121.51 15.016 122.278 15.8 122.854 16.824C123.43 17.832 123.718 19.04 123.718 20.448C123.718 21.856 123.43 23.072 122.854 24.096C122.278 25.104 121.51 25.88 120.55 26.424C119.59 26.968 118.534 27.24 117.382 27.24ZM108.622 31.656V13.872H113.782V15.648L113.806 20.448L114.046 25.248V31.656H108.622ZM116.086 23.016C116.486 23.016 116.846 22.92 117.166 22.728C117.486 22.536 117.742 22.248 117.934 21.864C118.126 21.48 118.222 21.008 118.222 20.448C118.222 19.872 118.126 19.392 117.934 19.008C117.742 18.624 117.486 18.336 117.166 18.144C116.846 17.952 116.486 17.856 116.086 17.856C115.686 17.856 115.326 17.952 115.006 18.144C114.686 18.336 114.43 18.624 114.238 19.008C114.046 19.392 113.95 19.872 113.95 20.448C113.95 21.008 114.046 21.48 114.238 21.864C114.43 22.248 114.686 22.536 115.006 22.728C115.326 22.92 115.686 23.016 116.086 23.016ZM125.427 27V13.872H130.851V27H125.427ZM128.139 12.816C127.147 12.816 126.355 12.552 125.763 12.024C125.171 11.496 124.875 10.84 124.875 10.056C124.875 9.272 125.171 8.616 125.763 8.088C126.355 7.56 127.147 7.296 128.139 7.296C129.131 7.296 129.923 7.544 130.515 8.04C131.107 8.536 131.403 9.176 131.403 9.96C131.403 10.792 131.107 11.48 130.515 12.024C129.923 12.552 129.131 12.816 128.139 12.816ZM142.375 13.632C143.383 13.632 144.295 13.84 145.111 14.256C145.927 14.656 146.567 15.288 147.031 16.152C147.511 17.016 147.751 18.136 147.751 19.512V27H142.327V20.448C142.327 19.632 142.183 19.056 141.895 18.72C141.607 18.368 141.215 18.192 140.719 18.192C140.351 18.192 140.007 18.28 139.687 18.456C139.383 18.616 139.135 18.888 138.943 19.272C138.767 19.656 138.679 20.176 138.679 20.832V27H133.255V13.872H138.415V17.712L137.383 16.608C137.895 15.616 138.583 14.872 139.447 14.376C140.327 13.88 141.303 13.632 142.375 13.632ZM157.013 31.896C155.717 31.896 154.501 31.76 153.365 31.488C152.229 31.216 151.253 30.808 150.437 30.264L152.261 26.568C152.773 26.968 153.421 27.28 154.205 27.504C155.005 27.744 155.757 27.864 156.461 27.864C157.581 27.864 158.381 27.624 158.861 27.144C159.341 26.68 159.581 26.008 159.581 25.128V24.024L159.821 19.944L159.845 15.864V13.872H165.005V24.384C165.005 26.928 164.301 28.816 162.893 30.048C161.485 31.28 159.525 31.896 157.013 31.896ZM155.957 26.28C154.853 26.28 153.821 26.024 152.861 25.512C151.901 24.984 151.125 24.248 150.533 23.304C149.941 22.36 149.645 21.24 149.645 19.944C149.645 18.648 149.941 17.528 150.533 16.584C151.125 15.64 151.901 14.912 152.861 14.4C153.821 13.888 154.853 13.632 155.957 13.632C157.093 13.632 158.021 13.856 158.741 14.304C159.477 14.752 160.021 15.448 160.373 16.392C160.725 17.32 160.901 18.504 160.901 19.944C160.901 21.384 160.725 22.576 160.373 23.52C160.021 24.448 159.477 25.144 158.741 25.608C158.021 26.056 157.093 26.28 155.957 26.28ZM157.397 22.056C157.829 22.056 158.213 21.968 158.549 21.792C158.885 21.616 159.149 21.368 159.341 21.048C159.533 20.728 159.629 20.36 159.629 19.944C159.629 19.512 159.533 19.144 159.341 18.84C159.149 18.52 158.885 18.28 158.549 18.12C158.213 17.944 157.829 17.856 157.397 17.856C156.981 17.856 156.597 17.944 156.245 18.12C155.909 18.28 155.637 18.52 155.429 18.84C155.237 19.144 155.141 19.512 155.141 19.944C155.141 20.36 155.237 20.728 155.429 21.048C155.637 21.368 155.909 21.616 156.245 21.792C156.597 21.968 156.981 22.056 157.397 22.056ZM78.368 56V39.2H84.032V51.608H91.616V56H78.368ZM101.191 56V53.672L100.807 53.048V48.632C100.807 47.992 100.607 47.504 100.207 47.168C99.8229 46.832 99.1909 46.664 98.3109 46.664C97.7189 46.664 97.1189 46.76 96.5109 46.952C95.9029 47.128 95.3829 47.376 94.9509 47.696L93.2229 44.12C93.9909 43.64 94.9109 43.272 95.9829 43.016C97.0549 42.76 98.1029 42.632 99.1269 42.632C101.383 42.632 103.127 43.136 104.359 44.144C105.607 45.152 106.231 46.752 106.231 48.944V56H101.191ZM97.4709 56.24C96.3989 56.24 95.5029 56.056 94.7829 55.688C94.0629 55.32 93.5189 54.832 93.1509 54.224C92.7829 53.6 92.5989 52.912 92.5989 52.16C92.5989 51.312 92.8149 50.592 93.2469 50C93.6789 49.408 94.3349 48.96 95.2149 48.656C96.1109 48.352 97.2389 48.2 98.5989 48.2H101.335V50.816H99.4629C98.8869 50.816 98.4629 50.912 98.1909 51.104C97.9349 51.28 97.8069 51.552 97.8069 51.92C97.8069 52.224 97.9189 52.48 98.1429 52.688C98.3829 52.88 98.7029 52.976 99.1029 52.976C99.4709 52.976 99.8069 52.88 100.111 52.688C100.431 52.48 100.663 52.16 100.807 51.728L101.503 53.336C101.295 54.312 100.855 55.04 100.183 55.52C99.5109 56 98.6069 56.24 97.4709 56.24ZM117.335 56.24C116.135 56.24 115.167 56 114.431 55.52C113.695 55.04 113.159 54.296 112.823 53.288C112.503 52.28 112.343 50.992 112.343 49.424C112.343 47.872 112.519 46.6 112.871 45.608C113.223 44.6 113.767 43.856 114.503 43.376C115.255 42.88 116.199 42.632 117.335 42.632C118.487 42.632 119.543 42.904 120.503 43.448C121.463 43.992 122.231 44.776 122.807 45.8C123.383 46.808 123.671 48.016 123.671 49.424C123.671 50.832 123.383 52.048 122.807 53.072C122.231 54.08 121.463 54.864 120.503 55.424C119.543 55.968 118.487 56.24 117.335 56.24ZM108.575 56V38.192H113.999V44.624L113.759 49.424L113.735 54.224V56H108.575ZM116.039 52.016C116.439 52.016 116.799 51.92 117.119 51.728C117.439 51.536 117.695 51.248 117.887 50.864C118.079 50.464 118.175 49.984 118.175 49.424C118.175 48.848 118.079 48.376 117.887 48.008C117.695 47.624 117.439 47.336 117.119 47.144C116.799 46.952 116.439 46.856 116.039 46.856C115.639 46.856 115.279 46.952 114.959 47.144C114.639 47.336 114.383 47.624 114.191 48.008C113.999 48.376 113.903 48.848 113.903 49.424C113.903 49.984 113.999 50.464 114.191 50.864C114.383 51.248 114.639 51.536 114.959 51.728C115.279 51.92 115.639 52.016 116.039 52.016Z" fill="black"/>
<line x1="66.5" x2="66.5" y2="62" stroke="black"/>
<g clip-path="url(#clip0_181_11)">
<g filter="url(#filter0_d_181_11)">
<path d="M30.9716 18.5204L33.1043 16.7068C31.8347 15.767 33.1043 16.7068 30.9557 15.069C28.1552 17.2619 30.9557 15.069 29.4907 16.1132L19.8218 24.3242L21.9702 26.1378L30.9716 18.5204Z" fill="black"/>
<path d="M31.0437 10.4263L29.129 8.80835L28.6905 9.77204C28.5033 10.1695 28.457 10.6248 28.5466 11.047C28.6392 11.4839 28.8616 11.8586 29.1908 12.1309L37.0974 18.6921L39.0943 17.2623L31.0437 10.4263Z" fill="black"/>
</g>
<g filter="url(#filter1_d_181_11)">
<path d="M57.6799 31.9228L54.457 22.1697C54.3007 21.7102 54.0272 21.2925 53.6561 20.9584L36.3888 6.0467C34.8652 4.73097 32.9315 4 30.9586 4C29.0053 4 27.0715 4.73097 25.5479 6.0467L7.9486 21.209C7.81187 21.3343 7.67514 21.4596 7.57747 21.6058L7.55794 21.6267L7.49934 21.7311C7.34308 21.9608 7.22588 22.2115 7.14774 22.4621L4.27638 31.8602C3.92478 33.0506 3.90525 34.3037 4.23731 35.4941C4.56937 36.6846 5.21397 37.7288 6.13202 38.5224L25.8409 55.5225C27.3059 56.7756 29.142 57.4648 31.0172 57.4857H31.0368C32.9119 57.4857 34.748 56.7965 36.1935 55.5434L55.9024 38.7104C57.7385 37.0814 58.4808 34.3663 57.6799 31.9228ZM27.0911 8.11428C28.1849 7.17447 29.5522 6.67324 30.9391 6.65236C32.3455 6.65236 33.7128 7.17447 34.8066 8.11428L50.648 21.8146L34.7871 35.4524C33.6933 36.3922 32.3259 36.8934 30.9391 36.9143C29.5327 36.9143 28.1654 36.3922 27.0715 35.4524L11.2497 21.752L27.0911 8.11428ZM7.65561 36.4339C7.55794 36.3504 7.46028 36.246 7.36261 36.1415C7.30401 36.0789 7.22588 35.9954 7.16728 35.9118C7.14775 35.8909 7.12821 35.87 7.10868 35.8283C7.05008 35.7239 6.97195 35.6403 6.91335 35.5359L6.89381 35.4941C6.87428 35.4732 6.87428 35.4524 6.85475 35.4315C6.71802 35.3479 6.65942 35.1809 6.67895 35.0138C6.67895 34.9929 6.65942 34.972 6.65942 34.9511C6.62035 34.8258 6.58128 34.7005 6.56175 34.5752V34.5334C6.56175 34.5125 6.54222 34.4917 6.54222 34.4917C6.46409 34.3664 6.44455 34.2202 6.50315 34.074C6.50315 34.0531 6.50315 34.0113 6.50315 33.9695C6.50315 33.8442 6.50315 33.7189 6.50315 33.5936V33.5727C6.50315 33.5518 6.50315 33.531 6.50315 33.4892V33.4683C6.50315 33.3639 6.52268 33.2595 6.54222 33.1759C6.56175 33.0297 6.60082 32.9044 6.63988 32.7582L9.43312 23.6525L25.5675 37.6035C26.3097 38.2509 28.3607 39.3996 28.0287 39.0863C27.6966 38.773 26.6027 52.7658 26.6027 52.7658L7.65561 36.4339ZM32.5799 54.0397C32.2869 54.4365 31.8571 54.708 31.3688 54.7707C31.3298 54.7707 31.2712 54.7707 31.2126 54.7916C31.1344 54.7916 31.0563 54.7916 30.9782 54.7916C29.9624 54.7916 29.142 54.5827 28.2631 54.0397C28.2631 54.0397 28.9467 39.2534 28.7123 39.2534C28.4779 39.2534 30.1187 39.5666 30.8414 39.5666C30.8414 39.5666 30.8414 39.5666 30.861 39.5666H31.3884L32.9315 52.5987C33.0096 53.1208 32.8729 53.6429 32.5799 54.0397ZM55.4922 34.074C55.4922 34.0948 55.4922 34.1366 55.4922 34.1575V34.1784C55.4727 34.3037 55.4727 34.429 55.4532 34.5543V34.5752C55.4532 34.5961 55.4336 34.6379 55.4336 34.6587V34.6796C55.4141 34.8049 55.375 34.9302 55.336 35.0347V35.0555C55.3164 35.0764 55.3164 35.1182 55.3164 35.1391V35.16C55.2774 35.2853 55.2188 35.3897 55.1602 35.515L55.1406 35.5359C55.1211 35.5568 55.1211 35.5985 55.1016 35.6194L55.082 35.6403C55.0234 35.7447 54.9453 35.8701 54.8867 35.9745L54.8672 35.9954C54.8476 36.0162 54.8281 36.0371 54.8086 36.0789H54.789C54.7304 36.1624 54.6718 36.2251 54.6132 36.3086C54.5156 36.4131 54.4179 36.5175 54.3202 36.601L35.1192 53.0164L32.951 39.316L33.1659 39.2534C34.3574 38.9192 35.4317 38.3344 36.3888 37.5199L52.3474 23.7778L55.3164 32.8C55.375 32.9253 55.3946 33.0715 55.4336 33.2177C55.4532 33.3221 55.4727 33.4057 55.4727 33.5101V33.5518C55.4727 33.5727 55.4727 33.5936 55.4727 33.6145V33.6354C55.4922 33.8025 55.4922 33.9278 55.4922 34.074Z" fill="black"/>
</g>
<g filter="url(#filter2_d_181_11)">
<path d="M26.7705 27.9012C26.7705 27.9012 26.5077 28.0511 25.9199 28.3649C25.332 28.6786 25.4883 28.4696 25.4883 28.4696C25.3004 28.8673 25.9195 28.887 26.1738 28.678C26.428 28.4689 24.6684 28.5111 24.9984 28.7832L30.5669 33.552L32.5704 32.1206C32.5704 32.1206 30.7825 30.1283 29.6473 29.3022C28.5168 28.4796 26.7705 27.9012 26.7705 27.9012Z" fill="black"/>
<path d="M36.0335 22.8811L38.1663 21.0674L37.2881 20.3254C36.9274 20.0122 36.4726 19.8473 36.0178 19.8473C35.5474 19.8473 35.1083 20.0122 34.7476 20.3254L24.8837 28.6848L27.0321 30.4985L36.0335 22.8811Z" fill="black"/>
</g>
</g>
<defs>
<filter id="filter0_d_181_11" x="15.8218" y="8.80835" width="27.2725" height="25.3295" filterUnits="userSpaceOnUse" color-interpolation-filters="sRGB">
<feFlood flood-opacity="0" result="BackgroundImageFix"/>
<feColorMatrix in="SourceAlpha" type="matrix" values="0 0 0 0 0 0 0 0 0 0 0 0 0 0 0 0 0 0 127 0" result="hardAlpha"/>
<feOffset dy="4"/>
<feGaussianBlur stdDeviation="2"/>
<feComposite in2="hardAlpha" operator="out"/>
<feColorMatrix type="matrix" values="0 0 0 0 0.362874 0 0 0 0 0.268004 0 0 0 0 0.342003 0 0 0 0.5 0"/>
<feBlend mode="normal" in2="BackgroundImageFix" result="effect1_dropShadow_181_11"/>
<feBlend mode="normal" in="SourceGraphic" in2="effect1_dropShadow_181_11" result="shape"/>
</filter>
<filter id="filter1_d_181_11" x="0" y="4" width="62" height="61.4857" filterUnits="userSpaceOnUse" color-interpolation-filters="sRGB">
<feFlood flood-opacity="0" result="BackgroundImageFix"/>
<feColorMatrix in="SourceAlpha" type="matrix" values="0 0 0 0 0 0 0 0 0 0 0 0 0 0 0 0 0 0 127 0" result="hardAlpha"/>
<feOffset dy="4"/>
<feGaussianBlur stdDeviation="2"/>
<feComposite in2="hardAlpha" operator="out"/>
<feColorMatrix type="matrix" values="0 0 0 0 0.362874 0 0 0 0 0.268004 0 0 0 0 0.342003 0 0 0 0.5 0"/>
<feBlend mode="normal" in2="BackgroundImageFix" result="effect1_dropShadow_181_11"/>
<feBlend mode="normal" in="SourceGraphic" in2="effect1_dropShadow_181_11" result="shape"/>
</filter>
<filter id="filter2_d_181_11" x="20.8837" y="19.8473" width="21.2826" height="21.7047" filterUnits="userSpaceOnUse" color-interpolation-filters="sRGB">
<feFlood flood-opacity="0" result="BackgroundImageFix"/>
<feColorMatrix in="SourceAlpha" type="matrix" values="0 0 0 0 0 0 0 0 0 0 0 0 0 0 0 0 0 0 127 0" result="hardAlpha"/>
<feOffset dy="4"/>
<feGaussianBlur stdDeviation="2"/>
<feComposite in2="hardAlpha" operator="out"/>
<feColorMatrix type="matrix" values="0 0 0 0 0.362874 0 0 0 0 0.268004 0 0 0 0 0.342003 0 0 0 0.5 0"/>
<feBlend mode="normal" in2="BackgroundImageFix" result="effect1_dropShadow_181_11"/>
<feBlend mode="normal" in="SourceGraphic" in2="effect1_dropShadow_181_11" result="shape"/>
</filter>
<clipPath id="clip0_181_11">
<rect width="62" height="62" fill="white" transform="translate(0 4)"/>
</clipPath>
</defs>
</svg>
