<svg width="262" height="389" viewBox="0 0 262 389" fill="none" xmlns="http://www.w3.org/2000/svg">
<rect x="0.5" y="0.5" width="261" height="388" rx="37.5" fill="url(#paint0_linear_188_11)" stroke="black"/>
<path d="M40.656 74V51.6H50.352C52.3573 51.6 54.0853 51.9307 55.536 52.592C56.9867 53.232 58.1067 54.16 58.896 55.376C59.6853 56.592 60.08 58.0427 60.08 59.728C60.08 61.392 59.6853 62.832 58.896 64.048C58.1067 65.264 56.9867 66.2027 55.536 66.864C54.0853 67.504 52.3573 67.824 50.352 67.824H43.536L45.84 65.488V74H40.656ZM45.84 66.064L43.536 63.6H50.064C51.664 63.6 52.8587 63.2587 53.648 62.576C54.4373 61.8933 54.832 60.944 54.832 59.728C54.832 58.4907 54.4373 57.5307 53.648 56.848C52.8587 56.1653 51.664 55.824 50.064 55.824H43.536L45.84 53.36V66.064ZM63.3978 74V56.784H68.1658V61.648L67.4938 60.24C68.0058 59.024 68.8271 58.1067 69.9578 57.488C71.0884 56.848 72.4644 56.528 74.0858 56.528V61.136C73.8724 61.1147 73.6804 61.104 73.5098 61.104C73.3391 61.0827 73.1578 61.072 72.9658 61.072C71.6004 61.072 70.4911 61.4667 69.6378 62.256C68.8058 63.024 68.3898 64.2293 68.3898 65.872V74H63.3978ZM85.473 74.256C83.5103 74.256 81.7823 73.872 80.289 73.104C78.817 72.336 77.6757 71.2907 76.865 69.968C76.0543 68.624 75.649 67.0987 75.649 65.392C75.649 63.664 76.0437 62.1387 76.833 60.816C77.6437 59.472 78.7423 58.4267 80.129 57.68C81.5157 56.912 83.0837 56.528 84.833 56.528C86.5183 56.528 88.033 56.8907 89.377 57.616C90.7423 58.32 91.8197 59.344 92.609 60.688C93.3983 62.0107 93.793 63.6 93.793 65.456C93.793 65.648 93.7823 65.872 93.761 66.128C93.7397 66.3627 93.7183 66.5867 93.697 66.8H79.713V63.888H91.073L89.153 64.752C89.153 63.856 88.9717 63.0773 88.609 62.416C88.2463 61.7547 87.745 61.2427 87.105 60.88C86.465 60.496 85.7183 60.304 84.865 60.304C84.0117 60.304 83.2543 60.496 82.593 60.88C81.953 61.2427 81.4517 61.7653 81.089 62.448C80.7263 63.1093 80.545 63.8987 80.545 64.816V65.584C80.545 66.5227 80.7477 67.3547 81.153 68.08C81.5797 68.784 82.1663 69.328 82.913 69.712C83.681 70.0747 84.577 70.256 85.601 70.256C86.5183 70.256 87.3183 70.1173 88.001 69.84C88.705 69.5627 89.345 69.1467 89.921 68.592L92.577 71.472C91.7877 72.368 90.7957 73.0613 89.601 73.552C88.4063 74.0213 87.0303 74.256 85.473 74.256ZM119.165 56.528C120.53 56.528 121.735 56.8053 122.781 57.36C123.847 57.8933 124.679 58.7253 125.277 59.856C125.895 60.9653 126.205 62.3947 126.205 64.144V74H121.213V64.912C121.213 63.5253 120.925 62.5013 120.349 61.84C119.773 61.1787 118.962 60.848 117.917 60.848C117.191 60.848 116.541 61.0187 115.965 61.36C115.389 61.68 114.941 62.1707 114.621 62.832C114.301 63.4933 114.141 64.336 114.141 65.36V74H109.149V64.912C109.149 63.5253 108.861 62.5013 108.285 61.84C107.73 61.1787 106.93 60.848 105.885 60.848C105.159 60.848 104.509 61.0187 103.933 61.36C103.357 61.68 102.909 62.1707 102.589 62.832C102.269 63.4933 102.109 64.336 102.109 65.36V74H97.1165V56.784H101.885V61.488L100.989 60.112C101.586 58.9387 102.429 58.0533 103.517 57.456C104.626 56.8373 105.885 56.528 107.293 56.528C108.871 56.528 110.247 56.9333 111.421 57.744C112.615 58.5333 113.405 59.7493 113.789 61.392L112.029 60.912C112.605 59.568 113.522 58.5013 114.781 57.712C116.061 56.9227 117.522 56.528 119.165 56.528ZM130.679 74V56.784H135.671V74H130.679ZM133.175 54.384C132.258 54.384 131.511 54.1173 130.935 53.584C130.359 53.0507 130.071 52.3893 130.071 51.6C130.071 50.8107 130.359 50.1493 130.935 49.616C131.511 49.0827 132.258 48.816 133.175 48.816C134.092 48.816 134.839 49.072 135.415 49.584C135.991 50.0747 136.279 50.7147 136.279 51.504C136.279 52.336 135.991 53.0293 135.415 53.584C134.86 54.1173 134.114 54.384 133.175 54.384ZM147.568 74.256C146.139 74.256 144.859 73.9787 143.728 73.424C142.619 72.8693 141.755 72.0267 141.136 70.896C140.517 69.744 140.208 68.2827 140.208 66.512V56.784H145.2V65.776C145.2 67.2053 145.499 68.2613 146.096 68.944C146.715 69.6053 147.579 69.936 148.688 69.936C149.456 69.936 150.139 69.776 150.736 69.456C151.333 69.1147 151.803 68.6027 152.144 67.92C152.485 67.216 152.656 66.3413 152.656 65.296V56.784H157.648V74H152.912V69.264L153.776 70.64C153.2 71.8347 152.347 72.7413 151.216 73.36C150.107 73.9573 148.891 74.256 147.568 74.256ZM184.321 56.528C185.686 56.528 186.891 56.8053 187.937 57.36C189.003 57.8933 189.835 58.7253 190.433 59.856C191.051 60.9653 191.361 62.3947 191.361 64.144V74H186.369V64.912C186.369 63.5253 186.081 62.5013 185.505 61.84C184.929 61.1787 184.118 60.848 183.073 60.848C182.347 60.848 181.697 61.0187 181.121 61.36C180.545 61.68 180.097 62.1707 179.777 62.832C179.457 63.4933 179.297 64.336 179.297 65.36V74H174.305V64.912C174.305 63.5253 174.017 62.5013 173.441 61.84C172.886 61.1787 172.086 60.848 171.041 60.848C170.315 60.848 169.665 61.0187 169.089 61.36C168.513 61.68 168.065 62.1707 167.745 62.832C167.425 63.4933 167.265 64.336 167.265 65.36V74H162.273V56.784H167.041V61.488L166.145 60.112C166.742 58.9387 167.585 58.0533 168.673 57.456C169.782 56.8373 171.041 56.528 172.449 56.528C174.027 56.528 175.403 56.9333 176.577 57.744C177.771 58.5333 178.561 59.7493 178.945 61.392L177.185 60.912C177.761 59.568 178.678 58.5013 179.937 57.712C181.217 56.9227 182.678 56.528 184.321 56.528Z" fill="black"/>
<path d="M40.34 96.572H44.672V97.604H40.34V96.572ZM40.46 101H39.26V92.6H45.188V93.644H40.46V101ZM49.234 101.072C48.594 101.072 48.026 100.932 47.53 100.652C47.034 100.372 46.642 99.988 46.354 99.5C46.066 99.004 45.922 98.444 45.922 97.82C45.922 97.188 46.066 96.628 46.354 96.14C46.642 95.652 47.034 95.272 47.53 95C48.026 94.72 48.594 94.58 49.234 94.58C49.866 94.58 50.43 94.72 50.926 95C51.43 95.272 51.822 95.652 52.102 96.14C52.39 96.62 52.534 97.18 52.534 97.82C52.534 98.452 52.39 99.012 52.102 99.5C51.822 99.988 51.43 100.372 50.926 100.652C50.43 100.932 49.866 101.072 49.234 101.072ZM49.234 100.064C49.642 100.064 50.006 99.972 50.326 99.788C50.654 99.604 50.91 99.344 51.094 99.008C51.278 98.664 51.37 98.268 51.37 97.82C51.37 97.364 51.278 96.972 51.094 96.644C50.91 96.308 50.654 96.048 50.326 95.864C50.006 95.68 49.642 95.588 49.234 95.588C48.826 95.588 48.462 95.68 48.142 95.864C47.822 96.048 47.566 96.308 47.374 96.644C47.182 96.972 47.086 97.364 47.086 97.82C47.086 98.268 47.182 98.664 47.374 99.008C47.566 99.344 47.822 99.604 48.142 99.788C48.462 99.972 48.826 100.064 49.234 100.064ZM54.1272 101V94.64H55.2312V96.368L55.1232 95.936C55.2992 95.496 55.5952 95.16 56.0112 94.928C56.4272 94.696 56.9392 94.58 57.5472 94.58V95.696C57.4992 95.688 57.4512 95.684 57.4032 95.684C57.3632 95.684 57.3232 95.684 57.2832 95.684C56.6672 95.684 56.1792 95.868 55.8192 96.236C55.4592 96.604 55.2792 97.136 55.2792 97.832V101H54.1272ZM64.9477 101.072C64.4037 101.072 63.9237 100.972 63.5077 100.772C63.0997 100.572 62.7797 100.268 62.5477 99.86C62.3237 99.444 62.2117 98.924 62.2117 98.3V94.64H63.3637V98.168C63.3637 98.792 63.5117 99.26 63.8077 99.572C64.1117 99.884 64.5357 100.04 65.0797 100.04C65.4797 100.04 65.8277 99.96 66.1237 99.8C66.4197 99.632 66.6477 99.392 66.8077 99.08C66.9677 98.76 67.0477 98.376 67.0477 97.928V94.64H68.1997V101H67.1077V99.284L67.2877 99.74C67.0797 100.164 66.7677 100.492 66.3517 100.724C65.9357 100.956 65.4677 101.072 64.9477 101.072ZM72.2168 101.072C71.6888 101.072 71.1848 101 70.7048 100.856C70.2328 100.712 69.8608 100.536 69.5888 100.328L70.0688 99.416C70.3408 99.6 70.6768 99.756 71.0768 99.884C71.4768 100.012 71.8848 100.076 72.3008 100.076C72.8368 100.076 73.2208 100 73.4528 99.848C73.6928 99.696 73.8128 99.484 73.8128 99.212C73.8128 99.012 73.7408 98.856 73.5968 98.744C73.4528 98.632 73.2608 98.548 73.0208 98.492C72.7888 98.436 72.5288 98.388 72.2408 98.348C71.9528 98.3 71.6648 98.244 71.3768 98.18C71.0888 98.108 70.8248 98.012 70.5848 97.892C70.3448 97.764 70.1528 97.592 70.0088 97.376C69.8648 97.152 69.7928 96.856 69.7928 96.488C69.7928 96.104 69.9008 95.768 70.1168 95.48C70.3328 95.192 70.6368 94.972 71.0288 94.82C71.4288 94.66 71.9008 94.58 72.4448 94.58C72.8608 94.58 73.2808 94.632 73.7048 94.736C74.1368 94.832 74.4888 94.972 74.7608 95.156L74.2688 96.068C73.9808 95.876 73.6808 95.744 73.3688 95.672C73.0568 95.6 72.7448 95.564 72.4328 95.564C71.9288 95.564 71.5528 95.648 71.3048 95.816C71.0568 95.976 70.9328 96.184 70.9328 96.44C70.9328 96.656 71.0048 96.824 71.1488 96.944C71.3008 97.056 71.4928 97.144 71.7248 97.208C71.9648 97.272 72.2288 97.328 72.5168 97.376C72.8048 97.416 73.0928 97.472 73.3808 97.544C73.6688 97.608 73.9288 97.7 74.1608 97.82C74.4008 97.94 74.5928 98.108 74.7368 98.324C74.8888 98.54 74.9648 98.828 74.9648 99.188C74.9648 99.572 74.8528 99.904 74.6288 100.184C74.4048 100.464 74.0888 100.684 73.6808 100.844C73.2728 100.996 72.7848 101.072 72.2168 101.072ZM79.2365 101.072C78.5565 101.072 77.9565 100.932 77.4365 100.652C76.9245 100.372 76.5245 99.988 76.2365 99.5C75.9565 99.012 75.8165 98.452 75.8165 97.82C75.8165 97.188 75.9525 96.628 76.2245 96.14C76.5045 95.652 76.8845 95.272 77.3645 95C77.8525 94.72 78.4005 94.58 79.0085 94.58C79.6245 94.58 80.1685 94.716 80.6405 94.988C81.1125 95.26 81.4805 95.644 81.7445 96.14C82.0165 96.628 82.1525 97.2 82.1525 97.856C82.1525 97.904 82.1485 97.96 82.1405 98.024C82.1405 98.088 82.1365 98.148 82.1285 98.204H76.7165V97.376H81.5285L81.0605 97.664C81.0685 97.256 80.9845 96.892 80.8085 96.572C80.6325 96.252 80.3885 96.004 80.0765 95.828C79.7725 95.644 79.4165 95.552 79.0085 95.552C78.6085 95.552 78.2525 95.644 77.9405 95.828C77.6285 96.004 77.3845 96.256 77.2085 96.584C77.0325 96.904 76.9445 97.272 76.9445 97.688V97.88C76.9445 98.304 77.0405 98.684 77.2325 99.02C77.4325 99.348 77.7085 99.604 78.0605 99.788C78.4125 99.972 78.8165 100.064 79.2725 100.064C79.6485 100.064 79.9885 100 80.2925 99.872C80.6045 99.744 80.8765 99.552 81.1085 99.296L81.7445 100.04C81.4565 100.376 81.0965 100.632 80.6645 100.808C80.2405 100.984 79.7645 101.072 79.2365 101.072ZM83.7522 101V94.64H84.8562V96.368L84.7482 95.936C84.9242 95.496 85.2202 95.16 85.6362 94.928C86.0522 94.696 86.5642 94.58 87.1722 94.58V95.696C87.1242 95.688 87.0762 95.684 87.0282 95.684C86.9882 95.684 86.9482 95.684 86.9082 95.684C86.2922 95.684 85.8042 95.868 85.4442 96.236C85.0842 96.604 84.9042 97.136 84.9042 97.832V101H83.7522ZM90.4863 101.072C89.9583 101.072 89.4543 101 88.9743 100.856C88.5023 100.712 88.1303 100.536 87.8583 100.328L88.3383 99.416C88.6103 99.6 88.9463 99.756 89.3463 99.884C89.7463 100.012 90.1543 100.076 90.5703 100.076C91.1063 100.076 91.4903 100 91.7223 99.848C91.9623 99.696 92.0823 99.484 92.0823 99.212C92.0823 99.012 92.0103 98.856 91.8663 98.744C91.7223 98.632 91.5303 98.548 91.2903 98.492C91.0583 98.436 90.7983 98.388 90.5103 98.348C90.2223 98.3 89.9343 98.244 89.6463 98.18C89.3583 98.108 89.0943 98.012 88.8543 97.892C88.6143 97.764 88.4223 97.592 88.2783 97.376C88.1343 97.152 88.0623 96.856 88.0623 96.488C88.0623 96.104 88.1703 95.768 88.3863 95.48C88.6023 95.192 88.9063 94.972 89.2983 94.82C89.6983 94.66 90.1703 94.58 90.7143 94.58C91.1303 94.58 91.5503 94.632 91.9743 94.736C92.4063 94.832 92.7583 94.972 93.0303 95.156L92.5383 96.068C92.2503 95.876 91.9503 95.744 91.6383 95.672C91.3263 95.6 91.0143 95.564 90.7023 95.564C90.1983 95.564 89.8223 95.648 89.5743 95.816C89.3263 95.976 89.2023 96.184 89.2023 96.44C89.2023 96.656 89.2743 96.824 89.4183 96.944C89.5703 97.056 89.7623 97.144 89.9943 97.208C90.2343 97.272 90.4983 97.328 90.7863 97.376C91.0743 97.416 91.3623 97.472 91.6503 97.544C91.9383 97.608 92.1983 97.7 92.4303 97.82C92.6703 97.94 92.8623 98.108 93.0063 98.324C93.1583 98.54 93.2343 98.828 93.2343 99.188C93.2343 99.572 93.1223 99.904 92.8983 100.184C92.6743 100.464 92.3583 100.684 91.9503 100.844C91.5423 100.996 91.0543 101.072 90.4863 101.072ZM99.2407 101L96.8767 94.64H97.9687L100.069 100.4H99.5527L101.737 94.64H102.709L104.845 100.4H104.341L106.489 94.64H107.521L105.145 101H104.041L102.037 95.744H102.373L100.345 101H99.2407ZM112.086 94.58C112.606 94.58 113.062 94.68 113.454 94.88C113.854 95.08 114.166 95.384 114.39 95.792C114.614 96.2 114.726 96.716 114.726 97.34V101H113.574V97.472C113.574 96.856 113.422 96.392 113.118 96.08C112.822 95.768 112.402 95.612 111.858 95.612C111.45 95.612 111.094 95.692 110.79 95.852C110.486 96.012 110.25 96.248 110.082 96.56C109.922 96.872 109.842 97.26 109.842 97.724V101H108.69V92.096H109.842V96.356L109.614 95.9C109.822 95.484 110.142 95.16 110.574 94.928C111.006 94.696 111.51 94.58 112.086 94.58ZM119.582 101.072C118.942 101.072 118.374 100.932 117.878 100.652C117.382 100.372 116.99 99.988 116.702 99.5C116.414 99.004 116.27 98.444 116.27 97.82C116.27 97.188 116.414 96.628 116.702 96.14C116.99 95.652 117.382 95.272 117.878 95C118.374 94.72 118.942 94.58 119.582 94.58C120.214 94.58 120.778 94.72 121.274 95C121.778 95.272 122.17 95.652 122.45 96.14C122.738 96.62 122.882 97.18 122.882 97.82C122.882 98.452 122.738 99.012 122.45 99.5C122.17 99.988 121.778 100.372 121.274 100.652C120.778 100.932 120.214 101.072 119.582 101.072ZM119.582 100.064C119.99 100.064 120.354 99.972 120.674 99.788C121.002 99.604 121.258 99.344 121.442 99.008C121.626 98.664 121.718 98.268 121.718 97.82C121.718 97.364 121.626 96.972 121.442 96.644C121.258 96.308 121.002 96.048 120.674 95.864C120.354 95.68 119.99 95.588 119.582 95.588C119.174 95.588 118.81 95.68 118.49 95.864C118.17 96.048 117.914 96.308 117.722 96.644C117.53 96.972 117.434 97.364 117.434 97.82C117.434 98.268 117.53 98.664 117.722 99.008C117.914 99.344 118.17 99.604 118.49 99.788C118.81 99.972 119.174 100.064 119.582 100.064ZM129.041 101L126.677 94.64H127.769L129.869 100.4H129.353L131.537 94.64H132.509L134.645 100.4H134.141L136.289 94.64H137.321L134.945 101H133.841L131.837 95.744H132.173L130.145 101H129.041ZM142.239 101V99.656L142.179 99.404V97.112C142.179 96.624 142.035 96.248 141.747 95.984C141.467 95.712 141.043 95.576 140.475 95.576C140.099 95.576 139.731 95.64 139.371 95.768C139.011 95.888 138.707 96.052 138.459 96.26L137.979 95.396C138.307 95.132 138.699 94.932 139.155 94.796C139.619 94.652 140.103 94.58 140.607 94.58C141.479 94.58 142.151 94.792 142.623 95.216C143.095 95.64 143.331 96.288 143.331 97.16V101H142.239ZM140.151 101.072C139.679 101.072 139.263 100.992 138.903 100.832C138.551 100.672 138.279 100.452 138.087 100.172C137.895 99.884 137.799 99.56 137.799 99.2C137.799 98.856 137.879 98.544 138.039 98.264C138.207 97.984 138.475 97.76 138.843 97.592C139.219 97.424 139.723 97.34 140.355 97.34H142.371V98.168H140.403C139.827 98.168 139.439 98.264 139.239 98.456C139.039 98.648 138.939 98.88 138.939 99.152C138.939 99.464 139.063 99.716 139.311 99.908C139.559 100.092 139.903 100.184 140.343 100.184C140.775 100.184 141.151 100.088 141.471 99.896C141.799 99.704 142.035 99.424 142.179 99.056L142.407 99.848C142.255 100.224 141.987 100.524 141.603 100.748C141.219 100.964 140.735 101.072 140.151 101.072ZM148.859 94.58C149.379 94.58 149.835 94.68 150.227 94.88C150.627 95.08 150.939 95.384 151.163 95.792C151.387 96.2 151.499 96.716 151.499 97.34V101H150.347V97.472C150.347 96.856 150.195 96.392 149.891 96.08C149.595 95.768 149.175 95.612 148.631 95.612C148.223 95.612 147.867 95.692 147.563 95.852C147.259 96.012 147.023 96.248 146.855 96.56C146.695 96.872 146.615 97.26 146.615 97.724V101H145.463V94.64H146.567V96.356L146.387 95.9C146.595 95.484 146.915 95.16 147.347 94.928C147.779 94.696 148.283 94.58 148.859 94.58ZM155.815 101.072C155.175 101.072 154.679 100.9 154.327 100.556C153.975 100.212 153.799 99.72 153.799 99.08V93.248H154.951V99.032C154.951 99.376 155.035 99.64 155.203 99.824C155.379 100.008 155.627 100.1 155.947 100.1C156.307 100.1 156.607 100 156.847 99.8L157.207 100.628C157.031 100.78 156.819 100.892 156.571 100.964C156.331 101.036 156.079 101.072 155.815 101.072ZM152.719 95.588V94.64H156.775V95.588H152.719ZM169.778 94.58C170.29 94.58 170.742 94.68 171.134 94.88C171.526 95.08 171.83 95.384 172.046 95.792C172.27 96.2 172.382 96.716 172.382 97.34V101H171.23V97.472C171.23 96.856 171.086 96.392 170.798 96.08C170.51 95.768 170.106 95.612 169.586 95.612C169.202 95.612 168.866 95.692 168.578 95.852C168.29 96.012 168.066 96.248 167.906 96.56C167.754 96.872 167.678 97.26 167.678 97.724V101H166.526V97.472C166.526 96.856 166.382 96.392 166.094 96.08C165.814 95.768 165.41 95.612 164.882 95.612C164.506 95.612 164.174 95.692 163.886 95.852C163.598 96.012 163.374 96.248 163.214 96.56C163.054 96.872 162.974 97.26 162.974 97.724V101H161.822V94.64H162.926V96.332L162.746 95.9C162.946 95.484 163.254 95.16 163.67 94.928C164.086 94.696 164.57 94.58 165.122 94.58C165.73 94.58 166.254 94.732 166.694 95.036C167.134 95.332 167.422 95.784 167.558 96.392L167.09 96.2C167.282 95.712 167.618 95.32 168.098 95.024C168.578 94.728 169.138 94.58 169.778 94.58ZM177.226 101.072C176.586 101.072 176.018 100.932 175.522 100.652C175.026 100.372 174.634 99.988 174.346 99.5C174.058 99.004 173.914 98.444 173.914 97.82C173.914 97.188 174.058 96.628 174.346 96.14C174.634 95.652 175.026 95.272 175.522 95C176.018 94.72 176.586 94.58 177.226 94.58C177.858 94.58 178.422 94.72 178.918 95C179.422 95.272 179.814 95.652 180.094 96.14C180.382 96.62 180.526 97.18 180.526 97.82C180.526 98.452 180.382 99.012 180.094 99.5C179.814 99.988 179.422 100.372 178.918 100.652C178.422 100.932 177.858 101.072 177.226 101.072ZM177.226 100.064C177.634 100.064 177.998 99.972 178.318 99.788C178.646 99.604 178.902 99.344 179.086 99.008C179.27 98.664 179.362 98.268 179.362 97.82C179.362 97.364 179.27 96.972 179.086 96.644C178.902 96.308 178.646 96.048 178.318 95.864C177.998 95.68 177.634 95.588 177.226 95.588C176.818 95.588 176.454 95.68 176.134 95.864C175.814 96.048 175.558 96.308 175.366 96.644C175.174 96.972 175.078 97.364 175.078 97.82C175.078 98.268 175.174 98.664 175.366 99.008C175.558 99.344 175.814 99.604 176.134 99.788C176.454 99.972 176.818 100.064 177.226 100.064ZM182.119 101V94.64H183.223V96.368L183.115 95.936C183.291 95.496 183.587 95.16 184.003 94.928C184.419 94.696 184.931 94.58 185.539 94.58V95.696C185.491 95.688 185.443 95.684 185.395 95.684C185.355 95.684 185.315 95.684 185.275 95.684C184.659 95.684 184.171 95.868 183.811 96.236C183.451 96.604 183.271 97.136 183.271 97.832V101H182.119ZM189.733 101.072C189.053 101.072 188.453 100.932 187.933 100.652C187.421 100.372 187.021 99.988 186.733 99.5C186.453 99.012 186.313 98.452 186.313 97.82C186.313 97.188 186.449 96.628 186.721 96.14C187.001 95.652 187.381 95.272 187.861 95C188.349 94.72 188.897 94.58 189.505 94.58C190.121 94.58 190.665 94.716 191.137 94.988C191.609 95.26 191.977 95.644 192.241 96.14C192.513 96.628 192.649 97.2 192.649 97.856C192.649 97.904 192.645 97.96 192.637 98.024C192.637 98.088 192.633 98.148 192.625 98.204H187.213V97.376H192.025L191.557 97.664C191.565 97.256 191.481 96.892 191.305 96.572C191.129 96.252 190.885 96.004 190.573 95.828C190.269 95.644 189.913 95.552 189.505 95.552C189.105 95.552 188.749 95.644 188.437 95.828C188.125 96.004 187.881 96.256 187.705 96.584C187.529 96.904 187.441 97.272 187.441 97.688V97.88C187.441 98.304 187.537 98.684 187.729 99.02C187.929 99.348 188.205 99.604 188.557 99.788C188.909 99.972 189.313 100.064 189.769 100.064C190.145 100.064 190.485 100 190.789 99.872C191.101 99.744 191.373 99.552 191.605 99.296L192.241 100.04C191.953 100.376 191.593 100.632 191.161 100.808C190.737 100.984 190.261 101.072 189.733 101.072Z" fill="#8A8A8A"/>
<path d="M41.408 182.44V171.16H42.176V182.44H41.408ZM41.708 181.096C41.068 181.096 40.456 181 39.872 180.808C39.288 180.608 38.828 180.352 38.492 180.04L38.936 179.104C39.256 179.384 39.664 179.616 40.16 179.8C40.656 179.984 41.172 180.076 41.708 180.076C42.196 180.076 42.592 180.02 42.896 179.908C43.2 179.796 43.424 179.644 43.568 179.452C43.712 179.252 43.784 179.028 43.784 178.78C43.784 178.492 43.688 178.26 43.496 178.084C43.312 177.908 43.068 177.768 42.764 177.664C42.468 177.552 42.14 177.456 41.78 177.376C41.42 177.296 41.056 177.204 40.688 177.1C40.328 176.988 39.996 176.848 39.692 176.68C39.396 176.512 39.156 176.288 38.972 176.008C38.788 175.72 38.696 175.352 38.696 174.904C38.696 174.472 38.808 174.076 39.032 173.716C39.264 173.348 39.616 173.056 40.088 172.84C40.568 172.616 41.176 172.504 41.912 172.504C42.4 172.504 42.884 172.568 43.364 172.696C43.844 172.824 44.26 173.008 44.612 173.248L44.216 174.208C43.856 173.968 43.476 173.796 43.076 173.692C42.676 173.58 42.288 173.524 41.912 173.524C41.44 173.524 41.052 173.584 40.748 173.704C40.444 173.824 40.22 173.984 40.076 174.184C39.94 174.384 39.872 174.608 39.872 174.856C39.872 175.152 39.964 175.388 40.148 175.564C40.34 175.74 40.584 175.88 40.88 175.984C41.184 176.088 41.516 176.184 41.876 176.272C42.236 176.352 42.596 176.444 42.956 176.548C43.324 176.652 43.656 176.788 43.952 176.956C44.256 177.124 44.5 177.348 44.684 177.628C44.868 177.908 44.96 178.268 44.96 178.708C44.96 179.132 44.844 179.528 44.612 179.896C44.38 180.256 44.02 180.548 43.532 180.772C43.052 180.988 42.444 181.096 41.708 181.096Z" fill="black"/>
<path d="M60.624 218V175.76L63.376 178.768H50.512V173.2H66.96V218H60.624ZM80.9835 218.384C79.7888 218.384 78.7648 217.979 77.9115 217.168C77.0582 216.315 76.6315 215.248 76.6315 213.968C76.6315 212.688 77.0582 211.643 77.9115 210.832C78.7648 210.021 79.7888 209.616 80.9835 209.616C82.1355 209.616 83.1168 210.021 83.9275 210.832C84.7808 211.643 85.2075 212.688 85.2075 213.968C85.2075 215.248 84.7808 216.315 83.9275 217.168C83.1168 217.979 82.1355 218.384 80.9835 218.384ZM105.788 172.688C109.841 172.688 113.254 173.563 116.028 175.312C118.844 177.061 120.977 179.6 122.428 182.928C123.878 186.213 124.604 190.245 124.604 195.024C124.604 200.101 123.708 204.389 121.916 207.888C120.124 211.387 117.649 214.032 114.492 215.824C111.334 217.616 107.644 218.512 103.42 218.512C101.329 218.512 99.3022 218.299 97.3395 217.872C95.4195 217.445 93.7342 216.784 92.2835 215.888L94.7155 210.896C95.9102 211.664 97.2328 212.219 98.6835 212.56C100.177 212.859 101.734 213.008 103.356 213.008C107.878 213.008 111.484 211.6 114.172 208.784C116.86 205.925 118.204 201.701 118.204 196.112C118.204 195.216 118.161 194.149 118.076 192.912C117.99 191.675 117.798 190.459 117.5 189.264L119.612 191.44C119.014 193.403 118.012 195.067 116.604 196.432C115.238 197.755 113.574 198.757 111.612 199.44C109.692 200.08 107.58 200.4 105.276 200.4C102.332 200.4 99.7075 199.845 97.4035 198.736C95.0995 197.627 93.2862 196.069 91.9635 194.064C90.6408 192.016 89.9795 189.605 89.9795 186.832C89.9795 183.931 90.6622 181.435 92.0275 179.344C93.4355 177.211 95.3342 175.568 97.7235 174.416C100.156 173.264 102.844 172.688 105.788 172.688ZM106.044 177.872C104.124 177.872 102.417 178.235 100.924 178.96C99.4302 179.685 98.2568 180.688 97.4035 181.968C96.5928 183.248 96.1875 184.784 96.1875 186.576C96.1875 189.221 97.1048 191.333 98.9395 192.912C100.774 194.448 103.249 195.216 106.364 195.216C108.412 195.216 110.204 194.832 111.74 194.064C113.318 193.296 114.534 192.251 115.388 190.928C116.284 189.605 116.732 188.133 116.732 186.512C116.732 184.933 116.326 183.504 115.516 182.224C114.705 180.944 113.51 179.899 111.932 179.088C110.353 178.277 108.39 177.872 106.044 177.872ZM145.288 172.688C149.341 172.688 152.754 173.563 155.528 175.312C158.344 177.061 160.477 179.6 161.928 182.928C163.378 186.213 164.104 190.245 164.104 195.024C164.104 200.101 163.208 204.389 161.416 207.888C159.624 211.387 157.149 214.032 153.992 215.824C150.834 217.616 147.144 218.512 142.92 218.512C140.829 218.512 138.802 218.299 136.84 217.872C134.92 217.445 133.234 216.784 131.784 215.888L134.216 210.896C135.41 211.664 136.733 212.219 138.184 212.56C139.677 212.859 141.234 213.008 142.856 213.008C147.378 213.008 150.984 211.6 153.672 208.784C156.36 205.925 157.704 201.701 157.704 196.112C157.704 195.216 157.661 194.149 157.576 192.912C157.49 191.675 157.298 190.459 157 189.264L159.112 191.44C158.514 193.403 157.512 195.067 156.104 196.432C154.738 197.755 153.074 198.757 151.112 199.44C149.192 200.08 147.08 200.4 144.776 200.4C141.832 200.4 139.208 199.845 136.904 198.736C134.6 197.627 132.786 196.069 131.464 194.064C130.141 192.016 129.48 189.605 129.48 186.832C129.48 183.931 130.162 181.435 131.528 179.344C132.936 177.211 134.834 175.568 137.224 174.416C139.656 173.264 142.344 172.688 145.288 172.688ZM145.544 177.872C143.624 177.872 141.917 178.235 140.424 178.96C138.93 179.685 137.757 180.688 136.904 181.968C136.093 183.248 135.688 184.784 135.688 186.576C135.688 189.221 136.605 191.333 138.44 192.912C140.274 194.448 142.749 195.216 145.864 195.216C147.912 195.216 149.704 194.832 151.24 194.064C152.818 193.296 154.034 192.251 154.888 190.928C155.784 189.605 156.232 188.133 156.232 186.512C156.232 184.933 155.826 183.504 155.016 182.224C154.205 180.944 153.01 179.899 151.432 179.088C149.853 178.277 147.89 177.872 145.544 177.872Z" fill="black"/>
<path d="M175.664 219.2L179.624 207.896H180.668L176.708 219.2H175.664ZM188.458 211.58C188.97 211.58 189.422 211.68 189.814 211.88C190.206 212.08 190.51 212.384 190.726 212.792C190.95 213.2 191.062 213.716 191.062 214.34V218H189.91V214.472C189.91 213.856 189.766 213.392 189.478 213.08C189.19 212.768 188.786 212.612 188.266 212.612C187.882 212.612 187.546 212.692 187.258 212.852C186.97 213.012 186.746 213.248 186.586 213.56C186.434 213.872 186.358 214.26 186.358 214.724V218H185.206V214.472C185.206 213.856 185.062 213.392 184.774 213.08C184.494 212.768 184.09 212.612 183.562 212.612C183.186 212.612 182.854 212.692 182.566 212.852C182.278 213.012 182.054 213.248 181.894 213.56C181.734 213.872 181.654 214.26 181.654 214.724V218H180.502V211.64H181.606V213.332L181.426 212.9C181.626 212.484 181.934 212.16 182.35 211.928C182.766 211.696 183.25 211.58 183.802 211.58C184.41 211.58 184.934 211.732 185.374 212.036C185.814 212.332 186.102 212.784 186.238 213.392L185.77 213.2C185.962 212.712 186.298 212.32 186.778 212.024C187.258 211.728 187.818 211.58 188.458 211.58ZM195.906 218.072C195.266 218.072 194.698 217.932 194.202 217.652C193.706 217.372 193.314 216.988 193.026 216.5C192.738 216.004 192.594 215.444 192.594 214.82C192.594 214.188 192.738 213.628 193.026 213.14C193.314 212.652 193.706 212.272 194.202 212C194.698 211.72 195.266 211.58 195.906 211.58C196.538 211.58 197.102 211.72 197.598 212C198.102 212.272 198.494 212.652 198.774 213.14C199.062 213.62 199.206 214.18 199.206 214.82C199.206 215.452 199.062 216.012 198.774 216.5C198.494 216.988 198.102 217.372 197.598 217.652C197.102 217.932 196.538 218.072 195.906 218.072ZM195.906 217.064C196.314 217.064 196.678 216.972 196.998 216.788C197.326 216.604 197.582 216.344 197.766 216.008C197.95 215.664 198.042 215.268 198.042 214.82C198.042 214.364 197.95 213.972 197.766 213.644C197.582 213.308 197.326 213.048 196.998 212.864C196.678 212.68 196.314 212.588 195.906 212.588C195.498 212.588 195.134 212.68 194.814 212.864C194.494 213.048 194.238 213.308 194.046 213.644C193.854 213.972 193.758 214.364 193.758 214.82C193.758 215.268 193.854 215.664 194.046 216.008C194.238 216.344 194.494 216.604 194.814 216.788C195.134 216.972 195.498 217.064 195.906 217.064ZM204.195 211.58C204.715 211.58 205.171 211.68 205.563 211.88C205.963 212.08 206.275 212.384 206.499 212.792C206.723 213.2 206.835 213.716 206.835 214.34V218H205.683V214.472C205.683 213.856 205.531 213.392 205.227 213.08C204.931 212.768 204.511 212.612 203.967 212.612C203.559 212.612 203.203 212.692 202.899 212.852C202.595 213.012 202.359 213.248 202.191 213.56C202.031 213.872 201.951 214.26 201.951 214.724V218H200.799V211.64H201.903V213.356L201.723 212.9C201.931 212.484 202.251 212.16 202.683 211.928C203.115 211.696 203.619 211.58 204.195 211.58ZM211.151 218.072C210.511 218.072 210.015 217.9 209.663 217.556C209.311 217.212 209.135 216.72 209.135 216.08V210.248H210.287V216.032C210.287 216.376 210.371 216.64 210.539 216.824C210.715 217.008 210.963 217.1 211.283 217.1C211.643 217.1 211.943 217 212.183 216.8L212.543 217.628C212.367 217.78 212.155 217.892 211.907 217.964C211.667 218.036 211.415 218.072 211.151 218.072ZM208.055 212.588V211.64H212.111V212.588H208.055ZM217.332 211.58C217.852 211.58 218.308 211.68 218.7 211.88C219.1 212.08 219.412 212.384 219.636 212.792C219.86 213.2 219.972 213.716 219.972 214.34V218H218.82V214.472C218.82 213.856 218.668 213.392 218.364 213.08C218.068 212.768 217.648 212.612 217.104 212.612C216.696 212.612 216.34 212.692 216.036 212.852C215.732 213.012 215.496 213.248 215.328 213.56C215.168 213.872 215.088 214.26 215.088 214.724V218H213.936V209.096H215.088V213.356L214.86 212.9C215.068 212.484 215.388 212.16 215.82 211.928C216.252 211.696 216.756 211.58 217.332 211.58Z" fill="#8A8A8A"/>
<rect x="19" y="240" width="220" height="1" fill="#D9D9D9"/>
<path d="M46.508 279.528C46.508 279.42 46.496 279.372 46.448 279.372L46.172 279.504C46.172 279.444 46.136 279.408 46.076 279.384L45.98 279.372C45.896 279.372 45.86 279.384 45.74 279.456C45.704 279.384 45.656 279.3 45.62 279.228C45.308 278.628 44.984 277.728 44.84 277.332C44.768 277.128 44.696 276.708 44.612 276.072C44.708 276.132 44.78 276.156 44.816 276.156C44.864 276.156 44.924 276.072 44.972 275.904C44.996 275.94 45.044 275.952 45.104 275.952C45.14 275.952 45.188 275.94 45.212 275.904L45.404 275.616L45.62 275.688H45.632C45.656 275.688 45.692 275.652 45.752 275.616C45.812 275.58 45.86 275.556 45.896 275.556L45.932 275.568C46.124 275.664 46.256 275.832 46.316 276.096C46.46 276.708 46.592 277.008 46.748 277.008C46.88 277.008 47.06 276.852 47.252 276.552C47.444 276.252 47.636 275.844 47.852 275.352C47.864 275.448 47.876 275.496 47.9 275.496C47.972 275.496 48.152 275.076 48.596 274.368C49.256 273.3 50.888 271.248 51.308 270.96C51.62 270.744 51.86 270.54 52.028 270.36C52.004 270.48 51.98 270.564 51.98 270.6C51.98 270.636 52.004 270.648 52.028 270.648L52.364 270.48V270.528C52.364 270.588 52.376 270.624 52.412 270.624C52.46 270.624 52.652 270.432 52.676 270.36L52.652 270.528L53.06 270.288L52.964 270.504C53.084 270.42 53.18 270.372 53.24 270.372C53.3 270.372 53.336 270.468 53.336 270.528C53.336 270.624 53.252 270.756 53.12 270.924C52.976 271.116 52.616 271.488 51.536 272.724C51.068 273.252 48.992 276.072 48.596 276.744L47.852 278.004C47.528 278.544 47.324 278.892 47.216 279.024C47.108 279.156 46.976 279.288 46.82 279.408L46.712 279.348L46.616 279.408L46.508 279.528Z" fill="black"/>
<path d="M47.508 308.528C47.508 308.42 47.496 308.372 47.448 308.372L47.172 308.504C47.172 308.444 47.136 308.408 47.076 308.384L46.98 308.372C46.896 308.372 46.86 308.384 46.74 308.456C46.704 308.384 46.656 308.3 46.62 308.228C46.308 307.628 45.984 306.728 45.84 306.332C45.768 306.128 45.696 305.708 45.612 305.072C45.708 305.132 45.78 305.156 45.816 305.156C45.864 305.156 45.924 305.072 45.972 304.904C45.996 304.94 46.044 304.952 46.104 304.952C46.14 304.952 46.188 304.94 46.212 304.904L46.404 304.616L46.62 304.688H46.632C46.656 304.688 46.692 304.652 46.752 304.616C46.812 304.58 46.86 304.556 46.896 304.556L46.932 304.568C47.124 304.664 47.256 304.832 47.316 305.096C47.46 305.708 47.592 306.008 47.748 306.008C47.88 306.008 48.06 305.852 48.252 305.552C48.444 305.252 48.636 304.844 48.852 304.352C48.864 304.448 48.876 304.496 48.9 304.496C48.972 304.496 49.152 304.076 49.596 303.368C50.256 302.3 51.888 300.248 52.308 299.96C52.62 299.744 52.86 299.54 53.028 299.36C53.004 299.48 52.98 299.564 52.98 299.6C52.98 299.636 53.004 299.648 53.028 299.648L53.364 299.48V299.528C53.364 299.588 53.376 299.624 53.412 299.624C53.46 299.624 53.652 299.432 53.676 299.36L53.652 299.528L54.06 299.288L53.964 299.504C54.084 299.42 54.18 299.372 54.24 299.372C54.3 299.372 54.336 299.468 54.336 299.528C54.336 299.624 54.252 299.756 54.12 299.924C53.976 300.116 53.616 300.488 52.536 301.724C52.068 302.252 49.992 305.072 49.596 305.744L48.852 307.004C48.528 307.544 48.324 307.892 48.216 308.024C48.108 308.156 47.976 308.288 47.82 308.408L47.712 308.348L47.616 308.408L47.508 308.528Z" fill="black"/>
<path d="M79.74 279.096C78.636 279.096 77.768 278.78 77.136 278.148C76.504 277.516 76.188 276.592 76.188 275.376V270.6H77.388V275.328C77.388 276.264 77.592 276.948 78 277.38C78.416 277.812 79 278.028 79.752 278.028C80.512 278.028 81.096 277.812 81.504 277.38C81.92 276.948 82.128 276.264 82.128 275.328V270.6H83.292V275.376C83.292 276.592 82.976 277.516 82.344 278.148C81.72 278.78 80.852 279.096 79.74 279.096ZM88.9802 272.58C89.5002 272.58 89.9562 272.68 90.3482 272.88C90.7482 273.08 91.0602 273.384 91.2842 273.792C91.5082 274.2 91.6202 274.716 91.6202 275.34V279H90.4682V275.472C90.4682 274.856 90.3162 274.392 90.0122 274.08C89.7162 273.768 89.2962 273.612 88.7522 273.612C88.3442 273.612 87.9882 273.692 87.6842 273.852C87.3802 274.012 87.1442 274.248 86.9762 274.56C86.8162 274.872 86.7362 275.26 86.7362 275.724V279H85.5842V272.64H86.6882V274.356L86.5082 273.9C86.7162 273.484 87.0362 273.16 87.4682 272.928C87.9002 272.696 88.4042 272.58 88.9802 272.58ZM93.7522 279V270.096H94.9042V279H93.7522ZM97.1037 279V272.64H98.2557V279H97.1037ZM97.6797 271.416C97.4557 271.416 97.2677 271.344 97.1157 271.2C96.9717 271.056 96.8997 270.88 96.8997 270.672C96.8997 270.456 96.9717 270.276 97.1157 270.132C97.2677 269.988 97.4557 269.916 97.6797 269.916C97.9037 269.916 98.0877 269.988 98.2317 270.132C98.3837 270.268 98.4597 270.44 98.4597 270.648C98.4597 270.864 98.3877 271.048 98.2437 271.2C98.0997 271.344 97.9117 271.416 97.6797 271.416ZM108.411 272.58C108.923 272.58 109.375 272.68 109.767 272.88C110.159 273.08 110.463 273.384 110.679 273.792C110.903 274.2 111.015 274.716 111.015 275.34V279H109.863V275.472C109.863 274.856 109.719 274.392 109.431 274.08C109.143 273.768 108.739 273.612 108.219 273.612C107.835 273.612 107.499 273.692 107.211 273.852C106.923 274.012 106.699 274.248 106.539 274.56C106.387 274.872 106.311 275.26 106.311 275.724V279H105.159V275.472C105.159 274.856 105.015 274.392 104.727 274.08C104.447 273.768 104.043 273.612 103.515 273.612C103.139 273.612 102.807 273.692 102.519 273.852C102.231 274.012 102.007 274.248 101.847 274.56C101.687 274.872 101.607 275.26 101.607 275.724V279H100.455V272.64H101.559V274.332L101.379 273.9C101.579 273.484 101.887 273.16 102.303 272.928C102.719 272.696 103.203 272.58 103.755 272.58C104.363 272.58 104.887 272.732 105.327 273.036C105.767 273.332 106.055 273.784 106.191 274.392L105.723 274.2C105.915 273.712 106.251 273.32 106.731 273.024C107.211 272.728 107.771 272.58 108.411 272.58ZM113.135 279V272.64H114.287V279H113.135ZM113.711 271.416C113.487 271.416 113.299 271.344 113.147 271.2C113.003 271.056 112.931 270.88 112.931 270.672C112.931 270.456 113.003 270.276 113.147 270.132C113.299 269.988 113.487 269.916 113.711 269.916C113.935 269.916 114.119 269.988 114.263 270.132C114.415 270.268 114.491 270.44 114.491 270.648C114.491 270.864 114.419 271.048 114.275 271.2C114.131 271.344 113.943 271.416 113.711 271.416ZM118.671 279.072C118.031 279.072 117.535 278.9 117.183 278.556C116.831 278.212 116.655 277.72 116.655 277.08V271.248H117.807V277.032C117.807 277.376 117.891 277.64 118.059 277.824C118.235 278.008 118.483 278.1 118.803 278.1C119.163 278.1 119.463 278 119.703 277.8L120.063 278.628C119.887 278.78 119.675 278.892 119.427 278.964C119.187 279.036 118.935 279.072 118.671 279.072ZM115.575 273.588V272.64H119.631V273.588H115.575ZM124.076 279.072C123.396 279.072 122.796 278.932 122.276 278.652C121.764 278.372 121.364 277.988 121.076 277.5C120.796 277.012 120.656 276.452 120.656 275.82C120.656 275.188 120.792 274.628 121.064 274.14C121.344 273.652 121.724 273.272 122.204 273C122.692 272.72 123.24 272.58 123.848 272.58C124.464 272.58 125.008 272.716 125.48 272.988C125.952 273.26 126.32 273.644 126.584 274.14C126.856 274.628 126.992 275.2 126.992 275.856C126.992 275.904 126.988 275.96 126.98 276.024C126.98 276.088 126.976 276.148 126.968 276.204H121.556V275.376H126.368L125.9 275.664C125.908 275.256 125.824 274.892 125.648 274.572C125.472 274.252 125.228 274.004 124.916 273.828C124.612 273.644 124.256 273.552 123.848 273.552C123.448 273.552 123.092 273.644 122.78 273.828C122.468 274.004 122.224 274.256 122.048 274.584C121.872 274.904 121.784 275.272 121.784 275.688V275.88C121.784 276.304 121.88 276.684 122.072 277.02C122.272 277.348 122.548 277.604 122.9 277.788C123.252 277.972 123.656 278.064 124.112 278.064C124.488 278.064 124.828 278 125.132 277.872C125.444 277.744 125.716 277.552 125.948 277.296L126.584 278.04C126.296 278.376 125.936 278.632 125.504 278.808C125.08 278.984 124.604 279.072 124.076 279.072ZM131.22 279.072C130.604 279.072 130.052 278.936 129.564 278.664C129.084 278.392 128.704 278.012 128.424 277.524C128.144 277.036 128.004 276.468 128.004 275.82C128.004 275.172 128.144 274.608 128.424 274.128C128.704 273.64 129.084 273.26 129.564 272.988C130.052 272.716 130.604 272.58 131.22 272.58C131.756 272.58 132.24 272.7 132.672 272.94C133.104 273.18 133.448 273.54 133.704 274.02C133.968 274.5 134.1 275.1 134.1 275.82C134.1 276.54 133.972 277.14 133.716 277.62C133.468 278.1 133.128 278.464 132.696 278.712C132.264 278.952 131.772 279.072 131.22 279.072ZM131.316 278.064C131.716 278.064 132.076 277.972 132.396 277.788C132.724 277.604 132.98 277.344 133.164 277.008C133.356 276.664 133.452 276.268 133.452 275.82C133.452 275.364 133.356 274.972 133.164 274.644C132.98 274.308 132.724 274.048 132.396 273.864C132.076 273.68 131.716 273.588 131.316 273.588C130.908 273.588 130.544 273.68 130.224 273.864C129.904 274.048 129.648 274.308 129.456 274.644C129.264 274.972 129.168 275.364 129.168 275.82C129.168 276.268 129.264 276.664 129.456 277.008C129.648 277.344 129.904 277.604 130.224 277.788C130.544 277.972 130.908 278.064 131.316 278.064ZM133.488 279V277.284L133.56 275.808L133.44 274.332V270.096H134.592V279H133.488ZM142.178 279.072C141.538 279.072 141.042 278.9 140.69 278.556C140.338 278.212 140.162 277.72 140.162 277.08V271.248H141.314V277.032C141.314 277.376 141.398 277.64 141.566 277.824C141.742 278.008 141.99 278.1 142.31 278.1C142.67 278.1 142.97 278 143.21 277.8L143.57 278.628C143.394 278.78 143.182 278.892 142.934 278.964C142.694 279.036 142.442 279.072 142.178 279.072ZM139.082 273.588V272.64H143.138V273.588H139.082ZM144.963 279V272.64H146.067V274.368L145.959 273.936C146.135 273.496 146.431 273.16 146.847 272.928C147.263 272.696 147.775 272.58 148.383 272.58V273.696C148.335 273.688 148.287 273.684 148.239 273.684C148.199 273.684 148.159 273.684 148.119 273.684C147.503 273.684 147.015 273.868 146.655 274.236C146.295 274.604 146.115 275.136 146.115 275.832V279H144.963ZM153.282 279V277.656L153.222 277.404V275.112C153.222 274.624 153.078 274.248 152.79 273.984C152.51 273.712 152.086 273.576 151.518 273.576C151.142 273.576 150.774 273.64 150.414 273.768C150.054 273.888 149.75 274.052 149.502 274.26L149.022 273.396C149.35 273.132 149.742 272.932 150.198 272.796C150.662 272.652 151.146 272.58 151.65 272.58C152.522 272.58 153.194 272.792 153.666 273.216C154.138 273.64 154.374 274.288 154.374 275.16V279H153.282ZM151.194 279.072C150.722 279.072 150.306 278.992 149.946 278.832C149.594 278.672 149.322 278.452 149.13 278.172C148.938 277.884 148.842 277.56 148.842 277.2C148.842 276.856 148.922 276.544 149.082 276.264C149.25 275.984 149.518 275.76 149.886 275.592C150.262 275.424 150.766 275.34 151.398 275.34H153.414V276.168H151.446C150.87 276.168 150.482 276.264 150.282 276.456C150.082 276.648 149.982 276.88 149.982 277.152C149.982 277.464 150.106 277.716 150.354 277.908C150.602 278.092 150.946 278.184 151.386 278.184C151.818 278.184 152.194 278.088 152.514 277.896C152.842 277.704 153.078 277.424 153.222 277.056L153.45 277.848C153.298 278.224 153.03 278.524 152.646 278.748C152.262 278.964 151.778 279.072 151.194 279.072ZM156.506 279V272.64H157.658V279H156.506ZM157.082 271.416C156.858 271.416 156.67 271.344 156.518 271.2C156.374 271.056 156.302 270.88 156.302 270.672C156.302 270.456 156.374 270.276 156.518 270.132C156.67 269.988 156.858 269.916 157.082 269.916C157.306 269.916 157.49 269.988 157.634 270.132C157.786 270.268 157.862 270.44 157.862 270.648C157.862 270.864 157.79 271.048 157.646 271.2C157.502 271.344 157.314 271.416 157.082 271.416ZM163.254 272.58C163.774 272.58 164.23 272.68 164.622 272.88C165.022 273.08 165.334 273.384 165.558 273.792C165.782 274.2 165.894 274.716 165.894 275.34V279H164.742V275.472C164.742 274.856 164.59 274.392 164.286 274.08C163.99 273.768 163.57 273.612 163.026 273.612C162.618 273.612 162.262 273.692 161.958 273.852C161.654 274.012 161.418 274.248 161.25 274.56C161.09 274.872 161.01 275.26 161.01 275.724V279H159.858V272.64H160.962V274.356L160.782 273.9C160.99 273.484 161.31 273.16 161.742 272.928C162.174 272.696 162.678 272.58 163.254 272.58ZM168.026 279V272.64H169.178V279H168.026ZM168.602 271.416C168.378 271.416 168.19 271.344 168.038 271.2C167.894 271.056 167.822 270.88 167.822 270.672C167.822 270.456 167.894 270.276 168.038 270.132C168.19 269.988 168.378 269.916 168.602 269.916C168.826 269.916 169.01 269.988 169.154 270.132C169.306 270.268 169.382 270.44 169.382 270.648C169.382 270.864 169.31 271.048 169.166 271.2C169.022 271.344 168.834 271.416 168.602 271.416ZM174.773 272.58C175.293 272.58 175.749 272.68 176.141 272.88C176.541 273.08 176.853 273.384 177.077 273.792C177.301 274.2 177.413 274.716 177.413 275.34V279H176.261V275.472C176.261 274.856 176.109 274.392 175.805 274.08C175.509 273.768 175.089 273.612 174.545 273.612C174.137 273.612 173.781 273.692 173.477 273.852C173.173 274.012 172.937 274.248 172.769 274.56C172.609 274.872 172.529 275.26 172.529 275.724V279H171.377V272.64H172.481V274.356L172.301 273.9C172.509 273.484 172.829 273.16 173.261 272.928C173.693 272.696 174.197 272.58 174.773 272.58ZM182.329 281.4C181.745 281.4 181.177 281.316 180.625 281.148C180.081 280.988 179.637 280.756 179.293 280.452L179.845 279.564C180.141 279.82 180.505 280.02 180.937 280.164C181.369 280.316 181.821 280.392 182.293 280.392C183.045 280.392 183.597 280.216 183.949 279.864C184.301 279.512 184.477 278.976 184.477 278.256V276.912L184.597 275.652L184.537 274.38V272.64H185.629V278.136C185.629 279.256 185.349 280.08 184.789 280.608C184.229 281.136 183.409 281.4 182.329 281.4ZM182.185 278.736C181.569 278.736 181.017 278.608 180.529 278.352C180.049 278.088 179.665 277.724 179.377 277.26C179.097 276.796 178.957 276.26 178.957 275.652C178.957 275.036 179.097 274.5 179.377 274.044C179.665 273.58 180.049 273.22 180.529 272.964C181.017 272.708 181.569 272.58 182.185 272.58C182.729 272.58 183.225 272.692 183.673 272.916C184.121 273.132 184.477 273.468 184.741 273.924C185.013 274.38 185.149 274.956 185.149 275.652C185.149 276.34 185.013 276.912 184.741 277.368C184.477 277.824 184.121 278.168 183.673 278.4C183.225 278.624 182.729 278.736 182.185 278.736ZM182.317 277.728C182.741 277.728 183.117 277.64 183.445 277.464C183.773 277.288 184.029 277.044 184.213 276.732C184.405 276.42 184.501 276.06 184.501 275.652C184.501 275.244 184.405 274.884 184.213 274.572C184.029 274.26 183.773 274.02 183.445 273.852C183.117 273.676 182.741 273.588 182.317 273.588C181.893 273.588 181.513 273.676 181.177 273.852C180.849 274.02 180.589 274.26 180.397 274.572C180.213 274.884 180.121 275.244 180.121 275.652C180.121 276.06 180.213 276.42 180.397 276.732C180.589 277.044 180.849 277.288 181.177 277.464C181.513 277.64 181.893 277.728 182.317 277.728Z" fill="black"/>
<path d="M76.352 304.224H80.672V305.244H76.352V304.224ZM76.46 307.956H81.356V309H75.26V300.6H81.188V301.644H76.46V307.956ZM82.0664 309L84.8024 305.448L84.7904 306.036L82.1864 302.64H83.4704L85.4624 305.256H84.9704L86.9624 302.64H88.2224L85.5824 306.06L85.5944 305.448L88.3544 309H87.0464L84.9464 306.216L85.4144 306.288L83.3504 309H82.0664ZM91.7955 309.072C91.1555 309.072 90.6595 308.9 90.3075 308.556C89.9555 308.212 89.7795 307.72 89.7795 307.08V301.248H90.9315V307.032C90.9315 307.376 91.0155 307.64 91.1835 307.824C91.3595 308.008 91.6075 308.1 91.9275 308.1C92.2875 308.1 92.5875 308 92.8275 307.8L93.1875 308.628C93.0115 308.78 92.7995 308.892 92.5515 308.964C92.3115 309.036 92.0595 309.072 91.7955 309.072ZM88.6995 303.588V302.64H92.7555V303.588H88.6995ZM97.2013 309.072C96.5213 309.072 95.9213 308.932 95.4013 308.652C94.8893 308.372 94.4893 307.988 94.2013 307.5C93.9213 307.012 93.7813 306.452 93.7813 305.82C93.7813 305.188 93.9173 304.628 94.1893 304.14C94.4693 303.652 94.8493 303.272 95.3293 303C95.8173 302.72 96.3653 302.58 96.9733 302.58C97.5893 302.58 98.1333 302.716 98.6053 302.988C99.0773 303.26 99.4453 303.644 99.7093 304.14C99.9813 304.628 100.117 305.2 100.117 305.856C100.117 305.904 100.113 305.96 100.105 306.024C100.105 306.088 100.101 306.148 100.093 306.204H94.6813V305.376H99.4933L99.0253 305.664C99.0333 305.256 98.9493 304.892 98.7733 304.572C98.5973 304.252 98.3533 304.004 98.0413 303.828C97.7373 303.644 97.3813 303.552 96.9733 303.552C96.5733 303.552 96.2173 303.644 95.9053 303.828C95.5933 304.004 95.3493 304.256 95.1733 304.584C94.9973 304.904 94.9093 305.272 94.9093 305.688V305.88C94.9093 306.304 95.0053 306.684 95.1973 307.02C95.3973 307.348 95.6733 307.604 96.0253 307.788C96.3773 307.972 96.7813 308.064 97.2373 308.064C97.6133 308.064 97.9533 308 98.2573 307.872C98.5693 307.744 98.8413 307.552 99.0733 307.296L99.7093 308.04C99.4213 308.376 99.0613 308.632 98.6293 308.808C98.2053 308.984 97.7293 309.072 97.2013 309.072ZM105.113 302.58C105.633 302.58 106.089 302.68 106.481 302.88C106.881 303.08 107.193 303.384 107.417 303.792C107.641 304.2 107.753 304.716 107.753 305.34V309H106.601V305.472C106.601 304.856 106.449 304.392 106.145 304.08C105.849 303.768 105.429 303.612 104.885 303.612C104.477 303.612 104.121 303.692 103.817 303.852C103.513 304.012 103.277 304.248 103.109 304.56C102.949 304.872 102.869 305.26 102.869 305.724V309H101.717V302.64H102.821V304.356L102.641 303.9C102.849 303.484 103.169 303.16 103.601 302.928C104.033 302.696 104.537 302.58 105.113 302.58ZM112.513 309.072C111.897 309.072 111.345 308.936 110.857 308.664C110.377 308.392 109.997 308.012 109.717 307.524C109.437 307.036 109.297 306.468 109.297 305.82C109.297 305.172 109.437 304.608 109.717 304.128C109.997 303.64 110.377 303.26 110.857 302.988C111.345 302.716 111.897 302.58 112.513 302.58C113.049 302.58 113.533 302.7 113.965 302.94C114.397 303.18 114.741 303.54 114.997 304.02C115.261 304.5 115.393 305.1 115.393 305.82C115.393 306.54 115.265 307.14 115.009 307.62C114.761 308.1 114.421 308.464 113.989 308.712C113.557 308.952 113.065 309.072 112.513 309.072ZM112.609 308.064C113.009 308.064 113.369 307.972 113.689 307.788C114.017 307.604 114.273 307.344 114.457 307.008C114.649 306.664 114.745 306.268 114.745 305.82C114.745 305.364 114.649 304.972 114.457 304.644C114.273 304.308 114.017 304.048 113.689 303.864C113.369 303.68 113.009 303.588 112.609 303.588C112.201 303.588 111.837 303.68 111.517 303.864C111.197 304.048 110.941 304.308 110.749 304.644C110.557 304.972 110.461 305.364 110.461 305.82C110.461 306.268 110.557 306.664 110.749 307.008C110.941 307.344 111.197 307.604 111.517 307.788C111.837 307.972 112.201 308.064 112.609 308.064ZM114.781 309V307.284L114.853 305.808L114.733 304.332V300.096H115.885V309H114.781ZM120.897 309.072C120.217 309.072 119.617 308.932 119.097 308.652C118.585 308.372 118.185 307.988 117.897 307.5C117.617 307.012 117.477 306.452 117.477 305.82C117.477 305.188 117.613 304.628 117.885 304.14C118.165 303.652 118.545 303.272 119.025 303C119.513 302.72 120.061 302.58 120.669 302.58C121.285 302.58 121.829 302.716 122.301 302.988C122.773 303.26 123.141 303.644 123.405 304.14C123.677 304.628 123.813 305.2 123.813 305.856C123.813 305.904 123.809 305.96 123.801 306.024C123.801 306.088 123.797 306.148 123.789 306.204H118.377V305.376H123.189L122.721 305.664C122.729 305.256 122.645 304.892 122.469 304.572C122.293 304.252 122.049 304.004 121.737 303.828C121.433 303.644 121.077 303.552 120.669 303.552C120.269 303.552 119.913 303.644 119.601 303.828C119.289 304.004 119.045 304.256 118.869 304.584C118.693 304.904 118.605 305.272 118.605 305.688V305.88C118.605 306.304 118.701 306.684 118.893 307.02C119.093 307.348 119.369 307.604 119.721 307.788C120.073 307.972 120.477 308.064 120.933 308.064C121.309 308.064 121.649 308 121.953 307.872C122.265 307.744 122.537 307.552 122.769 307.296L123.405 308.04C123.117 308.376 122.757 308.632 122.325 308.808C121.901 308.984 121.425 309.072 120.897 309.072ZM128.04 309.072C127.424 309.072 126.872 308.936 126.384 308.664C125.904 308.392 125.524 308.012 125.244 307.524C124.964 307.036 124.824 306.468 124.824 305.82C124.824 305.172 124.964 304.608 125.244 304.128C125.524 303.64 125.904 303.26 126.384 302.988C126.872 302.716 127.424 302.58 128.04 302.58C128.576 302.58 129.06 302.7 129.492 302.94C129.924 303.18 130.268 303.54 130.524 304.02C130.788 304.5 130.92 305.1 130.92 305.82C130.92 306.54 130.792 307.14 130.536 307.62C130.288 308.1 129.948 308.464 129.516 308.712C129.084 308.952 128.592 309.072 128.04 309.072ZM128.136 308.064C128.536 308.064 128.896 307.972 129.216 307.788C129.544 307.604 129.8 307.344 129.984 307.008C130.176 306.664 130.272 306.268 130.272 305.82C130.272 305.364 130.176 304.972 129.984 304.644C129.8 304.308 129.544 304.048 129.216 303.864C128.896 303.68 128.536 303.588 128.136 303.588C127.728 303.588 127.364 303.68 127.044 303.864C126.724 304.048 126.468 304.308 126.276 304.644C126.084 304.972 125.988 305.364 125.988 305.82C125.988 306.268 126.084 306.664 126.276 307.008C126.468 307.344 126.724 307.604 127.044 307.788C127.364 307.972 127.728 308.064 128.136 308.064ZM130.308 309V307.284L130.38 305.808L130.26 304.332V300.096H131.412V309H130.308ZM138.639 309.072C138.111 309.072 137.607 309 137.127 308.856C136.655 308.712 136.283 308.536 136.011 308.328L136.491 307.416C136.763 307.6 137.099 307.756 137.499 307.884C137.899 308.012 138.307 308.076 138.723 308.076C139.259 308.076 139.643 308 139.875 307.848C140.115 307.696 140.235 307.484 140.235 307.212C140.235 307.012 140.163 306.856 140.019 306.744C139.875 306.632 139.683 306.548 139.443 306.492C139.211 306.436 138.951 306.388 138.663 306.348C138.375 306.3 138.087 306.244 137.799 306.18C137.511 306.108 137.247 306.012 137.007 305.892C136.767 305.764 136.575 305.592 136.431 305.376C136.287 305.152 136.215 304.856 136.215 304.488C136.215 304.104 136.323 303.768 136.539 303.48C136.755 303.192 137.059 302.972 137.451 302.82C137.851 302.66 138.323 302.58 138.867 302.58C139.283 302.58 139.703 302.632 140.127 302.736C140.559 302.832 140.911 302.972 141.183 303.156L140.691 304.068C140.403 303.876 140.103 303.744 139.791 303.672C139.479 303.6 139.167 303.564 138.855 303.564C138.351 303.564 137.975 303.648 137.727 303.816C137.479 303.976 137.355 304.184 137.355 304.44C137.355 304.656 137.427 304.824 137.571 304.944C137.723 305.056 137.915 305.144 138.147 305.208C138.387 305.272 138.651 305.328 138.939 305.376C139.227 305.416 139.515 305.472 139.803 305.544C140.091 305.608 140.351 305.7 140.583 305.82C140.823 305.94 141.015 306.108 141.159 306.324C141.311 306.54 141.387 306.828 141.387 307.188C141.387 307.572 141.275 307.904 141.051 308.184C140.827 308.464 140.511 308.684 140.103 308.844C139.695 308.996 139.207 309.072 138.639 309.072ZM145.01 309.072C144.37 309.072 143.874 308.9 143.522 308.556C143.17 308.212 142.994 307.72 142.994 307.08V301.248H144.146V307.032C144.146 307.376 144.23 307.64 144.398 307.824C144.574 308.008 144.822 308.1 145.142 308.1C145.502 308.1 145.802 308 146.042 307.8L146.402 308.628C146.226 308.78 146.014 308.892 145.766 308.964C145.526 309.036 145.274 309.072 145.01 309.072ZM141.914 303.588V302.64H145.97V303.588H141.914ZM151.743 309V307.656L151.683 307.404V305.112C151.683 304.624 151.539 304.248 151.251 303.984C150.971 303.712 150.547 303.576 149.979 303.576C149.603 303.576 149.235 303.64 148.875 303.768C148.515 303.888 148.211 304.052 147.963 304.26L147.483 303.396C147.811 303.132 148.203 302.932 148.659 302.796C149.123 302.652 149.607 302.58 150.111 302.58C150.983 302.58 151.655 302.792 152.127 303.216C152.599 303.64 152.835 304.288 152.835 305.16V309H151.743ZM149.655 309.072C149.183 309.072 148.767 308.992 148.407 308.832C148.055 308.672 147.783 308.452 147.591 308.172C147.399 307.884 147.303 307.56 147.303 307.2C147.303 306.856 147.383 306.544 147.543 306.264C147.711 305.984 147.979 305.76 148.347 305.592C148.723 305.424 149.227 305.34 149.859 305.34H151.875V306.168H149.907C149.331 306.168 148.943 306.264 148.743 306.456C148.543 306.648 148.443 306.88 148.443 307.152C148.443 307.464 148.567 307.716 148.815 307.908C149.063 308.092 149.407 308.184 149.847 308.184C150.279 308.184 150.655 308.088 150.975 307.896C151.303 307.704 151.539 307.424 151.683 307.056L151.911 307.848C151.759 308.224 151.491 308.524 151.107 308.748C150.723 308.964 150.239 309.072 149.655 309.072ZM157.151 309.072C156.511 309.072 156.015 308.9 155.663 308.556C155.311 308.212 155.135 307.72 155.135 307.08V301.248H156.287V307.032C156.287 307.376 156.371 307.64 156.539 307.824C156.715 308.008 156.963 308.1 157.283 308.1C157.643 308.1 157.943 308 158.183 307.8L158.543 308.628C158.367 308.78 158.155 308.892 157.907 308.964C157.667 309.036 157.415 309.072 157.151 309.072ZM154.055 303.588V302.64H158.111V303.588H154.055ZM159.936 309V302.64H161.088V309H159.936ZM160.512 301.416C160.288 301.416 160.1 301.344 159.948 301.2C159.804 301.056 159.732 300.88 159.732 300.672C159.732 300.456 159.804 300.276 159.948 300.132C160.1 299.988 160.288 299.916 160.512 299.916C160.736 299.916 160.92 299.988 161.064 300.132C161.216 300.268 161.292 300.44 161.292 300.648C161.292 300.864 161.22 301.048 161.076 301.2C160.932 301.344 160.744 301.416 160.512 301.416ZM165.111 309.072C164.583 309.072 164.079 309 163.599 308.856C163.127 308.712 162.755 308.536 162.483 308.328L162.963 307.416C163.235 307.6 163.571 307.756 163.971 307.884C164.371 308.012 164.779 308.076 165.195 308.076C165.731 308.076 166.115 308 166.347 307.848C166.587 307.696 166.707 307.484 166.707 307.212C166.707 307.012 166.635 306.856 166.491 306.744C166.347 306.632 166.155 306.548 165.915 306.492C165.683 306.436 165.423 306.388 165.135 306.348C164.847 306.3 164.559 306.244 164.271 306.18C163.983 306.108 163.719 306.012 163.479 305.892C163.239 305.764 163.047 305.592 162.903 305.376C162.759 305.152 162.687 304.856 162.687 304.488C162.687 304.104 162.795 303.768 163.011 303.48C163.227 303.192 163.531 302.972 163.923 302.82C164.323 302.66 164.795 302.58 165.339 302.58C165.755 302.58 166.175 302.632 166.599 302.736C167.031 302.832 167.383 302.972 167.655 303.156L167.163 304.068C166.875 303.876 166.575 303.744 166.263 303.672C165.951 303.6 165.639 303.564 165.327 303.564C164.823 303.564 164.447 303.648 164.199 303.816C163.951 303.976 163.827 304.184 163.827 304.44C163.827 304.656 163.899 304.824 164.043 304.944C164.195 305.056 164.387 305.144 164.619 305.208C164.859 305.272 165.123 305.328 165.411 305.376C165.699 305.416 165.987 305.472 166.275 305.544C166.563 305.608 166.823 305.7 167.055 305.82C167.295 305.94 167.487 306.108 167.631 306.324C167.783 306.54 167.859 306.828 167.859 307.188C167.859 307.572 167.747 307.904 167.523 308.184C167.299 308.464 166.983 308.684 166.575 308.844C166.167 308.996 165.679 309.072 165.111 309.072ZM171.483 309.072C170.843 309.072 170.347 308.9 169.995 308.556C169.643 308.212 169.467 307.72 169.467 307.08V301.248H170.619V307.032C170.619 307.376 170.703 307.64 170.871 307.824C171.047 308.008 171.295 308.1 171.615 308.1C171.975 308.1 172.275 308 172.515 307.8L172.875 308.628C172.699 308.78 172.487 308.892 172.239 308.964C171.999 309.036 171.747 309.072 171.483 309.072ZM168.387 303.588V302.64H172.443V303.588H168.387ZM174.268 309V302.64H175.42V309H174.268ZM174.844 301.416C174.62 301.416 174.432 301.344 174.28 301.2C174.136 301.056 174.064 300.88 174.064 300.672C174.064 300.456 174.136 300.276 174.28 300.132C174.432 299.988 174.62 299.916 174.844 299.916C175.068 299.916 175.252 299.988 175.396 300.132C175.548 300.268 175.624 300.44 175.624 300.648C175.624 300.864 175.552 301.048 175.408 301.2C175.264 301.344 175.076 301.416 174.844 301.416ZM180.391 309.072C179.743 309.072 179.163 308.932 178.651 308.652C178.147 308.372 177.751 307.988 177.463 307.5C177.175 307.012 177.031 306.452 177.031 305.82C177.031 305.188 177.175 304.628 177.463 304.14C177.751 303.652 178.147 303.272 178.651 303C179.163 302.72 179.743 302.58 180.391 302.58C180.967 302.58 181.479 302.696 181.927 302.928C182.383 303.152 182.735 303.488 182.983 303.936L182.107 304.5C181.899 304.188 181.643 303.96 181.339 303.816C181.043 303.664 180.723 303.588 180.379 303.588C179.963 303.588 179.591 303.68 179.263 303.864C178.935 304.048 178.675 304.308 178.483 304.644C178.291 304.972 178.195 305.364 178.195 305.82C178.195 306.276 178.291 306.672 178.483 307.008C178.675 307.344 178.935 307.604 179.263 307.788C179.591 307.972 179.963 308.064 180.379 308.064C180.723 308.064 181.043 307.992 181.339 307.848C181.643 307.696 181.899 307.464 182.107 307.152L182.983 307.704C182.735 308.144 182.383 308.484 181.927 308.724C181.479 308.956 180.967 309.072 180.391 309.072ZM186.299 309.072C185.771 309.072 185.267 309 184.787 308.856C184.315 308.712 183.943 308.536 183.671 308.328L184.151 307.416C184.423 307.6 184.759 307.756 185.159 307.884C185.559 308.012 185.967 308.076 186.383 308.076C186.919 308.076 187.303 308 187.535 307.848C187.775 307.696 187.895 307.484 187.895 307.212C187.895 307.012 187.823 306.856 187.679 306.744C187.535 306.632 187.343 306.548 187.103 306.492C186.871 306.436 186.611 306.388 186.323 306.348C186.035 306.3 185.747 306.244 185.459 306.18C185.171 306.108 184.907 306.012 184.667 305.892C184.427 305.764 184.235 305.592 184.091 305.376C183.947 305.152 183.875 304.856 183.875 304.488C183.875 304.104 183.983 303.768 184.199 303.48C184.415 303.192 184.719 302.972 185.111 302.82C185.511 302.66 185.983 302.58 186.527 302.58C186.943 302.58 187.363 302.632 187.787 302.736C188.219 302.832 188.571 302.972 188.843 303.156L188.351 304.068C188.063 303.876 187.763 303.744 187.451 303.672C187.139 303.6 186.827 303.564 186.515 303.564C186.011 303.564 185.635 303.648 185.387 303.816C185.139 303.976 185.015 304.184 185.015 304.44C185.015 304.656 185.087 304.824 185.231 304.944C185.383 305.056 185.575 305.144 185.807 305.208C186.047 305.272 186.311 305.328 186.599 305.376C186.887 305.416 187.175 305.472 187.463 305.544C187.751 305.608 188.011 305.7 188.243 305.82C188.483 305.94 188.675 306.108 188.819 306.324C188.971 306.54 189.047 306.828 189.047 307.188C189.047 307.572 188.935 307.904 188.711 308.184C188.487 308.464 188.171 308.684 187.763 308.844C187.355 308.996 186.867 309.072 186.299 309.072Z" fill="black"/>
<path d="M47.508 338.528C47.508 338.42 47.496 338.372 47.448 338.372L47.172 338.504C47.172 338.444 47.136 338.408 47.076 338.384L46.98 338.372C46.896 338.372 46.86 338.384 46.74 338.456C46.704 338.384 46.656 338.3 46.62 338.228C46.308 337.628 45.984 336.728 45.84 336.332C45.768 336.128 45.696 335.708 45.612 335.072C45.708 335.132 45.78 335.156 45.816 335.156C45.864 335.156 45.924 335.072 45.972 334.904C45.996 334.94 46.044 334.952 46.104 334.952C46.14 334.952 46.188 334.94 46.212 334.904L46.404 334.616L46.62 334.688H46.632C46.656 334.688 46.692 334.652 46.752 334.616C46.812 334.58 46.86 334.556 46.896 334.556L46.932 334.568C47.124 334.664 47.256 334.832 47.316 335.096C47.46 335.708 47.592 336.008 47.748 336.008C47.88 336.008 48.06 335.852 48.252 335.552C48.444 335.252 48.636 334.844 48.852 334.352C48.864 334.448 48.876 334.496 48.9 334.496C48.972 334.496 49.152 334.076 49.596 333.368C50.256 332.3 51.888 330.248 52.308 329.96C52.62 329.744 52.86 329.54 53.028 329.36C53.004 329.48 52.98 329.564 52.98 329.6C52.98 329.636 53.004 329.648 53.028 329.648L53.364 329.48V329.528C53.364 329.588 53.376 329.624 53.412 329.624C53.46 329.624 53.652 329.432 53.676 329.36L53.652 329.528L54.06 329.288L53.964 329.504C54.084 329.42 54.18 329.372 54.24 329.372C54.3 329.372 54.336 329.468 54.336 329.528C54.336 329.624 54.252 329.756 54.12 329.924C53.976 330.116 53.616 330.488 52.536 331.724C52.068 332.252 49.992 335.072 49.596 335.744L48.852 337.004C48.528 337.544 48.324 337.892 48.216 338.024C48.108 338.156 47.976 338.288 47.82 338.408L47.712 338.348L47.616 338.408L47.508 338.528Z" fill="black"/>
<path d="M73.988 339L77.792 330.6H78.98L82.796 339H81.536L78.14 331.272H78.62L75.224 339H73.988ZM75.608 336.9L75.932 335.94H80.66L81.008 336.9H75.608ZM86.5945 339.072C85.9465 339.072 85.3665 338.932 84.8545 338.652C84.3505 338.372 83.9545 337.988 83.6665 337.5C83.3785 337.012 83.2345 336.452 83.2345 335.82C83.2345 335.188 83.3785 334.628 83.6665 334.14C83.9545 333.652 84.3505 333.272 84.8545 333C85.3665 332.72 85.9465 332.58 86.5945 332.58C87.1705 332.58 87.6825 332.696 88.1305 332.928C88.5865 333.152 88.9385 333.488 89.1865 333.936L88.3105 334.5C88.1025 334.188 87.8465 333.96 87.5425 333.816C87.2465 333.664 86.9265 333.588 86.5825 333.588C86.1665 333.588 85.7945 333.68 85.4665 333.864C85.1385 334.048 84.8785 334.308 84.6865 334.644C84.4945 334.972 84.3985 335.364 84.3985 335.82C84.3985 336.276 84.4945 336.672 84.6865 337.008C84.8785 337.344 85.1385 337.604 85.4665 337.788C85.7945 337.972 86.1665 338.064 86.5825 338.064C86.9265 338.064 87.2465 337.992 87.5425 337.848C87.8465 337.696 88.1025 337.464 88.3105 337.152L89.1865 337.704C88.9385 338.144 88.5865 338.484 88.1305 338.724C87.6825 338.956 87.1705 339.072 86.5945 339.072ZM93.3562 339.072C92.7082 339.072 92.1282 338.932 91.6162 338.652C91.1122 338.372 90.7162 337.988 90.4282 337.5C90.1402 337.012 89.9962 336.452 89.9962 335.82C89.9962 335.188 90.1402 334.628 90.4282 334.14C90.7162 333.652 91.1122 333.272 91.6162 333C92.1282 332.72 92.7082 332.58 93.3562 332.58C93.9322 332.58 94.4442 332.696 94.8922 332.928C95.3482 333.152 95.7002 333.488 95.9482 333.936L95.0722 334.5C94.8642 334.188 94.6082 333.96 94.3042 333.816C94.0082 333.664 93.6882 333.588 93.3442 333.588C92.9282 333.588 92.5562 333.68 92.2282 333.864C91.9002 334.048 91.6402 334.308 91.4482 334.644C91.2562 334.972 91.1602 335.364 91.1602 335.82C91.1602 336.276 91.2562 336.672 91.4482 337.008C91.6402 337.344 91.9002 337.604 92.2282 337.788C92.5562 337.972 92.9282 338.064 93.3442 338.064C93.6882 338.064 94.0082 337.992 94.3042 337.848C94.6082 337.696 94.8642 337.464 95.0722 337.152L95.9482 337.704C95.7002 338.144 95.3482 338.484 94.8922 338.724C94.4442 338.956 93.9322 339.072 93.3562 339.072ZM100.178 339.072C99.4979 339.072 98.8979 338.932 98.3779 338.652C97.8659 338.372 97.4659 337.988 97.1779 337.5C96.8979 337.012 96.7579 336.452 96.7579 335.82C96.7579 335.188 96.8939 334.628 97.1659 334.14C97.4459 333.652 97.8259 333.272 98.3059 333C98.7939 332.72 99.3419 332.58 99.9499 332.58C100.566 332.58 101.11 332.716 101.582 332.988C102.054 333.26 102.422 333.644 102.686 334.14C102.958 334.628 103.094 335.2 103.094 335.856C103.094 335.904 103.09 335.96 103.082 336.024C103.082 336.088 103.078 336.148 103.07 336.204H97.6579V335.376H102.47L102.002 335.664C102.01 335.256 101.926 334.892 101.75 334.572C101.574 334.252 101.33 334.004 101.018 333.828C100.714 333.644 100.358 333.552 99.9499 333.552C99.5499 333.552 99.1939 333.644 98.8819 333.828C98.5699 334.004 98.3259 334.256 98.1499 334.584C97.9739 334.904 97.8859 335.272 97.8859 335.688V335.88C97.8859 336.304 97.9819 336.684 98.1739 337.02C98.3739 337.348 98.6499 337.604 99.0019 337.788C99.3539 337.972 99.7579 338.064 100.214 338.064C100.59 338.064 100.93 338 101.234 337.872C101.546 337.744 101.818 337.552 102.05 337.296L102.686 338.04C102.398 338.376 102.038 338.632 101.606 338.808C101.182 338.984 100.706 339.072 100.178 339.072ZM106.518 339.072C105.99 339.072 105.486 339 105.006 338.856C104.534 338.712 104.162 338.536 103.89 338.328L104.37 337.416C104.642 337.6 104.978 337.756 105.378 337.884C105.778 338.012 106.186 338.076 106.602 338.076C107.138 338.076 107.522 338 107.754 337.848C107.994 337.696 108.114 337.484 108.114 337.212C108.114 337.012 108.042 336.856 107.898 336.744C107.754 336.632 107.562 336.548 107.322 336.492C107.09 336.436 106.83 336.388 106.542 336.348C106.254 336.3 105.966 336.244 105.678 336.18C105.39 336.108 105.126 336.012 104.886 335.892C104.646 335.764 104.454 335.592 104.31 335.376C104.166 335.152 104.094 334.856 104.094 334.488C104.094 334.104 104.202 333.768 104.418 333.48C104.634 333.192 104.938 332.972 105.33 332.82C105.73 332.66 106.202 332.58 106.746 332.58C107.162 332.58 107.582 332.632 108.006 332.736C108.438 332.832 108.79 332.972 109.062 333.156L108.57 334.068C108.282 333.876 107.982 333.744 107.67 333.672C107.358 333.6 107.046 333.564 106.734 333.564C106.23 333.564 105.854 333.648 105.606 333.816C105.358 333.976 105.234 334.184 105.234 334.44C105.234 334.656 105.306 334.824 105.45 334.944C105.602 335.056 105.794 335.144 106.026 335.208C106.266 335.272 106.53 335.328 106.818 335.376C107.106 335.416 107.394 335.472 107.682 335.544C107.97 335.608 108.23 335.7 108.462 335.82C108.702 335.94 108.894 336.108 109.038 336.324C109.19 336.54 109.266 336.828 109.266 337.188C109.266 337.572 109.154 337.904 108.93 338.184C108.706 338.464 108.39 338.684 107.982 338.844C107.574 338.996 107.086 339.072 106.518 339.072ZM112.529 339.072C112.001 339.072 111.497 339 111.017 338.856C110.545 338.712 110.173 338.536 109.901 338.328L110.381 337.416C110.653 337.6 110.989 337.756 111.389 337.884C111.789 338.012 112.197 338.076 112.613 338.076C113.149 338.076 113.533 338 113.765 337.848C114.005 337.696 114.125 337.484 114.125 337.212C114.125 337.012 114.053 336.856 113.909 336.744C113.765 336.632 113.573 336.548 113.333 336.492C113.101 336.436 112.841 336.388 112.553 336.348C112.265 336.3 111.977 336.244 111.689 336.18C111.401 336.108 111.137 336.012 110.897 335.892C110.657 335.764 110.465 335.592 110.321 335.376C110.177 335.152 110.105 334.856 110.105 334.488C110.105 334.104 110.213 333.768 110.429 333.48C110.645 333.192 110.949 332.972 111.341 332.82C111.741 332.66 112.213 332.58 112.757 332.58C113.173 332.58 113.593 332.632 114.017 332.736C114.449 332.832 114.801 332.972 115.073 333.156L114.581 334.068C114.293 333.876 113.993 333.744 113.681 333.672C113.369 333.6 113.057 333.564 112.745 333.564C112.241 333.564 111.865 333.648 111.617 333.816C111.369 333.976 111.245 334.184 111.245 334.44C111.245 334.656 111.317 334.824 111.461 334.944C111.613 335.056 111.805 335.144 112.037 335.208C112.277 335.272 112.541 335.328 112.829 335.376C113.117 335.416 113.405 335.472 113.693 335.544C113.981 335.608 114.241 335.7 114.473 335.82C114.713 335.94 114.905 336.108 115.049 336.324C115.201 336.54 115.277 336.828 115.277 337.188C115.277 337.572 115.165 337.904 114.941 338.184C114.717 338.464 114.401 338.684 113.993 338.844C113.585 338.996 113.097 339.072 112.529 339.072ZM122.124 339.072C121.484 339.072 120.988 338.9 120.636 338.556C120.284 338.212 120.108 337.72 120.108 337.08V331.248H121.26V337.032C121.26 337.376 121.344 337.64 121.512 337.824C121.688 338.008 121.936 338.1 122.256 338.1C122.616 338.1 122.916 338 123.156 337.8L123.516 338.628C123.34 338.78 123.128 338.892 122.88 338.964C122.64 339.036 122.388 339.072 122.124 339.072ZM119.028 333.588V332.64H123.084V333.588H119.028ZM127.421 339.072C126.781 339.072 126.213 338.932 125.717 338.652C125.221 338.372 124.829 337.988 124.541 337.5C124.253 337.004 124.109 336.444 124.109 335.82C124.109 335.188 124.253 334.628 124.541 334.14C124.829 333.652 125.221 333.272 125.717 333C126.213 332.72 126.781 332.58 127.421 332.58C128.053 332.58 128.617 332.72 129.113 333C129.617 333.272 130.009 333.652 130.289 334.14C130.577 334.62 130.721 335.18 130.721 335.82C130.721 336.452 130.577 337.012 130.289 337.5C130.009 337.988 129.617 338.372 129.113 338.652C128.617 338.932 128.053 339.072 127.421 339.072ZM127.421 338.064C127.829 338.064 128.193 337.972 128.513 337.788C128.841 337.604 129.097 337.344 129.281 337.008C129.465 336.664 129.557 336.268 129.557 335.82C129.557 335.364 129.465 334.972 129.281 334.644C129.097 334.308 128.841 334.048 128.513 333.864C128.193 333.68 127.829 333.588 127.421 333.588C127.013 333.588 126.649 333.68 126.329 333.864C126.009 334.048 125.753 334.308 125.561 334.644C125.369 334.972 125.273 335.364 125.273 335.82C125.273 336.268 125.369 336.664 125.561 337.008C125.753 337.344 126.009 337.604 126.329 337.788C126.649 337.972 127.013 338.064 127.421 338.064ZM139.485 339V337.656L139.425 337.404V335.112C139.425 334.624 139.281 334.248 138.993 333.984C138.713 333.712 138.289 333.576 137.721 333.576C137.345 333.576 136.977 333.64 136.617 333.768C136.257 333.888 135.953 334.052 135.705 334.26L135.225 333.396C135.553 333.132 135.945 332.932 136.401 332.796C136.865 332.652 137.349 332.58 137.853 332.58C138.725 332.58 139.397 332.792 139.869 333.216C140.341 333.64 140.577 334.288 140.577 335.16V339H139.485ZM137.397 339.072C136.925 339.072 136.509 338.992 136.149 338.832C135.797 338.672 135.525 338.452 135.333 338.172C135.141 337.884 135.045 337.56 135.045 337.2C135.045 336.856 135.125 336.544 135.285 336.264C135.453 335.984 135.721 335.76 136.089 335.592C136.465 335.424 136.969 335.34 137.601 335.34H139.617V336.168H137.649C137.073 336.168 136.685 336.264 136.485 336.456C136.285 336.648 136.185 336.88 136.185 337.152C136.185 337.464 136.309 337.716 136.557 337.908C136.805 338.092 137.149 338.184 137.589 338.184C138.021 338.184 138.397 338.088 138.717 337.896C139.045 337.704 139.281 337.424 139.425 337.056L139.653 337.848C139.501 338.224 139.233 338.524 138.849 338.748C138.465 338.964 137.981 339.072 137.397 339.072ZM142.709 339V330.096H143.861V339H142.709ZM146.061 339V330.096H147.213V339H146.061ZM153.979 339L151.615 332.64H152.707L154.807 338.4H154.291L156.475 332.64H157.447L159.583 338.4H159.079L161.227 332.64H162.259L159.883 339H158.779L156.775 333.744H157.111L155.083 339H153.979ZM165.976 339.072C165.336 339.072 164.768 338.932 164.272 338.652C163.776 338.372 163.384 337.988 163.096 337.5C162.808 337.004 162.664 336.444 162.664 335.82C162.664 335.188 162.808 334.628 163.096 334.14C163.384 333.652 163.776 333.272 164.272 333C164.768 332.72 165.336 332.58 165.976 332.58C166.608 332.58 167.172 332.72 167.668 333C168.172 333.272 168.564 333.652 168.844 334.14C169.132 334.62 169.276 335.18 169.276 335.82C169.276 336.452 169.132 337.012 168.844 337.5C168.564 337.988 168.172 338.372 167.668 338.652C167.172 338.932 166.608 339.072 165.976 339.072ZM165.976 338.064C166.384 338.064 166.748 337.972 167.068 337.788C167.396 337.604 167.652 337.344 167.836 337.008C168.02 336.664 168.112 336.268 168.112 335.82C168.112 335.364 168.02 334.972 167.836 334.644C167.652 334.308 167.396 334.048 167.068 333.864C166.748 333.68 166.384 333.588 165.976 333.588C165.568 333.588 165.204 333.68 164.884 333.864C164.564 334.048 164.308 334.308 164.116 334.644C163.924 334.972 163.828 335.364 163.828 335.82C163.828 336.268 163.924 336.664 164.116 337.008C164.308 337.344 164.564 337.604 164.884 337.788C165.204 337.972 165.568 338.064 165.976 338.064ZM170.869 339V332.64H171.973V334.368L171.865 333.936C172.041 333.496 172.337 333.16 172.753 332.928C173.169 332.696 173.681 332.58 174.289 332.58V333.696C174.241 333.688 174.193 333.684 174.145 333.684C174.105 333.684 174.065 333.684 174.025 333.684C173.409 333.684 172.921 333.868 172.561 334.236C172.201 334.604 172.021 335.136 172.021 335.832V339H170.869ZM176.645 337.464L176.669 335.988L180.329 332.64H181.721L178.913 335.4L178.289 335.928L176.645 337.464ZM175.709 339V330.096H176.861V339H175.709ZM180.569 339L178.073 335.904L178.817 334.98L181.985 339H180.569ZM185.558 339.072C184.918 339.072 184.35 338.932 183.854 338.652C183.358 338.372 182.966 337.988 182.678 337.5C182.39 337.004 182.246 336.444 182.246 335.82C182.246 335.188 182.39 334.628 182.678 334.14C182.966 333.652 183.358 333.272 183.854 333C184.35 332.72 184.918 332.58 185.558 332.58C186.19 332.58 186.754 332.72 187.25 333C187.754 333.272 188.146 333.652 188.426 334.14C188.714 334.62 188.858 335.18 188.858 335.82C188.858 336.452 188.714 337.012 188.426 337.5C188.146 337.988 187.754 338.372 187.25 338.652C186.754 338.932 186.19 339.072 185.558 339.072ZM185.558 338.064C185.966 338.064 186.33 337.972 186.65 337.788C186.978 337.604 187.234 337.344 187.418 337.008C187.602 336.664 187.694 336.268 187.694 335.82C187.694 335.364 187.602 334.972 187.418 334.644C187.234 334.308 186.978 334.048 186.65 333.864C186.33 333.68 185.966 333.588 185.558 333.588C185.15 333.588 184.786 333.68 184.466 333.864C184.146 334.048 183.89 334.308 183.698 334.644C183.506 334.972 183.41 335.364 183.41 335.82C183.41 336.268 183.506 336.664 183.698 337.008C183.89 337.344 184.146 337.604 184.466 337.788C184.786 337.972 185.15 338.064 185.558 338.064ZM193.127 339.072C192.583 339.072 192.103 338.972 191.687 338.772C191.279 338.572 190.959 338.268 190.727 337.86C190.503 337.444 190.391 336.924 190.391 336.3V332.64H191.543V336.168C191.543 336.792 191.691 337.26 191.987 337.572C192.291 337.884 192.715 338.04 193.259 338.04C193.659 338.04 194.007 337.96 194.303 337.8C194.599 337.632 194.827 337.392 194.987 337.08C195.147 336.76 195.227 336.376 195.227 335.928V332.64H196.379V339H195.287V337.284L195.467 337.74C195.259 338.164 194.947 338.492 194.531 338.724C194.115 338.956 193.647 339.072 193.127 339.072ZM200.756 339.072C200.116 339.072 199.62 338.9 199.268 338.556C198.916 338.212 198.74 337.72 198.74 337.08V331.248H199.892V337.032C199.892 337.376 199.976 337.64 200.144 337.824C200.32 338.008 200.568 338.1 200.888 338.1C201.248 338.1 201.548 338 201.788 337.8L202.148 338.628C201.972 338.78 201.76 338.892 201.512 338.964C201.272 339.036 201.02 339.072 200.756 339.072ZM197.66 333.588V332.64H201.716V333.588H197.66ZM205.365 339.072C204.837 339.072 204.333 339 203.853 338.856C203.381 338.712 203.009 338.536 202.737 338.328L203.217 337.416C203.489 337.6 203.825 337.756 204.225 337.884C204.625 338.012 205.033 338.076 205.449 338.076C205.985 338.076 206.369 338 206.601 337.848C206.841 337.696 206.961 337.484 206.961 337.212C206.961 337.012 206.889 336.856 206.745 336.744C206.601 336.632 206.409 336.548 206.169 336.492C205.937 336.436 205.677 336.388 205.389 336.348C205.101 336.3 204.813 336.244 204.525 336.18C204.237 336.108 203.973 336.012 203.733 335.892C203.493 335.764 203.301 335.592 203.157 335.376C203.013 335.152 202.941 334.856 202.941 334.488C202.941 334.104 203.049 333.768 203.265 333.48C203.481 333.192 203.785 332.972 204.177 332.82C204.577 332.66 205.049 332.58 205.593 332.58C206.009 332.58 206.429 332.632 206.853 332.736C207.285 332.832 207.637 332.972 207.909 333.156L207.417 334.068C207.129 333.876 206.829 333.744 206.517 333.672C206.205 333.6 205.893 333.564 205.581 333.564C205.077 333.564 204.701 333.648 204.453 333.816C204.205 333.976 204.081 334.184 204.081 334.44C204.081 334.656 204.153 334.824 204.297 334.944C204.449 335.056 204.641 335.144 204.873 335.208C205.113 335.272 205.377 335.328 205.665 335.376C205.953 335.416 206.241 335.472 206.529 335.544C206.817 335.608 207.077 335.7 207.309 335.82C207.549 335.94 207.741 336.108 207.885 336.324C208.037 336.54 208.113 336.828 208.113 337.188C208.113 337.572 208.001 337.904 207.777 338.184C207.553 338.464 207.237 338.684 206.829 338.844C206.421 338.996 205.933 339.072 205.365 339.072ZM79.04 354V352.656L78.98 352.404V350.112C78.98 349.624 78.836 349.248 78.548 348.984C78.268 348.712 77.844 348.576 77.276 348.576C76.9 348.576 76.532 348.64 76.172 348.768C75.812 348.888 75.508 349.052 75.26 349.26L74.78 348.396C75.108 348.132 75.5 347.932 75.956 347.796C76.42 347.652 76.904 347.58 77.408 347.58C78.28 347.58 78.952 347.792 79.424 348.216C79.896 348.64 80.132 349.288 80.132 350.16V354H79.04ZM76.952 354.072C76.48 354.072 76.064 353.992 75.704 353.832C75.352 353.672 75.08 353.452 74.888 353.172C74.696 352.884 74.6 352.56 74.6 352.2C74.6 351.856 74.68 351.544 74.84 351.264C75.008 350.984 75.276 350.76 75.644 350.592C76.02 350.424 76.524 350.34 77.156 350.34H79.172V351.168H77.204C76.628 351.168 76.24 351.264 76.04 351.456C75.84 351.648 75.74 351.88 75.74 352.152C75.74 352.464 75.864 352.716 76.112 352.908C76.36 353.092 76.704 353.184 77.144 353.184C77.576 353.184 77.952 353.088 78.272 352.896C78.6 352.704 78.836 352.424 78.98 352.056L79.208 352.848C79.056 353.224 78.788 353.524 78.404 353.748C78.02 353.964 77.536 354.072 76.952 354.072ZM85.6599 347.58C86.1799 347.58 86.6359 347.68 87.0279 347.88C87.4279 348.08 87.7399 348.384 87.9639 348.792C88.1879 349.2 88.2999 349.716 88.2999 350.34V354H87.1479V350.472C87.1479 349.856 86.9959 349.392 86.6919 349.08C86.3959 348.768 85.9759 348.612 85.4319 348.612C85.0239 348.612 84.6679 348.692 84.3639 348.852C84.0599 349.012 83.8239 349.248 83.6559 349.56C83.4959 349.872 83.4159 350.26 83.4159 350.724V354H82.2639V347.64H83.3679V349.356L83.1879 348.9C83.3959 348.484 83.7159 348.16 84.1479 347.928C84.5799 347.696 85.0839 347.58 85.6599 347.58ZM93.0598 354.072C92.4438 354.072 91.8918 353.936 91.4038 353.664C90.9238 353.392 90.5438 353.012 90.2638 352.524C89.9838 352.036 89.8438 351.468 89.8438 350.82C89.8438 350.172 89.9838 349.608 90.2638 349.128C90.5438 348.64 90.9238 348.26 91.4038 347.988C91.8918 347.716 92.4438 347.58 93.0598 347.58C93.5958 347.58 94.0798 347.7 94.5118 347.94C94.9438 348.18 95.2878 348.54 95.5438 349.02C95.8078 349.5 95.9398 350.1 95.9398 350.82C95.9398 351.54 95.8118 352.14 95.5558 352.62C95.3078 353.1 94.9678 353.464 94.5358 353.712C94.1038 353.952 93.6118 354.072 93.0598 354.072ZM93.1558 353.064C93.5558 353.064 93.9158 352.972 94.2358 352.788C94.5638 352.604 94.8198 352.344 95.0038 352.008C95.1958 351.664 95.2918 351.268 95.2918 350.82C95.2918 350.364 95.1958 349.972 95.0038 349.644C94.8198 349.308 94.5638 349.048 94.2358 348.864C93.9158 348.68 93.5558 348.588 93.1558 348.588C92.7478 348.588 92.3838 348.68 92.0638 348.864C91.7438 349.048 91.4878 349.308 91.2958 349.644C91.1038 349.972 91.0078 350.364 91.0078 350.82C91.0078 351.268 91.1038 351.664 91.2958 352.008C91.4878 352.344 91.7438 352.604 92.0638 352.788C92.3838 352.972 92.7478 353.064 93.1558 353.064ZM95.3278 354V352.284L95.3998 350.808L95.2798 349.332V345.096H96.4318V354H95.3278ZM109.79 347.58C110.302 347.58 110.754 347.68 111.146 347.88C111.538 348.08 111.842 348.384 112.058 348.792C112.282 349.2 112.394 349.716 112.394 350.34V354H111.242V350.472C111.242 349.856 111.098 349.392 110.81 349.08C110.522 348.768 110.118 348.612 109.598 348.612C109.214 348.612 108.878 348.692 108.59 348.852C108.302 349.012 108.078 349.248 107.918 349.56C107.766 349.872 107.69 350.26 107.69 350.724V354H106.538V350.472C106.538 349.856 106.394 349.392 106.106 349.08C105.826 348.768 105.422 348.612 104.894 348.612C104.518 348.612 104.186 348.692 103.898 348.852C103.61 349.012 103.386 349.248 103.226 349.56C103.066 349.872 102.986 350.26 102.986 350.724V354H101.834V347.64H102.938V349.332L102.758 348.9C102.958 348.484 103.266 348.16 103.682 347.928C104.098 347.696 104.582 347.58 105.134 347.58C105.742 347.58 106.266 347.732 106.706 348.036C107.146 348.332 107.434 348.784 107.57 349.392L107.102 349.2C107.294 348.712 107.63 348.32 108.11 348.024C108.59 347.728 109.15 347.58 109.79 347.58ZM117.238 354.072C116.598 354.072 116.03 353.932 115.534 353.652C115.038 353.372 114.646 352.988 114.358 352.5C114.07 352.004 113.926 351.444 113.926 350.82C113.926 350.188 114.07 349.628 114.358 349.14C114.646 348.652 115.038 348.272 115.534 348C116.03 347.72 116.598 347.58 117.238 347.58C117.87 347.58 118.434 347.72 118.93 348C119.434 348.272 119.826 348.652 120.106 349.14C120.394 349.62 120.538 350.18 120.538 350.82C120.538 351.452 120.394 352.012 120.106 352.5C119.826 352.988 119.434 353.372 118.93 353.652C118.434 353.932 117.87 354.072 117.238 354.072ZM117.238 353.064C117.646 353.064 118.01 352.972 118.33 352.788C118.658 352.604 118.914 352.344 119.098 352.008C119.282 351.664 119.374 351.268 119.374 350.82C119.374 350.364 119.282 349.972 119.098 349.644C118.914 349.308 118.658 349.048 118.33 348.864C118.01 348.68 117.646 348.588 117.238 348.588C116.83 348.588 116.466 348.68 116.146 348.864C115.826 349.048 115.57 349.308 115.378 349.644C115.186 349.972 115.09 350.364 115.09 350.82C115.09 351.268 115.186 351.664 115.378 352.008C115.57 352.344 115.826 352.604 116.146 352.788C116.466 352.972 116.83 353.064 117.238 353.064ZM124.759 354.072C124.143 354.072 123.591 353.936 123.103 353.664C122.623 353.392 122.243 353.012 121.963 352.524C121.683 352.036 121.543 351.468 121.543 350.82C121.543 350.172 121.683 349.608 121.963 349.128C122.243 348.64 122.623 348.26 123.103 347.988C123.591 347.716 124.143 347.58 124.759 347.58C125.295 347.58 125.779 347.7 126.211 347.94C126.643 348.18 126.987 348.54 127.243 349.02C127.507 349.5 127.639 350.1 127.639 350.82C127.639 351.54 127.511 352.14 127.255 352.62C127.007 353.1 126.667 353.464 126.235 353.712C125.803 353.952 125.311 354.072 124.759 354.072ZM124.855 353.064C125.255 353.064 125.615 352.972 125.935 352.788C126.263 352.604 126.519 352.344 126.703 352.008C126.895 351.664 126.991 351.268 126.991 350.82C126.991 350.364 126.895 349.972 126.703 349.644C126.519 349.308 126.263 349.048 125.935 348.864C125.615 348.68 125.255 348.588 124.855 348.588C124.447 348.588 124.083 348.68 123.763 348.864C123.443 349.048 123.187 349.308 122.995 349.644C122.803 349.972 122.707 350.364 122.707 350.82C122.707 351.268 122.803 351.664 122.995 352.008C123.187 352.344 123.443 352.604 123.763 352.788C124.083 352.972 124.447 353.064 124.855 353.064ZM127.027 354V352.284L127.099 350.808L126.979 349.332V345.096H128.131V354H127.027ZM132.135 354.072C131.607 354.072 131.103 354 130.623 353.856C130.151 353.712 129.779 353.536 129.507 353.328L129.987 352.416C130.259 352.6 130.595 352.756 130.995 352.884C131.395 353.012 131.803 353.076 132.219 353.076C132.755 353.076 133.139 353 133.371 352.848C133.611 352.696 133.731 352.484 133.731 352.212C133.731 352.012 133.659 351.856 133.515 351.744C133.371 351.632 133.179 351.548 132.939 351.492C132.707 351.436 132.447 351.388 132.159 351.348C131.871 351.3 131.583 351.244 131.295 351.18C131.007 351.108 130.743 351.012 130.503 350.892C130.263 350.764 130.071 350.592 129.927 350.376C129.783 350.152 129.711 349.856 129.711 349.488C129.711 349.104 129.819 348.768 130.035 348.48C130.251 348.192 130.555 347.972 130.947 347.82C131.347 347.66 131.819 347.58 132.363 347.58C132.779 347.58 133.199 347.632 133.623 347.736C134.055 347.832 134.407 347.972 134.679 348.156L134.187 349.068C133.899 348.876 133.599 348.744 133.287 348.672C132.975 348.6 132.663 348.564 132.351 348.564C131.847 348.564 131.471 348.648 131.223 348.816C130.975 348.976 130.851 349.184 130.851 349.44C130.851 349.656 130.923 349.824 131.067 349.944C131.219 350.056 131.411 350.144 131.643 350.208C131.883 350.272 132.147 350.328 132.435 350.376C132.723 350.416 133.011 350.472 133.299 350.544C133.587 350.608 133.847 350.7 134.079 350.82C134.319 350.94 134.511 351.108 134.655 351.324C134.807 351.54 134.883 351.828 134.883 352.188C134.883 352.572 134.771 352.904 134.547 353.184C134.323 353.464 134.007 353.684 133.599 353.844C133.191 353.996 132.703 354.072 132.135 354.072Z" fill="black"/>
<defs>
<linearGradient id="paint0_linear_188_11" x1="131" y1="0" x2="131" y2="389" gradientUnits="userSpaceOnUse">
<stop stop-color="#E8D6F6"/>
<stop offset="0.625" stop-color="white"/>
</linearGradient>
</defs>
</svg>
