<svg width="265" height="389" viewBox="0 0 265 389" fill="none" xmlns="http://www.w3.org/2000/svg">
<rect x="0.5" y="0.5" width="264" height="388" rx="37.5" fill="url(#paint0_linear_188_10)" stroke="black"/>
<path d="M38.656 74V51.6H49.6C52.416 51.6 54.528 52.1333 55.936 53.2C57.3653 54.2667 58.08 55.6747 58.08 57.424C58.08 58.5973 57.792 59.6213 57.216 60.496C56.64 61.3493 55.8507 62.0107 54.848 62.48C53.8453 62.9493 52.6933 63.184 51.392 63.184L52 61.872C53.408 61.872 54.656 62.1067 55.744 62.576C56.832 63.024 57.6747 63.696 58.272 64.592C58.8907 65.488 59.2 66.5867 59.2 67.888C59.2 69.808 58.4427 71.312 56.928 72.4C55.4133 73.4667 53.184 74 50.24 74H38.656ZM43.808 70.096H49.856C51.2 70.096 52.2133 69.8827 52.896 69.456C53.6 69.008 53.952 68.304 53.952 67.344C53.952 66.4053 53.6 65.712 52.896 65.264C52.2133 64.7947 51.2 64.56 49.856 64.56H43.424V60.784H48.96C50.2187 60.784 51.1787 60.5707 51.84 60.144C52.5227 59.696 52.864 59.024 52.864 58.128C52.864 57.2533 52.5227 56.6027 51.84 56.176C51.1787 55.728 50.2187 55.504 48.96 55.504H43.808V70.096ZM73.3328 74V70.64L73.0128 69.904V63.888C73.0128 62.8213 72.6821 61.9893 72.0208 61.392C71.3808 60.7947 70.3888 60.496 69.0448 60.496C68.1274 60.496 67.2208 60.6453 66.3248 60.944C65.4501 61.2213 64.7034 61.6053 64.0848 62.096L62.2928 58.608C63.2314 57.9467 64.3621 57.4347 65.6848 57.072C67.0074 56.7093 68.3514 56.528 69.7168 56.528C72.3408 56.528 74.3781 57.1467 75.8288 58.384C77.2794 59.6213 78.0048 61.552 78.0048 64.176V74H73.3328ZM68.0848 74.256C66.7408 74.256 65.5888 74.032 64.6288 73.584C63.6688 73.1147 62.9328 72.4853 62.4208 71.696C61.9088 70.9067 61.6528 70.0213 61.6528 69.04C61.6528 68.016 61.8981 67.12 62.3888 66.352C62.9008 65.584 63.7008 64.9867 64.7888 64.56C65.8768 64.112 67.2954 63.888 69.0448 63.888H73.6208V66.8H69.5888C68.4154 66.8 67.6048 66.992 67.1568 67.376C66.7301 67.76 66.5168 68.24 66.5168 68.816C66.5168 69.456 66.7621 69.968 67.2528 70.352C67.7648 70.7147 68.4581 70.896 69.3328 70.896C70.1648 70.896 70.9114 70.704 71.5728 70.32C72.2341 69.9147 72.7141 69.328 73.0128 68.56L73.7808 70.864C73.4181 71.9733 72.7568 72.816 71.7968 73.392C70.8368 73.968 69.5994 74.256 68.0848 74.256ZM88.3148 74.256C86.8428 74.256 85.4241 74.0853 84.0588 73.744C82.7148 73.3813 81.6481 72.9333 80.8588 72.4L82.5228 68.816C83.3121 69.3067 84.2401 69.712 85.3068 70.032C86.3948 70.3307 87.4614 70.48 88.5068 70.48C89.6588 70.48 90.4694 70.3413 90.9388 70.064C91.4294 69.7867 91.6748 69.4027 91.6748 68.912C91.6748 68.5067 91.4828 68.208 91.0988 68.016C90.7361 67.8027 90.2454 67.6427 89.6267 67.536C89.0081 67.4293 88.3254 67.3227 87.5788 67.216C86.8534 67.1093 86.1174 66.9707 85.3708 66.8C84.6241 66.608 83.9414 66.3307 83.3228 65.968C82.7041 65.6053 82.2028 65.1147 81.8188 64.496C81.4561 63.8773 81.2747 63.0773 81.2747 62.096C81.2747 61.008 81.5841 60.048 82.2028 59.216C82.8428 58.384 83.7601 57.7333 84.9548 57.264C86.1494 56.7733 87.5788 56.528 89.2428 56.528C90.4161 56.528 91.6108 56.656 92.8268 56.912C94.0428 57.168 95.0561 57.5413 95.8668 58.032L94.2028 61.584C93.3708 61.0933 92.5281 60.7627 91.6748 60.592C90.8428 60.4 90.0321 60.304 89.2428 60.304C88.1334 60.304 87.3228 60.4533 86.8108 60.752C86.2988 61.0507 86.0428 61.4347 86.0428 61.904C86.0428 62.3307 86.2241 62.6507 86.5868 62.864C86.9708 63.0773 87.4721 63.248 88.0908 63.376C88.7094 63.504 89.3814 63.6213 90.1068 63.728C90.8534 63.8133 91.6001 63.952 92.3468 64.144C93.0934 64.336 93.7654 64.6133 94.3628 64.976C94.9814 65.3173 95.4828 65.7973 95.8668 66.416C96.2508 67.0133 96.4428 67.8027 96.4428 68.784C96.4428 69.8507 96.1228 70.8 95.4828 71.632C94.8428 72.4427 93.9148 73.0827 92.6988 73.552C91.5041 74.0213 90.0428 74.256 88.3148 74.256ZM99.5228 74V56.784H104.515V74H99.5228ZM102.019 54.384C101.101 54.384 100.355 54.1173 99.7788 53.584C99.2028 53.0507 98.9148 52.3893 98.9148 51.6C98.9148 50.8107 99.2028 50.1493 99.7788 49.616C100.355 49.0827 101.101 48.816 102.019 48.816C102.936 48.816 103.683 49.072 104.259 49.584C104.835 50.0747 105.123 50.7147 105.123 51.504C105.123 52.336 104.835 53.0293 104.259 53.584C103.704 54.1173 102.957 54.384 102.019 54.384ZM117.468 74.256C115.612 74.256 113.958 73.8827 112.508 73.136C111.057 72.368 109.916 71.312 109.084 69.968C108.273 68.624 107.868 67.0987 107.868 65.392C107.868 63.664 108.273 62.1387 109.084 60.816C109.916 59.472 111.057 58.4267 112.508 57.68C113.958 56.912 115.612 56.528 117.468 56.528C119.281 56.528 120.86 56.912 122.204 57.68C123.548 58.4267 124.54 59.504 125.18 60.912L121.308 62.992C120.86 62.1813 120.294 61.584 119.612 61.2C118.95 60.816 118.225 60.624 117.436 60.624C116.582 60.624 115.814 60.816 115.132 61.2C114.449 61.584 113.905 62.128 113.5 62.832C113.116 63.536 112.924 64.3893 112.924 65.392C112.924 66.3947 113.116 67.248 113.5 67.952C113.905 68.656 114.449 69.2 115.132 69.584C115.814 69.968 116.582 70.16 117.436 70.16C118.225 70.16 118.95 69.9787 119.612 69.616C120.294 69.232 120.86 68.624 121.308 67.792L125.18 69.904C124.54 71.2907 123.548 72.368 122.204 73.136C120.86 73.8827 119.281 74.256 117.468 74.256Z" fill="black"/>
<path d="M37.26 101V92.6H40.536C41.272 92.6 41.9 92.716 42.42 92.948C42.94 93.18 43.34 93.516 43.62 93.956C43.9 94.396 44.04 94.92 44.04 95.528C44.04 96.136 43.9 96.66 43.62 97.1C43.34 97.532 42.94 97.868 42.42 98.108C41.9 98.34 41.272 98.456 40.536 98.456H37.92L38.46 97.892V101H37.26ZM38.46 98.012L37.92 97.412H40.5C41.268 97.412 41.848 97.248 42.24 96.92C42.64 96.592 42.84 96.128 42.84 95.528C42.84 94.928 42.64 94.464 42.24 94.136C41.848 93.808 41.268 93.644 40.5 93.644H37.92L38.46 93.044V98.012ZM45.5178 101V94.64H46.6218V96.368L46.5138 95.936C46.6898 95.496 46.9858 95.16 47.4018 94.928C47.8178 94.696 48.3298 94.58 48.9378 94.58V95.696C48.8898 95.688 48.8418 95.684 48.7938 95.684C48.7538 95.684 48.7138 95.684 48.6738 95.684C48.0578 95.684 47.5698 95.868 47.2098 96.236C46.8498 96.604 46.6698 97.136 46.6698 97.832V101H45.5178ZM53.131 101.072C52.451 101.072 51.851 100.932 51.331 100.652C50.819 100.372 50.419 99.988 50.131 99.5C49.851 99.012 49.711 98.452 49.711 97.82C49.711 97.188 49.847 96.628 50.119 96.14C50.399 95.652 50.779 95.272 51.259 95C51.747 94.72 52.295 94.58 52.903 94.58C53.519 94.58 54.063 94.716 54.535 94.988C55.007 95.26 55.375 95.644 55.639 96.14C55.911 96.628 56.047 97.2 56.047 97.856C56.047 97.904 56.043 97.96 56.035 98.024C56.035 98.088 56.031 98.148 56.023 98.204H50.611V97.376H55.423L54.955 97.664C54.963 97.256 54.879 96.892 54.703 96.572C54.527 96.252 54.283 96.004 53.971 95.828C53.667 95.644 53.311 95.552 52.903 95.552C52.503 95.552 52.147 95.644 51.835 95.828C51.523 96.004 51.279 96.256 51.103 96.584C50.927 96.904 50.839 97.272 50.839 97.688V97.88C50.839 98.304 50.935 98.684 51.127 99.02C51.327 99.348 51.603 99.604 51.955 99.788C52.307 99.972 52.711 100.064 53.167 100.064C53.543 100.064 53.883 100 54.187 99.872C54.499 99.744 54.771 99.552 55.003 99.296L55.639 100.04C55.351 100.376 54.991 100.632 54.559 100.808C54.135 100.984 53.659 101.072 53.131 101.072ZM57.8147 101V94.076C57.8147 93.452 57.9947 92.956 58.3547 92.588C58.7227 92.212 59.2427 92.024 59.9147 92.024C60.1627 92.024 60.3987 92.056 60.6227 92.12C60.8547 92.176 61.0507 92.268 61.2107 92.396L60.8627 93.272C60.7427 93.176 60.6067 93.104 60.4547 93.056C60.3027 93 60.1427 92.972 59.9747 92.972C59.6387 92.972 59.3827 93.068 59.2067 93.26C59.0307 93.444 58.9427 93.72 58.9427 94.088V94.94L58.9667 95.468V101H57.8147ZM56.7347 95.588V94.64H60.7907V95.588H56.7347ZM64.6154 101.072C63.9354 101.072 63.3354 100.932 62.8154 100.652C62.3034 100.372 61.9034 99.988 61.6154 99.5C61.3354 99.012 61.1954 98.452 61.1954 97.82C61.1954 97.188 61.3314 96.628 61.6034 96.14C61.8834 95.652 62.2634 95.272 62.7434 95C63.2314 94.72 63.7794 94.58 64.3874 94.58C65.0034 94.58 65.5474 94.716 66.0194 94.988C66.4914 95.26 66.8594 95.644 67.1234 96.14C67.3954 96.628 67.5314 97.2 67.5314 97.856C67.5314 97.904 67.5274 97.96 67.5194 98.024C67.5194 98.088 67.5154 98.148 67.5074 98.204H62.0954V97.376H66.9074L66.4394 97.664C66.4474 97.256 66.3634 96.892 66.1874 96.572C66.0114 96.252 65.7674 96.004 65.4554 95.828C65.1514 95.644 64.7954 95.552 64.3874 95.552C63.9874 95.552 63.6314 95.644 63.3194 95.828C63.0074 96.004 62.7634 96.256 62.5874 96.584C62.4114 96.904 62.3234 97.272 62.3234 97.688V97.88C62.3234 98.304 62.4194 98.684 62.6114 99.02C62.8114 99.348 63.0874 99.604 63.4394 99.788C63.7914 99.972 64.1954 100.064 64.6514 100.064C65.0274 100.064 65.3674 100 65.6714 99.872C65.9834 99.744 66.2554 99.552 66.4874 99.296L67.1234 100.04C66.8354 100.376 66.4754 100.632 66.0434 100.808C65.6194 100.984 65.1434 101.072 64.6154 101.072ZM71.9031 101.072C71.2551 101.072 70.6751 100.932 70.1631 100.652C69.6591 100.372 69.2631 99.988 68.9751 99.5C68.6871 99.012 68.5431 98.452 68.5431 97.82C68.5431 97.188 68.6871 96.628 68.9751 96.14C69.2631 95.652 69.6591 95.272 70.1631 95C70.6751 94.72 71.2551 94.58 71.9031 94.58C72.4791 94.58 72.9911 94.696 73.4391 94.928C73.8951 95.152 74.2471 95.488 74.4951 95.936L73.6191 96.5C73.4111 96.188 73.1551 95.96 72.8511 95.816C72.5551 95.664 72.2351 95.588 71.8911 95.588C71.4751 95.588 71.1031 95.68 70.7751 95.864C70.4471 96.048 70.1871 96.308 69.9951 96.644C69.8031 96.972 69.7071 97.364 69.7071 97.82C69.7071 98.276 69.8031 98.672 69.9951 99.008C70.1871 99.344 70.4471 99.604 70.7751 99.788C71.1031 99.972 71.4751 100.064 71.8911 100.064C72.2351 100.064 72.5551 99.992 72.8511 99.848C73.1551 99.696 73.4111 99.464 73.6191 99.152L74.4951 99.704C74.2471 100.144 73.8951 100.484 73.4391 100.724C72.9911 100.956 72.4791 101.072 71.9031 101.072ZM78.2526 101.072C77.6126 101.072 77.1166 100.9 76.7646 100.556C76.4126 100.212 76.2366 99.72 76.2366 99.08V93.248H77.3886V99.032C77.3886 99.376 77.4726 99.64 77.6406 99.824C77.8166 100.008 78.0646 100.1 78.3846 100.1C78.7446 100.1 79.0446 100 79.2846 99.8L79.6446 100.628C79.4686 100.78 79.2566 100.892 79.0086 100.964C78.7686 101.036 78.5166 101.072 78.2526 101.072ZM75.1566 95.588V94.64H79.2126V95.588H75.1566ZM87.632 101.072C87.104 101.072 86.62 100.952 86.18 100.712C85.748 100.464 85.4 100.1 85.136 99.62C84.88 99.14 84.752 98.54 84.752 97.82C84.752 97.1 84.876 96.5 85.124 96.02C85.38 95.54 85.724 95.18 86.156 94.94C86.596 94.7 87.088 94.58 87.632 94.58C88.256 94.58 88.808 94.716 89.288 94.988C89.768 95.26 90.148 95.64 90.428 96.128C90.708 96.608 90.848 97.172 90.848 97.82C90.848 98.468 90.708 99.036 90.428 99.524C90.148 100.012 89.768 100.392 89.288 100.664C88.808 100.936 88.256 101.072 87.632 101.072ZM84.26 103.328V94.64H85.364V96.356L85.292 97.832L85.412 99.308V103.328H84.26ZM87.536 100.064C87.944 100.064 88.308 99.972 88.628 99.788C88.956 99.604 89.212 99.344 89.396 99.008C89.588 98.664 89.684 98.268 89.684 97.82C89.684 97.364 89.588 96.972 89.396 96.644C89.212 96.308 88.956 96.048 88.628 95.864C88.308 95.68 87.944 95.588 87.536 95.588C87.136 95.588 86.772 95.68 86.444 95.864C86.124 96.048 85.868 96.308 85.676 96.644C85.492 96.972 85.4 97.364 85.4 97.82C85.4 98.268 85.492 98.664 85.676 99.008C85.868 99.344 86.124 99.604 86.444 99.788C86.772 99.972 87.136 100.064 87.536 100.064ZM92.4397 101V92.096H93.5917V101H92.4397ZM99.7392 101V99.656L99.6792 99.404V97.112C99.6792 96.624 99.5352 96.248 99.2472 95.984C98.9672 95.712 98.5432 95.576 97.9752 95.576C97.5992 95.576 97.2312 95.64 96.8712 95.768C96.5112 95.888 96.2072 96.052 95.9592 96.26L95.4792 95.396C95.8072 95.132 96.1992 94.932 96.6552 94.796C97.1192 94.652 97.6032 94.58 98.1072 94.58C98.9792 94.58 99.6512 94.792 100.123 95.216C100.595 95.64 100.831 96.288 100.831 97.16V101H99.7392ZM97.6512 101.072C97.1792 101.072 96.7632 100.992 96.4032 100.832C96.0512 100.672 95.7792 100.452 95.5872 100.172C95.3952 99.884 95.2992 99.56 95.2992 99.2C95.2992 98.856 95.3792 98.544 95.5392 98.264C95.7072 97.984 95.9752 97.76 96.3432 97.592C96.7192 97.424 97.2232 97.34 97.8552 97.34H99.8712V98.168H97.9032C97.3272 98.168 96.9392 98.264 96.7392 98.456C96.5392 98.648 96.4392 98.88 96.4392 99.152C96.4392 99.464 96.5632 99.716 96.8112 99.908C97.0592 100.092 97.4032 100.184 97.8432 100.184C98.2752 100.184 98.6512 100.088 98.9712 99.896C99.2992 99.704 99.5352 99.424 99.6792 99.056L99.9072 99.848C99.7552 100.224 99.4872 100.524 99.1032 100.748C98.7192 100.964 98.2352 101.072 97.6512 101.072ZM106.359 94.58C106.879 94.58 107.335 94.68 107.727 94.88C108.127 95.08 108.439 95.384 108.663 95.792C108.887 96.2 108.999 96.716 108.999 97.34V101H107.847V97.472C107.847 96.856 107.695 96.392 107.391 96.08C107.095 95.768 106.675 95.612 106.131 95.612C105.723 95.612 105.367 95.692 105.063 95.852C104.759 96.012 104.523 96.248 104.355 96.56C104.195 96.872 104.115 97.26 104.115 97.724V101H102.963V94.64H104.067V96.356L103.887 95.9C104.095 95.484 104.415 95.16 104.847 94.928C105.279 94.696 105.783 94.58 106.359 94.58ZM114.522 101V94.076C114.522 93.452 114.702 92.956 115.062 92.588C115.43 92.212 115.95 92.024 116.622 92.024C116.87 92.024 117.106 92.056 117.33 92.12C117.562 92.176 117.758 92.268 117.918 92.396L117.57 93.272C117.45 93.176 117.314 93.104 117.162 93.056C117.01 93 116.85 92.972 116.682 92.972C116.346 92.972 116.09 93.068 115.914 93.26C115.738 93.444 115.65 93.72 115.65 94.088V94.94L115.674 95.468V101H114.522ZM113.442 95.588V94.64H117.498V95.588H113.442ZM121.214 101.072C120.574 101.072 120.006 100.932 119.51 100.652C119.014 100.372 118.622 99.988 118.334 99.5C118.046 99.004 117.902 98.444 117.902 97.82C117.902 97.188 118.046 96.628 118.334 96.14C118.622 95.652 119.014 95.272 119.51 95C120.006 94.72 120.574 94.58 121.214 94.58C121.846 94.58 122.41 94.72 122.906 95C123.41 95.272 123.802 95.652 124.082 96.14C124.37 96.62 124.514 97.18 124.514 97.82C124.514 98.452 124.37 99.012 124.082 99.5C123.802 99.988 123.41 100.372 122.906 100.652C122.41 100.932 121.846 101.072 121.214 101.072ZM121.214 100.064C121.622 100.064 121.986 99.972 122.306 99.788C122.634 99.604 122.89 99.344 123.074 99.008C123.258 98.664 123.35 98.268 123.35 97.82C123.35 97.364 123.258 96.972 123.074 96.644C122.89 96.308 122.634 96.048 122.306 95.864C121.986 95.68 121.622 95.588 121.214 95.588C120.806 95.588 120.442 95.68 120.122 95.864C119.802 96.048 119.546 96.308 119.354 96.644C119.162 96.972 119.066 97.364 119.066 97.82C119.066 98.268 119.162 98.664 119.354 99.008C119.546 99.344 119.802 99.604 120.122 99.788C120.442 99.972 120.806 100.064 121.214 100.064ZM126.108 101V94.64H127.212V96.368L127.104 95.936C127.28 95.496 127.576 95.16 127.992 94.928C128.408 94.696 128.92 94.58 129.528 94.58V95.696C129.48 95.688 129.432 95.684 129.384 95.684C129.344 95.684 129.304 95.684 129.264 95.684C128.648 95.684 128.16 95.868 127.8 96.236C127.44 96.604 127.26 97.136 127.26 97.832V101H126.108ZM136.868 101.096C136.228 101.096 135.616 101 135.032 100.808C134.448 100.608 133.988 100.352 133.652 100.04L134.096 99.104C134.416 99.384 134.824 99.616 135.32 99.8C135.816 99.984 136.332 100.076 136.868 100.076C137.356 100.076 137.752 100.02 138.056 99.908C138.36 99.796 138.584 99.644 138.728 99.452C138.872 99.252 138.944 99.028 138.944 98.78C138.944 98.492 138.848 98.26 138.656 98.084C138.472 97.908 138.228 97.768 137.924 97.664C137.628 97.552 137.3 97.456 136.94 97.376C136.58 97.296 136.216 97.204 135.848 97.1C135.488 96.988 135.156 96.848 134.852 96.68C134.556 96.512 134.316 96.288 134.132 96.008C133.948 95.72 133.856 95.352 133.856 94.904C133.856 94.472 133.968 94.076 134.192 93.716C134.424 93.348 134.776 93.056 135.248 92.84C135.728 92.616 136.336 92.504 137.072 92.504C137.56 92.504 138.044 92.568 138.524 92.696C139.004 92.824 139.42 93.008 139.772 93.248L139.376 94.208C139.016 93.968 138.636 93.796 138.236 93.692C137.836 93.58 137.448 93.524 137.072 93.524C136.6 93.524 136.212 93.584 135.908 93.704C135.604 93.824 135.38 93.984 135.236 94.184C135.1 94.384 135.032 94.608 135.032 94.856C135.032 95.152 135.124 95.388 135.308 95.564C135.5 95.74 135.744 95.88 136.04 95.984C136.344 96.088 136.676 96.184 137.036 96.272C137.396 96.352 137.756 96.444 138.116 96.548C138.484 96.652 138.816 96.788 139.112 96.956C139.416 97.124 139.66 97.348 139.844 97.628C140.028 97.908 140.12 98.268 140.12 98.708C140.12 99.132 140.004 99.528 139.772 99.896C139.54 100.256 139.18 100.548 138.692 100.772C138.212 100.988 137.604 101.096 136.868 101.096ZM143.889 101.072C143.249 101.072 142.753 100.9 142.401 100.556C142.049 100.212 141.873 99.72 141.873 99.08V93.248H143.025V99.032C143.025 99.376 143.109 99.64 143.277 99.824C143.453 100.008 143.701 100.1 144.021 100.1C144.381 100.1 144.681 100 144.921 99.8L145.281 100.628C145.105 100.78 144.893 100.892 144.645 100.964C144.405 101.036 144.153 101.072 143.889 101.072ZM140.793 95.588V94.64H144.849V95.588H140.793ZM150.622 101V99.656L150.562 99.404V97.112C150.562 96.624 150.418 96.248 150.13 95.984C149.85 95.712 149.426 95.576 148.858 95.576C148.482 95.576 148.114 95.64 147.754 95.768C147.394 95.888 147.09 96.052 146.842 96.26L146.362 95.396C146.69 95.132 147.082 94.932 147.538 94.796C148.002 94.652 148.486 94.58 148.99 94.58C149.862 94.58 150.534 94.792 151.006 95.216C151.478 95.64 151.714 96.288 151.714 97.16V101H150.622ZM148.534 101.072C148.062 101.072 147.646 100.992 147.286 100.832C146.934 100.672 146.662 100.452 146.47 100.172C146.278 99.884 146.182 99.56 146.182 99.2C146.182 98.856 146.262 98.544 146.422 98.264C146.59 97.984 146.858 97.76 147.226 97.592C147.602 97.424 148.106 97.34 148.738 97.34H150.754V98.168H148.786C148.21 98.168 147.822 98.264 147.622 98.456C147.422 98.648 147.322 98.88 147.322 99.152C147.322 99.464 147.446 99.716 147.694 99.908C147.942 100.092 148.286 100.184 148.726 100.184C149.158 100.184 149.534 100.088 149.854 99.896C150.182 99.704 150.418 99.424 150.562 99.056L150.79 99.848C150.638 100.224 150.37 100.524 149.986 100.748C149.602 100.964 149.118 101.072 148.534 101.072ZM153.846 101V94.64H154.95V96.368L154.842 95.936C155.018 95.496 155.314 95.16 155.73 94.928C156.146 94.696 156.658 94.58 157.266 94.58V95.696C157.218 95.688 157.17 95.684 157.122 95.684C157.082 95.684 157.042 95.684 157.002 95.684C156.386 95.684 155.898 95.868 155.538 96.236C155.178 96.604 154.998 97.136 154.998 97.832V101H153.846ZM161.128 101.072C160.488 101.072 159.992 100.9 159.64 100.556C159.288 100.212 159.112 99.72 159.112 99.08V93.248H160.264V99.032C160.264 99.376 160.348 99.64 160.516 99.824C160.692 100.008 160.94 100.1 161.26 100.1C161.62 100.1 161.92 100 162.16 99.8L162.52 100.628C162.344 100.78 162.132 100.892 161.884 100.964C161.644 101.036 161.392 101.072 161.128 101.072ZM158.032 95.588V94.64H162.088V95.588H158.032ZM166.533 101.072C165.853 101.072 165.253 100.932 164.733 100.652C164.221 100.372 163.821 99.988 163.533 99.5C163.253 99.012 163.113 98.452 163.113 97.82C163.113 97.188 163.249 96.628 163.521 96.14C163.801 95.652 164.181 95.272 164.661 95C165.149 94.72 165.697 94.58 166.305 94.58C166.921 94.58 167.465 94.716 167.937 94.988C168.409 95.26 168.777 95.644 169.041 96.14C169.313 96.628 169.449 97.2 169.449 97.856C169.449 97.904 169.445 97.96 169.437 98.024C169.437 98.088 169.433 98.148 169.425 98.204H164.013V97.376H168.825L168.357 97.664C168.365 97.256 168.281 96.892 168.105 96.572C167.929 96.252 167.685 96.004 167.373 95.828C167.069 95.644 166.713 95.552 166.305 95.552C165.905 95.552 165.549 95.644 165.237 95.828C164.925 96.004 164.681 96.256 164.505 96.584C164.329 96.904 164.241 97.272 164.241 97.688V97.88C164.241 98.304 164.337 98.684 164.529 99.02C164.729 99.348 165.005 99.604 165.357 99.788C165.709 99.972 166.113 100.064 166.569 100.064C166.945 100.064 167.285 100 167.589 99.872C167.901 99.744 168.173 99.552 168.405 99.296L169.041 100.04C168.753 100.376 168.393 100.632 167.961 100.808C167.537 100.984 167.061 101.072 166.533 101.072ZM172.873 101.072C172.345 101.072 171.841 101 171.361 100.856C170.889 100.712 170.517 100.536 170.245 100.328L170.725 99.416C170.997 99.6 171.333 99.756 171.733 99.884C172.133 100.012 172.541 100.076 172.957 100.076C173.493 100.076 173.877 100 174.109 99.848C174.349 99.696 174.469 99.484 174.469 99.212C174.469 99.012 174.397 98.856 174.253 98.744C174.109 98.632 173.917 98.548 173.677 98.492C173.445 98.436 173.185 98.388 172.897 98.348C172.609 98.3 172.321 98.244 172.033 98.18C171.745 98.108 171.481 98.012 171.241 97.892C171.001 97.764 170.809 97.592 170.665 97.376C170.521 97.152 170.449 96.856 170.449 96.488C170.449 96.104 170.557 95.768 170.773 95.48C170.989 95.192 171.293 94.972 171.685 94.82C172.085 94.66 172.557 94.58 173.101 94.58C173.517 94.58 173.937 94.632 174.361 94.736C174.793 94.832 175.145 94.972 175.417 95.156L174.925 96.068C174.637 95.876 174.337 95.744 174.025 95.672C173.713 95.6 173.401 95.564 173.089 95.564C172.585 95.564 172.209 95.648 171.961 95.816C171.713 95.976 171.589 96.184 171.589 96.44C171.589 96.656 171.661 96.824 171.805 96.944C171.957 97.056 172.149 97.144 172.381 97.208C172.621 97.272 172.885 97.328 173.173 97.376C173.461 97.416 173.749 97.472 174.037 97.544C174.325 97.608 174.585 97.7 174.817 97.82C175.057 97.94 175.249 98.108 175.393 98.324C175.545 98.54 175.621 98.828 175.621 99.188C175.621 99.572 175.509 99.904 175.285 100.184C175.061 100.464 174.745 100.684 174.337 100.844C173.929 100.996 173.441 101.072 172.873 101.072Z" fill="#8A8A8A"/>
<path d="M39.408 182.44V171.16H40.176V182.44H39.408ZM39.708 181.096C39.068 181.096 38.456 181 37.872 180.808C37.288 180.608 36.828 180.352 36.492 180.04L36.936 179.104C37.256 179.384 37.664 179.616 38.16 179.8C38.656 179.984 39.172 180.076 39.708 180.076C40.196 180.076 40.592 180.02 40.896 179.908C41.2 179.796 41.424 179.644 41.568 179.452C41.712 179.252 41.784 179.028 41.784 178.78C41.784 178.492 41.688 178.26 41.496 178.084C41.312 177.908 41.068 177.768 40.764 177.664C40.468 177.552 40.14 177.456 39.78 177.376C39.42 177.296 39.056 177.204 38.688 177.1C38.328 176.988 37.996 176.848 37.692 176.68C37.396 176.512 37.156 176.288 36.972 176.008C36.788 175.72 36.696 175.352 36.696 174.904C36.696 174.472 36.808 174.076 37.032 173.716C37.264 173.348 37.616 173.056 38.088 172.84C38.568 172.616 39.176 172.504 39.912 172.504C40.4 172.504 40.884 172.568 41.364 172.696C41.844 172.824 42.26 173.008 42.612 173.248L42.216 174.208C41.856 173.968 41.476 173.796 41.076 173.692C40.676 173.58 40.288 173.524 39.912 173.524C39.44 173.524 39.052 173.584 38.748 173.704C38.444 173.824 38.22 173.984 38.076 174.184C37.94 174.384 37.872 174.608 37.872 174.856C37.872 175.152 37.964 175.388 38.148 175.564C38.34 175.74 38.584 175.88 38.88 175.984C39.184 176.088 39.516 176.184 39.876 176.272C40.236 176.352 40.596 176.444 40.956 176.548C41.324 176.652 41.656 176.788 41.952 176.956C42.256 177.124 42.5 177.348 42.684 177.628C42.868 177.908 42.96 178.268 42.96 178.708C42.96 179.132 42.844 179.528 42.612 179.896C42.38 180.256 42.02 180.548 41.532 180.772C41.052 180.988 40.444 181.096 39.708 181.096Z" fill="black"/>
<path d="M69.376 218.512C65.8773 218.512 62.7413 217.616 59.968 215.824C57.2373 214.032 55.0613 211.429 53.44 208.016C51.8613 204.603 51.072 200.464 51.072 195.6C51.072 190.736 51.8613 186.597 53.44 183.184C55.0613 179.771 57.2373 177.168 59.968 175.376C62.7413 173.584 65.8773 172.688 69.376 172.688C72.832 172.688 75.9467 173.584 78.72 175.376C81.4933 177.168 83.6693 179.771 85.248 183.184C86.8267 186.597 87.616 190.736 87.616 195.6C87.616 200.464 86.8267 204.603 85.248 208.016C83.6693 211.429 81.4933 214.032 78.72 215.824C75.9467 217.616 72.832 218.512 69.376 218.512ZM69.376 212.816C71.7227 212.816 73.7707 212.176 75.52 210.896C77.312 209.616 78.6987 207.696 79.68 205.136C80.704 202.576 81.216 199.397 81.216 195.6C81.216 191.803 80.704 188.624 79.68 186.064C78.6987 183.504 77.312 181.584 75.52 180.304C73.7707 179.024 71.7227 178.384 69.376 178.384C67.0293 178.384 64.96 179.024 63.168 180.304C61.376 181.584 59.968 183.504 58.944 186.064C57.9627 188.624 57.472 191.803 57.472 195.6C57.472 199.397 57.9627 202.576 58.944 205.136C59.968 207.696 61.376 209.616 63.168 210.896C64.96 212.176 67.0293 212.816 69.376 212.816Z" fill="black"/>
<path d="M91.664 219.2L95.624 207.896H96.668L92.708 219.2H91.664ZM97.4788 218V211.076C97.4788 210.452 97.6588 209.956 98.0188 209.588C98.3868 209.212 98.9068 209.024 99.5788 209.024C99.8268 209.024 100.063 209.056 100.287 209.12C100.519 209.176 100.715 209.268 100.875 209.396L100.527 210.272C100.407 210.176 100.271 210.104 100.119 210.056C99.9668 210 99.8068 209.972 99.6388 209.972C99.3028 209.972 99.0468 210.068 98.8708 210.26C98.6948 210.444 98.6068 210.72 98.6068 211.088V211.94L98.6308 212.468V218H97.4788ZM96.3988 212.588V211.64H100.455V212.588H96.3988ZM101.541 218V211.64H102.645V213.368L102.537 212.936C102.713 212.496 103.009 212.16 103.425 211.928C103.841 211.696 104.353 211.58 104.961 211.58V212.696C104.913 212.688 104.865 212.684 104.817 212.684C104.777 212.684 104.737 212.684 104.697 212.684C104.081 212.684 103.593 212.868 103.233 213.236C102.873 213.604 102.693 214.136 102.693 214.832V218H101.541ZM109.154 218.072C108.474 218.072 107.874 217.932 107.354 217.652C106.842 217.372 106.442 216.988 106.154 216.5C105.874 216.012 105.734 215.452 105.734 214.82C105.734 214.188 105.87 213.628 106.142 213.14C106.422 212.652 106.802 212.272 107.282 212C107.77 211.72 108.318 211.58 108.926 211.58C109.542 211.58 110.086 211.716 110.558 211.988C111.03 212.26 111.398 212.644 111.662 213.14C111.934 213.628 112.07 214.2 112.07 214.856C112.07 214.904 112.066 214.96 112.058 215.024C112.058 215.088 112.054 215.148 112.046 215.204H106.634V214.376H111.446L110.978 214.664C110.986 214.256 110.902 213.892 110.726 213.572C110.55 213.252 110.306 213.004 109.994 212.828C109.69 212.644 109.334 212.552 108.926 212.552C108.526 212.552 108.17 212.644 107.858 212.828C107.546 213.004 107.302 213.256 107.126 213.584C106.95 213.904 106.862 214.272 106.862 214.688V214.88C106.862 215.304 106.958 215.684 107.15 216.02C107.35 216.348 107.626 216.604 107.978 216.788C108.33 216.972 108.734 217.064 109.19 217.064C109.566 217.064 109.906 217 110.21 216.872C110.522 216.744 110.794 216.552 111.026 216.296L111.662 217.04C111.374 217.376 111.014 217.632 110.582 217.808C110.158 217.984 109.682 218.072 109.154 218.072ZM116.502 218.072C115.822 218.072 115.222 217.932 114.702 217.652C114.19 217.372 113.79 216.988 113.502 216.5C113.222 216.012 113.082 215.452 113.082 214.82C113.082 214.188 113.218 213.628 113.49 213.14C113.77 212.652 114.15 212.272 114.63 212C115.118 211.72 115.666 211.58 116.274 211.58C116.89 211.58 117.434 211.716 117.906 211.988C118.378 212.26 118.746 212.644 119.01 213.14C119.282 213.628 119.418 214.2 119.418 214.856C119.418 214.904 119.414 214.96 119.406 215.024C119.406 215.088 119.402 215.148 119.394 215.204H113.982V214.376H118.794L118.326 214.664C118.334 214.256 118.25 213.892 118.074 213.572C117.898 213.252 117.654 213.004 117.342 212.828C117.038 212.644 116.682 212.552 116.274 212.552C115.874 212.552 115.518 212.644 115.206 212.828C114.894 213.004 114.65 213.256 114.474 213.584C114.298 213.904 114.21 214.272 114.21 214.688V214.88C114.21 215.304 114.306 215.684 114.498 216.02C114.698 216.348 114.974 216.604 115.326 216.788C115.678 216.972 116.082 217.064 116.538 217.064C116.914 217.064 117.254 217 117.558 216.872C117.87 216.744 118.142 216.552 118.374 216.296L119.01 217.04C118.722 217.376 118.362 217.632 117.93 217.808C117.506 217.984 117.03 218.072 116.502 218.072Z" fill="#8A8A8A"/>
<rect x="22" y="240" width="220" height="1" fill="#D9D9D9"/>
<path d="M40.508 279.528C40.508 279.42 40.496 279.372 40.448 279.372L40.172 279.504C40.172 279.444 40.136 279.408 40.076 279.384L39.98 279.372C39.896 279.372 39.86 279.384 39.74 279.456C39.704 279.384 39.656 279.3 39.62 279.228C39.308 278.628 38.984 277.728 38.84 277.332C38.768 277.128 38.696 276.708 38.612 276.072C38.708 276.132 38.78 276.156 38.816 276.156C38.864 276.156 38.924 276.072 38.972 275.904C38.996 275.94 39.044 275.952 39.104 275.952C39.14 275.952 39.188 275.94 39.212 275.904L39.404 275.616L39.62 275.688H39.632C39.656 275.688 39.692 275.652 39.752 275.616C39.812 275.58 39.86 275.556 39.896 275.556L39.932 275.568C40.124 275.664 40.256 275.832 40.316 276.096C40.46 276.708 40.592 277.008 40.748 277.008C40.88 277.008 41.06 276.852 41.252 276.552C41.444 276.252 41.636 275.844 41.852 275.352C41.864 275.448 41.876 275.496 41.9 275.496C41.972 275.496 42.152 275.076 42.596 274.368C43.256 273.3 44.888 271.248 45.308 270.96C45.62 270.744 45.86 270.54 46.028 270.36C46.004 270.48 45.98 270.564 45.98 270.6C45.98 270.636 46.004 270.648 46.028 270.648L46.364 270.48V270.528C46.364 270.588 46.376 270.624 46.412 270.624C46.46 270.624 46.652 270.432 46.676 270.36L46.652 270.528L47.06 270.288L46.964 270.504C47.084 270.42 47.18 270.372 47.24 270.372C47.3 270.372 47.336 270.468 47.336 270.528C47.336 270.624 47.252 270.756 47.12 270.924C46.976 271.116 46.616 271.488 45.536 272.724C45.068 273.252 42.992 276.072 42.596 276.744L41.852 278.004C41.528 278.544 41.324 278.892 41.216 279.024C41.108 279.156 40.976 279.288 40.82 279.408L40.712 279.348L40.616 279.408L40.508 279.528Z" fill="black"/>
<path d="M41.508 308.528C41.508 308.42 41.496 308.372 41.448 308.372L41.172 308.504C41.172 308.444 41.136 308.408 41.076 308.384L40.98 308.372C40.896 308.372 40.86 308.384 40.74 308.456C40.704 308.384 40.656 308.3 40.62 308.228C40.308 307.628 39.984 306.728 39.84 306.332C39.768 306.128 39.696 305.708 39.612 305.072C39.708 305.132 39.78 305.156 39.816 305.156C39.864 305.156 39.924 305.072 39.972 304.904C39.996 304.94 40.044 304.952 40.104 304.952C40.14 304.952 40.188 304.94 40.212 304.904L40.404 304.616L40.62 304.688H40.632C40.656 304.688 40.692 304.652 40.752 304.616C40.812 304.58 40.86 304.556 40.896 304.556L40.932 304.568C41.124 304.664 41.256 304.832 41.316 305.096C41.46 305.708 41.592 306.008 41.748 306.008C41.88 306.008 42.06 305.852 42.252 305.552C42.444 305.252 42.636 304.844 42.852 304.352C42.864 304.448 42.876 304.496 42.9 304.496C42.972 304.496 43.152 304.076 43.596 303.368C44.256 302.3 45.888 300.248 46.308 299.96C46.62 299.744 46.86 299.54 47.028 299.36C47.004 299.48 46.98 299.564 46.98 299.6C46.98 299.636 47.004 299.648 47.028 299.648L47.364 299.48V299.528C47.364 299.588 47.376 299.624 47.412 299.624C47.46 299.624 47.652 299.432 47.676 299.36L47.652 299.528L48.06 299.288L47.964 299.504C48.084 299.42 48.18 299.372 48.24 299.372C48.3 299.372 48.336 299.468 48.336 299.528C48.336 299.624 48.252 299.756 48.12 299.924C47.976 300.116 47.616 300.488 46.536 301.724C46.068 302.252 43.992 305.072 43.596 305.744L42.852 307.004C42.528 307.544 42.324 307.892 42.216 308.024C42.108 308.156 41.976 308.288 41.82 308.408L41.712 308.348L41.616 308.408L41.508 308.528Z" fill="black"/>
<path d="M73.74 279.096C72.636 279.096 71.768 278.78 71.136 278.148C70.504 277.516 70.188 276.592 70.188 275.376V270.6H71.388V275.328C71.388 276.264 71.592 276.948 72 277.38C72.416 277.812 73 278.028 73.752 278.028C74.512 278.028 75.096 277.812 75.504 277.38C75.92 276.948 76.128 276.264 76.128 275.328V270.6H77.292V275.376C77.292 276.592 76.976 277.516 76.344 278.148C75.72 278.78 74.852 279.096 73.74 279.096ZM82.9802 272.58C83.5002 272.58 83.9562 272.68 84.3482 272.88C84.7482 273.08 85.0602 273.384 85.2842 273.792C85.5082 274.2 85.6202 274.716 85.6202 275.34V279H84.4682V275.472C84.4682 274.856 84.3162 274.392 84.0122 274.08C83.7162 273.768 83.2962 273.612 82.7522 273.612C82.3442 273.612 81.9882 273.692 81.6842 273.852C81.3802 274.012 81.1442 274.248 80.9762 274.56C80.8162 274.872 80.7362 275.26 80.7362 275.724V279H79.5842V272.64H80.6882V274.356L80.5082 273.9C80.7162 273.484 81.0362 273.16 81.4682 272.928C81.9002 272.696 82.4042 272.58 82.9802 272.58ZM87.7522 279V270.096H88.9042V279H87.7522ZM91.1037 279V272.64H92.2557V279H91.1037ZM91.6797 271.416C91.4557 271.416 91.2677 271.344 91.1157 271.2C90.9717 271.056 90.8997 270.88 90.8997 270.672C90.8997 270.456 90.9717 270.276 91.1157 270.132C91.2677 269.988 91.4557 269.916 91.6797 269.916C91.9037 269.916 92.0877 269.988 92.2317 270.132C92.3837 270.268 92.4597 270.44 92.4597 270.648C92.4597 270.864 92.3877 271.048 92.2437 271.2C92.0997 271.344 91.9117 271.416 91.6797 271.416ZM102.411 272.58C102.923 272.58 103.375 272.68 103.767 272.88C104.159 273.08 104.463 273.384 104.679 273.792C104.903 274.2 105.015 274.716 105.015 275.34V279H103.863V275.472C103.863 274.856 103.719 274.392 103.431 274.08C103.143 273.768 102.739 273.612 102.219 273.612C101.835 273.612 101.499 273.692 101.211 273.852C100.923 274.012 100.699 274.248 100.539 274.56C100.387 274.872 100.311 275.26 100.311 275.724V279H99.1593V275.472C99.1593 274.856 99.0153 274.392 98.7273 274.08C98.4473 273.768 98.0433 273.612 97.5153 273.612C97.1393 273.612 96.8073 273.692 96.5193 273.852C96.2313 274.012 96.0073 274.248 95.8473 274.56C95.6873 274.872 95.6073 275.26 95.6073 275.724V279H94.4553V272.64H95.5593V274.332L95.3793 273.9C95.5793 273.484 95.8873 273.16 96.3033 272.928C96.7193 272.696 97.2033 272.58 97.7553 272.58C98.3633 272.58 98.8873 272.732 99.3273 273.036C99.7673 273.332 100.055 273.784 100.191 274.392L99.7233 274.2C99.9153 273.712 100.251 273.32 100.731 273.024C101.211 272.728 101.771 272.58 102.411 272.58ZM107.135 279V272.64H108.287V279H107.135ZM107.711 271.416C107.487 271.416 107.299 271.344 107.147 271.2C107.003 271.056 106.931 270.88 106.931 270.672C106.931 270.456 107.003 270.276 107.147 270.132C107.299 269.988 107.487 269.916 107.711 269.916C107.935 269.916 108.119 269.988 108.263 270.132C108.415 270.268 108.491 270.44 108.491 270.648C108.491 270.864 108.419 271.048 108.275 271.2C108.131 271.344 107.943 271.416 107.711 271.416ZM112.671 279.072C112.031 279.072 111.535 278.9 111.183 278.556C110.831 278.212 110.655 277.72 110.655 277.08V271.248H111.807V277.032C111.807 277.376 111.891 277.64 112.059 277.824C112.235 278.008 112.483 278.1 112.803 278.1C113.163 278.1 113.463 278 113.703 277.8L114.063 278.628C113.887 278.78 113.675 278.892 113.427 278.964C113.187 279.036 112.935 279.072 112.671 279.072ZM109.575 273.588V272.64H113.631V273.588H109.575ZM118.076 279.072C117.396 279.072 116.796 278.932 116.276 278.652C115.764 278.372 115.364 277.988 115.076 277.5C114.796 277.012 114.656 276.452 114.656 275.82C114.656 275.188 114.792 274.628 115.064 274.14C115.344 273.652 115.724 273.272 116.204 273C116.692 272.72 117.24 272.58 117.848 272.58C118.464 272.58 119.008 272.716 119.48 272.988C119.952 273.26 120.32 273.644 120.584 274.14C120.856 274.628 120.992 275.2 120.992 275.856C120.992 275.904 120.988 275.96 120.98 276.024C120.98 276.088 120.976 276.148 120.968 276.204H115.556V275.376H120.368L119.9 275.664C119.908 275.256 119.824 274.892 119.648 274.572C119.472 274.252 119.228 274.004 118.916 273.828C118.612 273.644 118.256 273.552 117.848 273.552C117.448 273.552 117.092 273.644 116.78 273.828C116.468 274.004 116.224 274.256 116.048 274.584C115.872 274.904 115.784 275.272 115.784 275.688V275.88C115.784 276.304 115.88 276.684 116.072 277.02C116.272 277.348 116.548 277.604 116.9 277.788C117.252 277.972 117.656 278.064 118.112 278.064C118.488 278.064 118.828 278 119.132 277.872C119.444 277.744 119.716 277.552 119.948 277.296L120.584 278.04C120.296 278.376 119.936 278.632 119.504 278.808C119.08 278.984 118.604 279.072 118.076 279.072ZM125.22 279.072C124.604 279.072 124.052 278.936 123.564 278.664C123.084 278.392 122.704 278.012 122.424 277.524C122.144 277.036 122.004 276.468 122.004 275.82C122.004 275.172 122.144 274.608 122.424 274.128C122.704 273.64 123.084 273.26 123.564 272.988C124.052 272.716 124.604 272.58 125.22 272.58C125.756 272.58 126.24 272.7 126.672 272.94C127.104 273.18 127.448 273.54 127.704 274.02C127.968 274.5 128.1 275.1 128.1 275.82C128.1 276.54 127.972 277.14 127.716 277.62C127.468 278.1 127.128 278.464 126.696 278.712C126.264 278.952 125.772 279.072 125.22 279.072ZM125.316 278.064C125.716 278.064 126.076 277.972 126.396 277.788C126.724 277.604 126.98 277.344 127.164 277.008C127.356 276.664 127.452 276.268 127.452 275.82C127.452 275.364 127.356 274.972 127.164 274.644C126.98 274.308 126.724 274.048 126.396 273.864C126.076 273.68 125.716 273.588 125.316 273.588C124.908 273.588 124.544 273.68 124.224 273.864C123.904 274.048 123.648 274.308 123.456 274.644C123.264 274.972 123.168 275.364 123.168 275.82C123.168 276.268 123.264 276.664 123.456 277.008C123.648 277.344 123.904 277.604 124.224 277.788C124.544 277.972 124.908 278.064 125.316 278.064ZM127.488 279V277.284L127.56 275.808L127.44 274.332V270.096H128.592V279H127.488ZM136.178 279.072C135.538 279.072 135.042 278.9 134.69 278.556C134.338 278.212 134.162 277.72 134.162 277.08V271.248H135.314V277.032C135.314 277.376 135.398 277.64 135.566 277.824C135.742 278.008 135.99 278.1 136.31 278.1C136.67 278.1 136.97 278 137.21 277.8L137.57 278.628C137.394 278.78 137.182 278.892 136.934 278.964C136.694 279.036 136.442 279.072 136.178 279.072ZM133.082 273.588V272.64H137.138V273.588H133.082ZM138.963 279V272.64H140.067V274.368L139.959 273.936C140.135 273.496 140.431 273.16 140.847 272.928C141.263 272.696 141.775 272.58 142.383 272.58V273.696C142.335 273.688 142.287 273.684 142.239 273.684C142.199 273.684 142.159 273.684 142.119 273.684C141.503 273.684 141.015 273.868 140.655 274.236C140.295 274.604 140.115 275.136 140.115 275.832V279H138.963ZM147.282 279V277.656L147.222 277.404V275.112C147.222 274.624 147.078 274.248 146.79 273.984C146.51 273.712 146.086 273.576 145.518 273.576C145.142 273.576 144.774 273.64 144.414 273.768C144.054 273.888 143.75 274.052 143.502 274.26L143.022 273.396C143.35 273.132 143.742 272.932 144.198 272.796C144.662 272.652 145.146 272.58 145.65 272.58C146.522 272.58 147.194 272.792 147.666 273.216C148.138 273.64 148.374 274.288 148.374 275.16V279H147.282ZM145.194 279.072C144.722 279.072 144.306 278.992 143.946 278.832C143.594 278.672 143.322 278.452 143.13 278.172C142.938 277.884 142.842 277.56 142.842 277.2C142.842 276.856 142.922 276.544 143.082 276.264C143.25 275.984 143.518 275.76 143.886 275.592C144.262 275.424 144.766 275.34 145.398 275.34H147.414V276.168H145.446C144.87 276.168 144.482 276.264 144.282 276.456C144.082 276.648 143.982 276.88 143.982 277.152C143.982 277.464 144.106 277.716 144.354 277.908C144.602 278.092 144.946 278.184 145.386 278.184C145.818 278.184 146.194 278.088 146.514 277.896C146.842 277.704 147.078 277.424 147.222 277.056L147.45 277.848C147.298 278.224 147.03 278.524 146.646 278.748C146.262 278.964 145.778 279.072 145.194 279.072ZM150.506 279V272.64H151.658V279H150.506ZM151.082 271.416C150.858 271.416 150.67 271.344 150.518 271.2C150.374 271.056 150.302 270.88 150.302 270.672C150.302 270.456 150.374 270.276 150.518 270.132C150.67 269.988 150.858 269.916 151.082 269.916C151.306 269.916 151.49 269.988 151.634 270.132C151.786 270.268 151.862 270.44 151.862 270.648C151.862 270.864 151.79 271.048 151.646 271.2C151.502 271.344 151.314 271.416 151.082 271.416ZM157.254 272.58C157.774 272.58 158.23 272.68 158.622 272.88C159.022 273.08 159.334 273.384 159.558 273.792C159.782 274.2 159.894 274.716 159.894 275.34V279H158.742V275.472C158.742 274.856 158.59 274.392 158.286 274.08C157.99 273.768 157.57 273.612 157.026 273.612C156.618 273.612 156.262 273.692 155.958 273.852C155.654 274.012 155.418 274.248 155.25 274.56C155.09 274.872 155.01 275.26 155.01 275.724V279H153.858V272.64H154.962V274.356L154.782 273.9C154.99 273.484 155.31 273.16 155.742 272.928C156.174 272.696 156.678 272.58 157.254 272.58ZM162.026 279V272.64H163.178V279H162.026ZM162.602 271.416C162.378 271.416 162.19 271.344 162.038 271.2C161.894 271.056 161.822 270.88 161.822 270.672C161.822 270.456 161.894 270.276 162.038 270.132C162.19 269.988 162.378 269.916 162.602 269.916C162.826 269.916 163.01 269.988 163.154 270.132C163.306 270.268 163.382 270.44 163.382 270.648C163.382 270.864 163.31 271.048 163.166 271.2C163.022 271.344 162.834 271.416 162.602 271.416ZM168.773 272.58C169.293 272.58 169.749 272.68 170.141 272.88C170.541 273.08 170.853 273.384 171.077 273.792C171.301 274.2 171.413 274.716 171.413 275.34V279H170.261V275.472C170.261 274.856 170.109 274.392 169.805 274.08C169.509 273.768 169.089 273.612 168.545 273.612C168.137 273.612 167.781 273.692 167.477 273.852C167.173 274.012 166.937 274.248 166.769 274.56C166.609 274.872 166.529 275.26 166.529 275.724V279H165.377V272.64H166.481V274.356L166.301 273.9C166.509 273.484 166.829 273.16 167.261 272.928C167.693 272.696 168.197 272.58 168.773 272.58ZM176.329 281.4C175.745 281.4 175.177 281.316 174.625 281.148C174.081 280.988 173.637 280.756 173.293 280.452L173.845 279.564C174.141 279.82 174.505 280.02 174.937 280.164C175.369 280.316 175.821 280.392 176.293 280.392C177.045 280.392 177.597 280.216 177.949 279.864C178.301 279.512 178.477 278.976 178.477 278.256V276.912L178.597 275.652L178.537 274.38V272.64H179.629V278.136C179.629 279.256 179.349 280.08 178.789 280.608C178.229 281.136 177.409 281.4 176.329 281.4ZM176.185 278.736C175.569 278.736 175.017 278.608 174.529 278.352C174.049 278.088 173.665 277.724 173.377 277.26C173.097 276.796 172.957 276.26 172.957 275.652C172.957 275.036 173.097 274.5 173.377 274.044C173.665 273.58 174.049 273.22 174.529 272.964C175.017 272.708 175.569 272.58 176.185 272.58C176.729 272.58 177.225 272.692 177.673 272.916C178.121 273.132 178.477 273.468 178.741 273.924C179.013 274.38 179.149 274.956 179.149 275.652C179.149 276.34 179.013 276.912 178.741 277.368C178.477 277.824 178.121 278.168 177.673 278.4C177.225 278.624 176.729 278.736 176.185 278.736ZM176.317 277.728C176.741 277.728 177.117 277.64 177.445 277.464C177.773 277.288 178.029 277.044 178.213 276.732C178.405 276.42 178.501 276.06 178.501 275.652C178.501 275.244 178.405 274.884 178.213 274.572C178.029 274.26 177.773 274.02 177.445 273.852C177.117 273.676 176.741 273.588 176.317 273.588C175.893 273.588 175.513 273.676 175.177 273.852C174.849 274.02 174.589 274.26 174.397 274.572C174.213 274.884 174.121 275.244 174.121 275.652C174.121 276.06 174.213 276.42 174.397 276.732C174.589 277.044 174.849 277.288 175.177 277.464C175.513 277.64 175.893 277.728 176.317 277.728Z" fill="black"/>
<path d="M73.052 309.096C72.412 309.096 71.816 308.988 71.264 308.772C70.72 308.556 70.248 308.256 69.848 307.872C69.448 307.48 69.136 307.024 68.912 306.504C68.688 305.984 68.576 305.416 68.576 304.8C68.576 304.184 68.688 303.616 68.912 303.096C69.136 302.576 69.448 302.124 69.848 301.74C70.248 301.348 70.72 301.044 71.264 300.828C71.808 300.612 72.404 300.504 73.052 300.504C73.692 300.504 74.28 300.612 74.816 300.828C75.36 301.036 75.832 301.336 76.232 301.728C76.64 302.112 76.952 302.564 77.168 303.084C77.392 303.604 77.504 304.176 77.504 304.8C77.504 305.424 77.392 305.996 77.168 306.516C76.952 307.036 76.64 307.492 76.232 307.884C75.832 308.268 75.36 308.568 74.816 308.784C74.28 308.992 73.692 309.096 73.052 309.096ZM73.052 308.028C73.516 308.028 73.944 307.948 74.336 307.788C74.736 307.628 75.08 307.404 75.368 307.116C75.664 306.82 75.892 306.476 76.052 306.084C76.22 305.692 76.304 305.264 76.304 304.8C76.304 304.336 76.22 303.908 76.052 303.516C75.892 303.124 75.664 302.784 75.368 302.496C75.08 302.2 74.736 301.972 74.336 301.812C73.944 301.652 73.516 301.572 73.052 301.572C72.58 301.572 72.144 301.652 71.744 301.812C71.352 301.972 71.008 302.2 70.712 302.496C70.416 302.784 70.184 303.124 70.016 303.516C69.856 303.908 69.776 304.336 69.776 304.8C69.776 305.264 69.856 305.692 70.016 306.084C70.184 306.476 70.416 306.82 70.712 307.116C71.008 307.404 71.352 307.628 71.744 307.788C72.144 307.948 72.58 308.028 73.052 308.028ZM79.1701 309V302.64H80.2741V304.368L80.1661 303.936C80.3421 303.496 80.6381 303.16 81.0541 302.928C81.4701 302.696 81.9821 302.58 82.5901 302.58V303.696C82.5421 303.688 82.4941 303.684 82.4461 303.684C82.4061 303.684 82.3661 303.684 82.3261 303.684C81.7101 303.684 81.2221 303.868 80.8621 304.236C80.5021 304.604 80.3221 305.136 80.3221 305.832V309H79.1701ZM86.5794 309.072C85.9634 309.072 85.4114 308.936 84.9234 308.664C84.4434 308.392 84.0634 308.012 83.7834 307.524C83.5034 307.036 83.3634 306.468 83.3634 305.82C83.3634 305.172 83.5034 304.608 83.7834 304.128C84.0634 303.64 84.4434 303.26 84.9234 302.988C85.4114 302.716 85.9634 302.58 86.5794 302.58C87.1154 302.58 87.5994 302.7 88.0314 302.94C88.4634 303.18 88.8074 303.54 89.0634 304.02C89.3274 304.5 89.4594 305.1 89.4594 305.82C89.4594 306.54 89.3314 307.14 89.0754 307.62C88.8274 308.1 88.4874 308.464 88.0554 308.712C87.6234 308.952 87.1314 309.072 86.5794 309.072ZM86.6754 308.064C87.0754 308.064 87.4354 307.972 87.7554 307.788C88.0834 307.604 88.3394 307.344 88.5234 307.008C88.7154 306.664 88.8114 306.268 88.8114 305.82C88.8114 305.364 88.7154 304.972 88.5234 304.644C88.3394 304.308 88.0834 304.048 87.7554 303.864C87.4354 303.68 87.0754 303.588 86.6754 303.588C86.2674 303.588 85.9034 303.68 85.5834 303.864C85.2634 304.048 85.0074 304.308 84.8154 304.644C84.6234 304.972 84.5274 305.364 84.5274 305.82C84.5274 306.268 84.6234 306.664 84.8154 307.008C85.0074 307.344 85.2634 307.604 85.5834 307.788C85.9034 307.972 86.2674 308.064 86.6754 308.064ZM88.8474 309V307.284L88.9194 305.808L88.7994 304.332V300.096H89.9514V309H88.8474ZM92.1311 309V302.64H93.2831V309H92.1311ZM92.7071 301.416C92.4831 301.416 92.2951 301.344 92.1431 301.2C91.9991 301.056 91.9271 300.88 91.9271 300.672C91.9271 300.456 91.9991 300.276 92.1431 300.132C92.2951 299.988 92.4831 299.916 92.7071 299.916C92.9311 299.916 93.1151 299.988 93.2591 300.132C93.4111 300.268 93.4871 300.44 93.4871 300.648C93.4871 300.864 93.4151 301.048 93.2711 301.2C93.1271 301.344 92.9391 301.416 92.7071 301.416ZM98.8786 302.58C99.3986 302.58 99.8546 302.68 100.247 302.88C100.647 303.08 100.959 303.384 101.183 303.792C101.407 304.2 101.519 304.716 101.519 305.34V309H100.367V305.472C100.367 304.856 100.215 304.392 99.9106 304.08C99.6146 303.768 99.1946 303.612 98.6506 303.612C98.2426 303.612 97.8866 303.692 97.5826 303.852C97.2786 304.012 97.0426 304.248 96.8746 304.56C96.7146 304.872 96.6346 305.26 96.6346 305.724V309H95.4826V302.64H96.5866V304.356L96.4066 303.9C96.6146 303.484 96.9346 303.16 97.3666 302.928C97.7986 302.696 98.3026 302.58 98.8786 302.58ZM107.599 309V307.656L107.539 307.404V305.112C107.539 304.624 107.395 304.248 107.107 303.984C106.827 303.712 106.403 303.576 105.835 303.576C105.459 303.576 105.091 303.64 104.731 303.768C104.371 303.888 104.067 304.052 103.819 304.26L103.339 303.396C103.667 303.132 104.059 302.932 104.515 302.796C104.979 302.652 105.463 302.58 105.967 302.58C106.839 302.58 107.511 302.792 107.983 303.216C108.455 303.64 108.691 304.288 108.691 305.16V309H107.599ZM105.511 309.072C105.039 309.072 104.623 308.992 104.263 308.832C103.911 308.672 103.639 308.452 103.447 308.172C103.255 307.884 103.159 307.56 103.159 307.2C103.159 306.856 103.239 306.544 103.399 306.264C103.567 305.984 103.835 305.76 104.203 305.592C104.579 305.424 105.083 305.34 105.715 305.34H107.731V306.168H105.763C105.187 306.168 104.799 306.264 104.599 306.456C104.399 306.648 104.299 306.88 104.299 307.152C104.299 307.464 104.423 307.716 104.671 307.908C104.919 308.092 105.263 308.184 105.703 308.184C106.135 308.184 106.511 308.088 106.831 307.896C107.159 307.704 107.395 307.424 107.539 307.056L107.767 307.848C107.615 308.224 107.347 308.524 106.963 308.748C106.579 308.964 106.095 309.072 105.511 309.072ZM110.822 309V302.64H111.926V304.368L111.818 303.936C111.994 303.496 112.29 303.16 112.706 302.928C113.122 302.696 113.634 302.58 114.242 302.58V303.696C114.194 303.688 114.146 303.684 114.098 303.684C114.058 303.684 114.018 303.684 113.978 303.684C113.362 303.684 112.874 303.868 112.514 304.236C112.154 304.604 111.974 305.136 111.974 305.832V309H110.822ZM116.196 311.4C115.892 311.4 115.596 311.348 115.308 311.244C115.02 311.148 114.772 311.004 114.564 310.812L115.056 309.948C115.216 310.1 115.392 310.216 115.584 310.296C115.776 310.376 115.98 310.416 116.196 310.416C116.476 310.416 116.708 310.344 116.892 310.2C117.076 310.056 117.248 309.8 117.408 309.432L117.804 308.556L117.924 308.412L120.42 302.64H121.548L118.464 309.636C118.28 310.084 118.072 310.436 117.84 310.692C117.616 310.948 117.368 311.128 117.096 311.232C116.824 311.344 116.524 311.4 116.196 311.4ZM117.708 309.204L114.804 302.64H116.004L118.476 308.304L117.708 309.204ZM127.67 309.072C127.142 309.072 126.638 309 126.158 308.856C125.686 308.712 125.314 308.536 125.042 308.328L125.522 307.416C125.794 307.6 126.13 307.756 126.53 307.884C126.93 308.012 127.338 308.076 127.754 308.076C128.29 308.076 128.674 308 128.906 307.848C129.146 307.696 129.266 307.484 129.266 307.212C129.266 307.012 129.194 306.856 129.05 306.744C128.906 306.632 128.714 306.548 128.474 306.492C128.242 306.436 127.982 306.388 127.694 306.348C127.406 306.3 127.118 306.244 126.83 306.18C126.542 306.108 126.278 306.012 126.038 305.892C125.798 305.764 125.606 305.592 125.462 305.376C125.318 305.152 125.246 304.856 125.246 304.488C125.246 304.104 125.354 303.768 125.57 303.48C125.786 303.192 126.09 302.972 126.482 302.82C126.882 302.66 127.354 302.58 127.898 302.58C128.314 302.58 128.734 302.632 129.158 302.736C129.59 302.832 129.942 302.972 130.214 303.156L129.722 304.068C129.434 303.876 129.134 303.744 128.822 303.672C128.51 303.6 128.198 303.564 127.886 303.564C127.382 303.564 127.006 303.648 126.758 303.816C126.51 303.976 126.386 304.184 126.386 304.44C126.386 304.656 126.458 304.824 126.602 304.944C126.754 305.056 126.946 305.144 127.178 305.208C127.418 305.272 127.682 305.328 127.97 305.376C128.258 305.416 128.546 305.472 128.834 305.544C129.122 305.608 129.382 305.7 129.614 305.82C129.854 305.94 130.046 306.108 130.19 306.324C130.342 306.54 130.418 306.828 130.418 307.188C130.418 307.572 130.306 307.904 130.082 308.184C129.858 308.464 129.542 308.684 129.134 308.844C128.726 308.996 128.238 309.072 127.67 309.072ZM134.042 309.072C133.402 309.072 132.906 308.9 132.554 308.556C132.202 308.212 132.026 307.72 132.026 307.08V301.248H133.178V307.032C133.178 307.376 133.262 307.64 133.43 307.824C133.606 308.008 133.854 308.1 134.174 308.1C134.534 308.1 134.834 308 135.074 307.8L135.434 308.628C135.258 308.78 135.046 308.892 134.798 308.964C134.558 309.036 134.306 309.072 134.042 309.072ZM130.946 303.588V302.64H135.002V303.588H130.946ZM140.774 309V307.656L140.714 307.404V305.112C140.714 304.624 140.57 304.248 140.282 303.984C140.002 303.712 139.578 303.576 139.01 303.576C138.634 303.576 138.266 303.64 137.906 303.768C137.546 303.888 137.242 304.052 136.994 304.26L136.514 303.396C136.842 303.132 137.234 302.932 137.69 302.796C138.154 302.652 138.638 302.58 139.142 302.58C140.014 302.58 140.686 302.792 141.158 303.216C141.63 303.64 141.866 304.288 141.866 305.16V309H140.774ZM138.686 309.072C138.214 309.072 137.798 308.992 137.438 308.832C137.086 308.672 136.814 308.452 136.622 308.172C136.43 307.884 136.334 307.56 136.334 307.2C136.334 306.856 136.414 306.544 136.574 306.264C136.742 305.984 137.01 305.76 137.378 305.592C137.754 305.424 138.258 305.34 138.89 305.34H140.906V306.168H138.938C138.362 306.168 137.974 306.264 137.774 306.456C137.574 306.648 137.474 306.88 137.474 307.152C137.474 307.464 137.598 307.716 137.846 307.908C138.094 308.092 138.438 308.184 138.878 308.184C139.31 308.184 139.686 308.088 140.006 307.896C140.334 307.704 140.57 307.424 140.714 307.056L140.942 307.848C140.79 308.224 140.522 308.524 140.138 308.748C139.754 308.964 139.27 309.072 138.686 309.072ZM146.182 309.072C145.542 309.072 145.046 308.9 144.694 308.556C144.342 308.212 144.166 307.72 144.166 307.08V301.248H145.318V307.032C145.318 307.376 145.402 307.64 145.57 307.824C145.746 308.008 145.994 308.1 146.314 308.1C146.674 308.1 146.974 308 147.214 307.8L147.574 308.628C147.398 308.78 147.186 308.892 146.938 308.964C146.698 309.036 146.446 309.072 146.182 309.072ZM143.086 303.588V302.64H147.142V303.588H143.086ZM148.967 309V302.64H150.119V309H148.967ZM149.543 301.416C149.319 301.416 149.131 301.344 148.979 301.2C148.835 301.056 148.763 300.88 148.763 300.672C148.763 300.456 148.835 300.276 148.979 300.132C149.131 299.988 149.319 299.916 149.543 299.916C149.767 299.916 149.951 299.988 150.095 300.132C150.247 300.268 150.323 300.44 150.323 300.648C150.323 300.864 150.251 301.048 150.107 301.2C149.963 301.344 149.775 301.416 149.543 301.416ZM154.143 309.072C153.615 309.072 153.111 309 152.631 308.856C152.159 308.712 151.787 308.536 151.515 308.328L151.995 307.416C152.267 307.6 152.603 307.756 153.003 307.884C153.403 308.012 153.811 308.076 154.227 308.076C154.763 308.076 155.147 308 155.379 307.848C155.619 307.696 155.739 307.484 155.739 307.212C155.739 307.012 155.667 306.856 155.523 306.744C155.379 306.632 155.187 306.548 154.947 306.492C154.715 306.436 154.455 306.388 154.167 306.348C153.879 306.3 153.591 306.244 153.303 306.18C153.015 306.108 152.751 306.012 152.511 305.892C152.271 305.764 152.079 305.592 151.935 305.376C151.791 305.152 151.719 304.856 151.719 304.488C151.719 304.104 151.827 303.768 152.043 303.48C152.259 303.192 152.563 302.972 152.955 302.82C153.355 302.66 153.827 302.58 154.371 302.58C154.787 302.58 155.207 302.632 155.631 302.736C156.063 302.832 156.415 302.972 156.687 303.156L156.195 304.068C155.907 303.876 155.607 303.744 155.295 303.672C154.983 303.6 154.671 303.564 154.359 303.564C153.855 303.564 153.479 303.648 153.231 303.816C152.983 303.976 152.859 304.184 152.859 304.44C152.859 304.656 152.931 304.824 153.075 304.944C153.227 305.056 153.419 305.144 153.651 305.208C153.891 305.272 154.155 305.328 154.443 305.376C154.731 305.416 155.019 305.472 155.307 305.544C155.595 305.608 155.855 305.7 156.087 305.82C156.327 305.94 156.519 306.108 156.663 306.324C156.815 306.54 156.891 306.828 156.891 307.188C156.891 307.572 156.779 307.904 156.555 308.184C156.331 308.464 156.015 308.684 155.607 308.844C155.199 308.996 154.711 309.072 154.143 309.072ZM160.514 309.072C159.874 309.072 159.378 308.9 159.026 308.556C158.674 308.212 158.498 307.72 158.498 307.08V301.248H159.65V307.032C159.65 307.376 159.734 307.64 159.902 307.824C160.078 308.008 160.326 308.1 160.646 308.1C161.006 308.1 161.306 308 161.546 307.8L161.906 308.628C161.73 308.78 161.518 308.892 161.27 308.964C161.03 309.036 160.778 309.072 160.514 309.072ZM157.418 303.588V302.64H161.474V303.588H157.418ZM163.299 309V302.64H164.451V309H163.299ZM163.875 301.416C163.651 301.416 163.463 301.344 163.311 301.2C163.167 301.056 163.095 300.88 163.095 300.672C163.095 300.456 163.167 300.276 163.311 300.132C163.463 299.988 163.651 299.916 163.875 299.916C164.099 299.916 164.283 299.988 164.427 300.132C164.579 300.268 164.655 300.44 164.655 300.648C164.655 300.864 164.583 301.048 164.439 301.2C164.295 301.344 164.107 301.416 163.875 301.416ZM169.423 309.072C168.775 309.072 168.195 308.932 167.683 308.652C167.179 308.372 166.783 307.988 166.495 307.5C166.207 307.012 166.063 306.452 166.063 305.82C166.063 305.188 166.207 304.628 166.495 304.14C166.783 303.652 167.179 303.272 167.683 303C168.195 302.72 168.775 302.58 169.423 302.58C169.999 302.58 170.511 302.696 170.959 302.928C171.415 303.152 171.767 303.488 172.015 303.936L171.139 304.5C170.931 304.188 170.675 303.96 170.371 303.816C170.075 303.664 169.755 303.588 169.411 303.588C168.995 303.588 168.623 303.68 168.295 303.864C167.967 304.048 167.707 304.308 167.515 304.644C167.323 304.972 167.227 305.364 167.227 305.82C167.227 306.276 167.323 306.672 167.515 307.008C167.707 307.344 167.967 307.604 168.295 307.788C168.623 307.972 168.995 308.064 169.411 308.064C169.755 308.064 170.075 307.992 170.371 307.848C170.675 307.696 170.931 307.464 171.139 307.152L172.015 307.704C171.767 308.144 171.415 308.484 170.959 308.724C170.511 308.956 169.999 309.072 169.423 309.072ZM175.33 309.072C174.802 309.072 174.298 309 173.818 308.856C173.346 308.712 172.974 308.536 172.702 308.328L173.182 307.416C173.454 307.6 173.79 307.756 174.19 307.884C174.59 308.012 174.998 308.076 175.414 308.076C175.95 308.076 176.334 308 176.566 307.848C176.806 307.696 176.926 307.484 176.926 307.212C176.926 307.012 176.854 306.856 176.71 306.744C176.566 306.632 176.374 306.548 176.134 306.492C175.902 306.436 175.642 306.388 175.354 306.348C175.066 306.3 174.778 306.244 174.49 306.18C174.202 306.108 173.938 306.012 173.698 305.892C173.458 305.764 173.266 305.592 173.122 305.376C172.978 305.152 172.906 304.856 172.906 304.488C172.906 304.104 173.014 303.768 173.23 303.48C173.446 303.192 173.75 302.972 174.142 302.82C174.542 302.66 175.014 302.58 175.558 302.58C175.974 302.58 176.394 302.632 176.818 302.736C177.25 302.832 177.602 302.972 177.874 303.156L177.382 304.068C177.094 303.876 176.794 303.744 176.482 303.672C176.17 303.6 175.858 303.564 175.546 303.564C175.042 303.564 174.666 303.648 174.418 303.816C174.17 303.976 174.046 304.184 174.046 304.44C174.046 304.656 174.118 304.824 174.262 304.944C174.414 305.056 174.606 305.144 174.838 305.208C175.078 305.272 175.342 305.328 175.63 305.376C175.918 305.416 176.206 305.472 176.494 305.544C176.782 305.608 177.042 305.7 177.274 305.82C177.514 305.94 177.706 306.108 177.85 306.324C178.002 306.54 178.078 306.828 178.078 307.188C178.078 307.572 177.966 307.904 177.742 308.184C177.518 308.464 177.202 308.684 176.794 308.844C176.386 308.996 175.898 309.072 175.33 309.072Z" fill="black"/>
<defs>
<linearGradient id="paint0_linear_188_10" x1="132.5" y1="0" x2="132.5" y2="389" gradientUnits="userSpaceOnUse">
<stop stop-color="#FFF6E4"/>
<stop offset="0.665" stop-color="white"/>
</linearGradient>
</defs>
</svg>
