<svg width="133" height="133" viewBox="0 0 133 133" fill="none" xmlns="http://www.w3.org/2000/svg">
<g filter="url(#filter0_d_644_2)">
<path d="M66.4347 33.9353L71.3716 29.6966C68.4326 27.5002 71.3716 29.6966 66.3979 25.869C59.9152 30.9939 66.3979 25.869 63.0067 28.3094L40.625 47.499L45.5982 51.7377L66.4347 33.9353Z" fill="black"/>
<path d="M66.6014 15.0189L62.1692 11.2377L61.1541 13.4899C60.7208 14.4189 60.6136 15.4828 60.8209 16.4697C61.0354 17.4906 61.5501 18.3664 62.3122 19.0028L80.6145 34.3367L85.237 30.995L66.6014 15.0189Z" fill="black"/>
</g>
<g filter="url(#filter1_d_644_2)">
<path d="M128.259 65.2577L120.799 42.4639C120.437 41.3901 119.804 40.4139 118.945 39.633L78.9741 4.78329C75.4473 1.70832 70.971 0 66.4042 0C61.8827 0 57.4063 1.70832 53.8795 4.78329L13.1403 40.2187C12.8238 40.5115 12.5073 40.8044 12.2812 41.146L12.236 41.1948L12.1003 41.4389C11.7386 41.9758 11.4673 42.5615 11.2864 43.1472L4.63976 65.1113C3.82588 67.8934 3.78066 70.8219 4.54933 73.6041C5.31799 76.3862 6.81011 78.8266 8.93524 80.6814L54.5577 120.412C57.9489 123.34 62.1992 124.951 66.5399 125H66.5851C70.9258 125 75.176 123.389 78.522 120.461L124.145 81.1207C128.395 77.3136 130.113 70.9684 128.259 65.2577ZM57.4515 9.61538C59.9836 7.41897 63.1487 6.24756 66.359 6.19875C69.6145 6.19875 72.7796 7.41897 75.3117 9.61538L111.982 41.6341L75.2665 73.5064C72.7344 75.7029 69.5693 76.8743 66.359 76.9231C63.1035 76.9231 59.9384 75.7029 57.4063 73.5064L20.7817 41.4877L57.4515 9.61538ZM12.4621 75.8005C12.236 75.6052 12.0099 75.3612 11.7838 75.1171C11.6482 74.9707 11.4673 74.7755 11.3317 74.5802C11.2864 74.5314 11.2412 74.4826 11.196 74.385C11.0604 74.141 10.8795 73.9457 10.7439 73.7017L10.6986 73.6041C10.6534 73.5552 10.6534 73.5064 10.6082 73.4576C10.2917 73.2624 10.1561 72.8719 10.2013 72.4814C10.2013 72.4326 10.1561 72.3838 10.1561 72.335C10.0656 72.0422 9.97519 71.7493 9.92998 71.4565V71.3588C9.92998 71.31 9.88476 71.2612 9.88476 71.2612C9.7039 70.9684 9.65869 70.6267 9.79433 70.285C9.79433 70.2362 9.79433 70.1386 9.79433 70.041C9.79433 69.7481 9.79433 69.4553 9.79433 69.1624V69.1136C9.79433 69.0648 9.79433 69.016 9.79433 68.9184V68.8696C9.79433 68.6255 9.83955 68.3815 9.88476 68.1863C9.92998 67.8446 10.0204 67.5517 10.1108 67.2101L16.5767 45.9293L53.9247 78.5338C55.6429 80.0468 60.3906 82.7313 59.6219 81.9992C58.8532 81.2671 56.3212 113.969 56.3212 113.969L12.4621 75.8005ZM70.1571 116.947C69.4789 117.874 68.4841 118.508 67.3537 118.655C67.2633 118.655 67.1277 118.655 66.992 118.704C66.8112 118.704 66.6303 118.704 66.4494 118.704C64.0982 118.704 62.1992 118.216 60.1645 116.947C60.1645 116.947 61.747 82.3897 61.2044 82.3897C60.6618 82.3897 64.46 83.1218 66.1329 83.1218C66.1329 83.1218 66.1329 83.1218 66.1782 83.1218H67.399L70.971 113.579C71.1519 114.799 70.8353 116.019 70.1571 116.947ZM123.195 70.285C123.195 70.3339 123.195 70.4315 123.195 70.4803V70.5291C123.15 70.8219 123.15 71.1148 123.105 71.4077V71.4565C123.105 71.5053 123.059 71.6029 123.059 71.6517V71.7005C123.014 71.9934 122.924 72.2862 122.833 72.5303V72.5791C122.788 72.6279 122.788 72.7255 122.788 72.7743V72.8231C122.698 73.116 122.562 73.36 122.426 73.6529L122.381 73.7017C122.336 73.7505 122.336 73.8481 122.291 73.8969L122.245 73.9457C122.11 74.1898 121.929 74.4826 121.793 74.7267L121.748 74.7755C121.703 74.8243 121.658 74.8731 121.612 74.9707H121.567C121.432 75.1659 121.296 75.3124 121.16 75.5076C120.934 75.7517 120.708 75.9957 120.482 76.1909L76.0351 114.555L71.0162 82.5361L71.5136 82.3897C74.2717 81.6087 76.7586 80.2421 78.9741 78.3385L115.915 46.2222L122.788 67.3077C122.924 67.6005 122.969 67.9422 123.059 68.2839C123.105 68.5279 123.15 68.7231 123.15 68.9672V69.0648C123.15 69.1136 123.15 69.1624 123.15 69.2112V69.26C123.195 69.6505 123.195 69.9434 123.195 70.285Z" fill="black"/>
</g>
<g filter="url(#filter2_d_644_2)">
<path d="M59.2401 55.9165C59.2401 55.9165 58.6316 56.2669 57.2709 57.0001C55.9101 57.7333 56.2719 57.2449 56.2719 57.2449C55.8369 58.1743 57.2702 58.2205 57.8586 57.732C58.4471 57.2434 54.374 57.342 55.1379 57.9779L68.028 69.1229L72.6656 65.7776C72.6656 65.7776 68.5269 61.1213 65.8993 59.1909C63.2823 57.2682 59.2401 55.9165 59.2401 55.9165Z" fill="black"/>
<path d="M80.6813 44.1851L85.6182 39.9465L83.5853 38.2124C82.7504 37.4803 81.6977 37.095 80.645 37.095C79.556 37.095 78.5396 37.4803 77.7046 38.2124L54.8716 57.7489L59.8448 61.9876L80.6813 44.1851Z" fill="black"/>
</g>
<defs>
<filter id="filter0_d_644_2" x="36.625" y="11.2377" width="52.6118" height="48.5001" filterUnits="userSpaceOnUse" color-interpolation-filters="sRGB">
<feFlood flood-opacity="0" result="BackgroundImageFix"/>
<feColorMatrix in="SourceAlpha" type="matrix" values="0 0 0 0 0 0 0 0 0 0 0 0 0 0 0 0 0 0 127 0" result="hardAlpha"/>
<feOffset dy="4"/>
<feGaussianBlur stdDeviation="2"/>
<feComposite in2="hardAlpha" operator="out"/>
<feColorMatrix type="matrix" values="0 0 0 0 0.362874 0 0 0 0 0.268004 0 0 0 0 0.342003 0 0 0 0.5 0"/>
<feBlend mode="normal" in2="BackgroundImageFix" result="effect1_dropShadow_644_2"/>
<feBlend mode="normal" in="SourceGraphic" in2="effect1_dropShadow_644_2" result="shape"/>
</filter>
<filter id="filter1_d_644_2" x="0" y="0" width="133" height="133" filterUnits="userSpaceOnUse" color-interpolation-filters="sRGB">
<feFlood flood-opacity="0" result="BackgroundImageFix"/>
<feColorMatrix in="SourceAlpha" type="matrix" values="0 0 0 0 0 0 0 0 0 0 0 0 0 0 0 0 0 0 127 0" result="hardAlpha"/>
<feOffset dy="4"/>
<feGaussianBlur stdDeviation="2"/>
<feComposite in2="hardAlpha" operator="out"/>
<feColorMatrix type="matrix" values="0 0 0 0 0.362874 0 0 0 0 0.268004 0 0 0 0 0.342003 0 0 0 0.5 0"/>
<feBlend mode="normal" in2="BackgroundImageFix" result="effect1_dropShadow_644_2"/>
<feBlend mode="normal" in="SourceGraphic" in2="effect1_dropShadow_644_2" result="shape"/>
</filter>
<filter id="filter2_d_644_2" x="50.8716" y="37.095" width="38.7466" height="40.0279" filterUnits="userSpaceOnUse" color-interpolation-filters="sRGB">
<feFlood flood-opacity="0" result="BackgroundImageFix"/>
<feColorMatrix in="SourceAlpha" type="matrix" values="0 0 0 0 0 0 0 0 0 0 0 0 0 0 0 0 0 0 127 0" result="hardAlpha"/>
<feOffset dy="4"/>
<feGaussianBlur stdDeviation="2"/>
<feComposite in2="hardAlpha" operator="out"/>
<feColorMatrix type="matrix" values="0 0 0 0 0.362874 0 0 0 0 0.268004 0 0 0 0 0.342003 0 0 0 0.5 0"/>
<feBlend mode="normal" in2="BackgroundImageFix" result="effect1_dropShadow_644_2"/>
<feBlend mode="normal" in="SourceGraphic" in2="effect1_dropShadow_644_2" result="shape"/>
</filter>
</defs>
</svg>
